<svg xmlns="http://www.w3.org/2000/svg" width="28" height="28" viewBox="0 0 28 28">
    <g fill="none" fill-rule="evenodd">
        <path d="M0 0L32 0 32 32 0 32z" transform="translate(-2 -2)"/>
        <path fill="#9DA0B8" fill-rule="nonzero" d="M2.667 16C2.667 8.636 8.636 2.667 16 2.667S29.333 8.636 29.333 16 23.364 29.333 16 29.333H2.667l3.905-3.905C4.068 22.93 2.662 19.538 2.667 16zm6.437 10.667H16c5.891 0 10.667-4.776 10.667-10.667S21.89 5.333 16 5.333 5.333 10.11 5.333 16c0 2.87 1.135 5.553 3.124 7.543l1.886 1.885-1.239 1.239zm1.563-9.334h10.666c0 2.946-2.387 5.334-5.333 5.334s-5.333-2.388-5.333-5.334z" transform="translate(-2 -2)"/>
    </g>
</svg>
