<?xml version="1.0" encoding="UTF-8"?>
<svg width="27px" height="27px" viewBox="0 0 27 27" version="1.1" xmlns="http://www.w3.org/2000/svg" xmlns:xlink="http://www.w3.org/1999/xlink">
    <!-- Generator: Sketch 64 (93537) - https://sketch.com -->
    <title>Group</title>
    <desc>Created with Sketch.</desc>
    <g id="next.elrond" stroke="none" stroke-width="1" fill="none" fill-rule="evenodd">
        <g id="Artboard" transform="translate(-300.000000, -148.000000)" fill="#9DA0B8" fill-rule="nonzero">
            <g id="Group" transform="translate(313.500000, 161.500000) rotate(-90.000000) translate(-313.500000, -161.500000) translate(300.000000, 148.000000)">
                <path d="M13.5000003,23.8502591 C11.1117378,23.8502591 8.91624403,23.0287278 7.16450653,21.666409 L21.6661503,7.16476528 C23.028469,8.91779653 23.8500003,11.1119966 23.8500003,13.500259 C23.8500003,19.2069903 19.2067316,23.8502591 13.5000003,23.8502591 M3.15000028,13.500259 C3.15000028,7.79352778 7.79326903,3.15025903 13.5000003,3.15025903 C15.8882628,3.15025903 18.0837565,3.97049653 19.8354941,5.33410903 L5.33385028,19.8357528 C3.97153153,18.0827216 3.15000028,15.8872278 3.15000028,13.500259 M13.5000003,0.562759031 C6.35591278,0.562759031 0.562500281,6.35487778 0.562500281,13.500259 C0.562500281,20.6443466 6.35591278,26.437759 13.5000003,26.437759 C20.6440878,26.437759 26.4375003,20.6443466 26.4375003,13.500259 C26.4375003,6.35487778 20.6440878,0.562759031 13.5000003,0.562759031" id="Shape"></path>
            </g>
        </g>
    </g>
</svg>