<svg width="35" height="35" viewBox="0 0 35 35" fill="none" xmlns="http://www.w3.org/2000/svg">
<rect x="7.62939e-06" width="35" height="35" rx="0.897436" fill="url(#paint0_linear)"/>
<path fill-rule="evenodd" clip-rule="evenodd" d="M27.5125 18.4995C27.3259 17.8223 26.597 17.3545 25.7476 17.3545C25.6986 17.3545 25.6487 17.3561 25.599 17.3594C25.5961 17.3595 25.5933 17.3597 25.5905 17.3599C25.588 17.3601 25.5855 17.3604 25.5829 17.3607C25.0984 17.3932 24.63 17.5776 24.2129 17.8867C22.939 15.6319 20.1967 14.0714 17.0183 14.0714C15.8027 14.0714 14.6516 14.3002 13.6211 14.7083L13.6275 14.7042C12.7485 13.8718 11.4591 13.6517 9.93884 14.0904C10.6773 14.8183 10.9694 15.5455 11.0526 16.3256L11.0584 16.3217C10.1515 17.0482 9.84377 17.7317 9.59527 18.2836C9.43435 18.641 9.29827 18.9432 9.04044 19.1662C8.85844 19.3238 8.55702 19.3189 8.24722 19.3138C7.92492 19.3085 7.59355 19.3031 7.37807 19.4804C6.91453 19.8634 6.8752 21.7849 7.27138 22.2749C7.64273 22.7343 9.32508 22.6505 9.32508 22.6505C9.32508 23.1475 8.94309 23.6617 8.39413 23.8831C8.39413 23.8831 8.75645 24.7715 10.6883 24.7715L10.6909 24.7745C10.7406 24.8315 11.5032 25.7062 12.4516 26.176C12.4516 26.176 12.5015 27.6946 12.9229 28.1159C13.3461 28.5392 14.9185 28.5566 15.2744 28.1159C15.4785 27.8642 15.5088 27.263 15.5088 27.263C15.9981 27.3417 16.5026 27.3845 17.019 27.3845C17.9206 27.3845 18.7861 27.2572 19.5946 27.0257C19.5946 27.0257 19.5723 27.8455 19.8434 28.1163C20.2554 28.5286 21.8311 28.5669 22.195 28.1163C22.6866 27.5073 22.6511 25.4285 22.6511 25.4285C24.0859 24.2245 24.9737 22.5631 24.9737 20.728C24.9737 20.0539 24.8531 19.4041 24.6304 18.7909C24.7338 18.6971 24.8367 18.6198 24.9366 18.5585C24.9234 19.1252 25.1506 19.6642 25.5826 19.9495C25.7912 20.0878 26.0381 20.1564 26.2873 20.1564H26.2889C26.5642 20.1564 26.8407 20.0729 27.069 19.9076C27.5025 19.5913 27.6685 19.0656 27.5125 18.4995ZM26.5 19.1243C26.4401 19.1681 26.3627 19.19 26.2879 19.19C26.225 19.19 26.1635 19.1742 26.1154 19.1426C25.9385 19.0256 25.853 18.6749 25.9385 18.338C26.2769 18.3912 26.5293 18.5727 26.58 18.7568C26.651 19.0136 26.538 19.0964 26.5003 19.124L26.5 19.1243ZM26.8533 17.2936C26.866 17.2879 26.8782 17.2815 26.8903 17.2751C26.9076 17.2659 26.9249 17.2568 26.9439 17.2498C27.1944 17.1573 27.3227 16.8791 27.2301 16.6286C27.1376 16.3778 26.8581 16.2498 26.609 16.3424C26.2009 16.4932 25.8634 16.7347 25.5981 17.0364C25.648 17.0335 25.6983 17.0315 25.7476 17.0315C26.1515 17.0322 26.529 17.1289 26.8533 17.2936ZM17.5992 13.0273C19.5395 13.0273 21.1125 11.4539 21.1125 9.51396C21.1125 7.57308 19.5391 6 17.5992 6C15.6583 6 14.0856 7.5734 14.0856 9.51396C14.0853 11.4539 15.658 13.0273 17.5992 13.0273Z" fill="#1BFEC0"/>
<defs>
<linearGradient id="paint0_linear" x1="17.5" y1="0" x2="17.5" y2="35" gradientUnits="userSpaceOnUse">
<stop stop-color="#5E20E5"/>
<stop offset="1" stop-color="#350898"/>
</linearGradient>
</defs>
</svg>
