<svg width="35" height="35" viewBox="0 0 35 35" fill="none" xmlns="http://www.w3.org/2000/svg">
<path fill-rule="evenodd" clip-rule="evenodd" d="M28.045 6.95566C27.9821 6.89605 27.9319 6.8244 27.8972 6.74497C27.8626 6.66554 27.8443 6.57996 27.8434 6.49331C27.8432 6.40562 27.8609 6.3188 27.8956 6.23825C27.9303 6.15769 27.9811 6.08512 28.045 6.02503C28.1794 5.90216 28.3549 5.83401 28.537 5.83401C28.7191 5.83401 28.8946 5.90216 29.029 6.02503C29.0956 6.08361 29.149 6.15561 29.1858 6.23633C29.2226 6.31704 29.2419 6.40462 29.2424 6.49331C29.2407 6.58094 29.2208 6.66727 29.1841 6.74684C29.1474 6.82642 29.0945 6.89752 29.029 6.95566C28.8965 7.07767 28.723 7.14538 28.5429 7.14535C28.3588 7.1478 28.1808 7.07996 28.045 6.95566Z" fill="white"/>
<path fill-rule="evenodd" clip-rule="evenodd" d="M26.2845 8.7932C26.1633 8.66924 26.0935 8.50411 26.0889 8.33085C26.0914 8.1554 26.1614 7.98767 26.2845 7.86257C26.4086 7.74057 26.5757 7.67221 26.7498 7.67221C26.9239 7.67221 27.091 7.74057 27.2151 7.86257C27.3365 7.98826 27.4045 8.1561 27.4048 8.33085C27.4024 8.50342 27.3346 8.66865 27.2151 8.7932C27.0894 8.9146 26.9216 8.98258 26.7468 8.98288C26.5738 8.98292 26.4077 8.91477 26.2845 8.7932Z" fill="white"/>
<path fill-rule="evenodd" clip-rule="evenodd" d="M24.3581 10.6248C24.2379 10.5031 24.1699 10.3394 24.1684 10.1684C24.1597 10.0771 24.1702 9.98509 24.1991 9.89812C24.2281 9.81115 24.2749 9.73119 24.3366 9.66338C24.3982 9.59556 24.4734 9.54137 24.5572 9.50429C24.641 9.46721 24.7317 9.44806 24.8234 9.44806C24.915 9.44806 25.0057 9.46721 25.0895 9.50429C25.1733 9.54137 25.2485 9.59556 25.3102 9.66338C25.3718 9.73119 25.4187 9.81115 25.4476 9.89812C25.4766 9.98509 25.4871 10.0771 25.4784 10.1684C25.4789 10.2985 25.4405 10.4257 25.3682 10.5338C25.2958 10.6419 25.1928 10.7259 25.0723 10.775C24.9519 10.824 24.8195 10.836 24.6922 10.8092C24.5649 10.7824 24.4486 10.7182 24.3581 10.6248Z" fill="white"/>
<path fill-rule="evenodd" clip-rule="evenodd" d="M22.5263 12.4683C22.4075 12.3484 22.3409 12.1865 22.3409 12.0178C22.3409 11.8491 22.4075 11.6872 22.5263 11.5673C22.6632 11.4448 22.8405 11.3771 23.0242 11.3771C23.2079 11.3771 23.3852 11.4448 23.5221 11.5673C23.5854 11.6272 23.6359 11.6993 23.6704 11.7793C23.7048 11.8593 23.7226 11.9455 23.7226 12.0326C23.7226 12.1198 23.7048 12.206 23.6704 12.286C23.6359 12.366 23.5854 12.4381 23.5221 12.498C23.3867 12.6228 23.2084 12.6907 23.0242 12.6876C22.8402 12.6895 22.6624 12.6217 22.5263 12.498" fill="white"/>
<path fill-rule="evenodd" clip-rule="evenodd" d="M20.7777 14.3059C20.7151 14.245 20.6656 14.1722 20.632 14.0917C20.5983 14.0112 20.5814 13.9248 20.5821 13.8376C20.5843 13.7088 20.6243 13.5835 20.6972 13.4772C20.77 13.371 20.8724 13.2885 20.9917 13.2399C21.111 13.1913 21.2419 13.1787 21.3682 13.2039C21.4946 13.229 21.6107 13.2906 21.7024 13.3812C21.7629 13.4407 21.8109 13.5117 21.8435 13.5901C21.8761 13.6685 21.8926 13.7527 21.892 13.8376C21.8937 13.9244 21.8777 14.0107 21.8452 14.0913C21.8127 14.1718 21.7643 14.245 21.7029 14.3064C21.6415 14.3678 21.5683 14.4162 21.4878 14.4487C21.4072 14.4812 21.3209 14.4971 21.2341 14.4955C21.1492 14.4961 21.065 14.4796 20.9866 14.447C20.9082 14.4144 20.8372 14.3664 20.7777 14.3059Z" fill="white"/>
<path fill-rule="evenodd" clip-rule="evenodd" d="M18.6555 15.6753C18.6577 15.5015 18.7279 15.3355 18.8511 15.2129C18.9588 15.1074 19.0996 15.0425 19.2497 15.0291C19.3999 15.0157 19.55 15.0548 19.6745 15.1396C19.7991 15.2244 19.8905 15.3498 19.933 15.4944C19.9756 15.639 19.9668 15.7938 19.9081 15.9326C19.8493 16.0714 19.7443 16.1856 19.6109 16.2557C19.4775 16.3258 19.3239 16.3476 19.1763 16.3172C19.0287 16.2869 18.8961 16.2064 18.8012 16.0893C18.7062 15.9723 18.6548 15.826 18.6555 15.6753Z" fill="white"/>
<path fill-rule="evenodd" clip-rule="evenodd" d="M15.2593 19.7237C15.1377 19.6005 15.0695 19.4344 15.0696 19.2613C15.0708 19.0885 15.1388 18.9228 15.2593 18.799C15.3513 18.7081 15.468 18.6463 15.5948 18.6214C15.7217 18.5965 15.8531 18.6095 15.9726 18.6589C16.0922 18.7082 16.1945 18.7916 16.2669 18.8988C16.3392 19.0059 16.3784 19.132 16.3796 19.2613C16.3766 19.4339 16.3071 19.5986 16.1856 19.7212C16.0642 19.8438 15.9001 19.9147 15.7275 19.9193C15.6404 19.9193 15.5542 19.902 15.4738 19.8684C15.3934 19.8348 15.3205 19.7856 15.2593 19.7237Z" fill="white"/>
<path fill-rule="evenodd" clip-rule="evenodd" d="M13.3506 21.5612C13.2861 21.5026 13.2344 21.4312 13.1987 21.3517C13.163 21.2721 13.1441 21.1861 13.1431 21.0989C13.1444 21.0118 13.1635 20.9258 13.1992 20.8463C13.2348 20.7668 13.2864 20.6954 13.3506 20.6365C13.486 20.5133 13.6625 20.4449 13.8455 20.4449C14.0286 20.4449 14.2051 20.5133 14.3405 20.6365C14.4039 20.6957 14.4545 20.7673 14.4892 20.8468C14.5239 20.9264 14.5418 21.0121 14.542 21.0989C14.5426 21.1858 14.5249 21.2718 14.4902 21.3514C14.4555 21.431 14.4045 21.5025 14.3405 21.5612C14.2056 21.6877 14.0275 21.7577 13.8426 21.7569C13.6595 21.7574 13.4833 21.6873 13.3506 21.5612Z" fill="white"/>
<path fill-rule="evenodd" clip-rule="evenodd" d="M11.5838 23.4225C11.4604 23.2991 11.3911 23.1317 11.3911 22.9572C11.3911 22.7827 11.4604 22.6153 11.5838 22.4919C11.7072 22.3685 11.8746 22.2992 12.0491 22.2992C12.2236 22.2992 12.391 22.3685 12.5144 22.4919C12.5763 22.5526 12.6254 22.625 12.6589 22.7049C12.6924 22.7848 12.7097 22.8706 12.7097 22.9572C12.7097 23.0439 12.6924 23.1296 12.6589 23.2095C12.6254 23.2894 12.5763 23.3618 12.5144 23.4225C12.4542 23.4838 12.3822 23.5322 12.3027 23.5648C12.2232 23.5974 12.138 23.6136 12.0521 23.6122C11.9653 23.6137 11.8791 23.5976 11.7986 23.565C11.7182 23.5325 11.6451 23.484 11.5838 23.4225Z" fill="white"/>
<path fill-rule="evenodd" clip-rule="evenodd" d="M9.75233 25.2363C9.68997 25.1766 9.64046 25.1048 9.60683 25.0253C9.57319 24.9458 9.55614 24.8603 9.55672 24.774C9.55672 24.5995 9.62604 24.4321 9.74943 24.3087C9.87282 24.1854 10.0402 24.116 10.2147 24.116C10.3892 24.116 10.5565 24.1854 10.6799 24.3087C10.8033 24.4321 10.8726 24.5995 10.8726 24.774C10.8732 24.8603 10.8562 24.9458 10.8225 25.0253C10.7889 25.1048 10.7394 25.1766 10.677 25.2363C10.6168 25.298 10.5449 25.347 10.4655 25.3804C10.3861 25.4139 10.3008 25.4311 10.2147 25.4311C10.1285 25.4311 10.0432 25.4139 9.96382 25.3804C9.88442 25.347 9.81251 25.298 9.75233 25.2363Z" fill="white"/>
<path fill-rule="evenodd" clip-rule="evenodd" d="M7.84381 27.0738C7.77721 27.0169 7.72405 26.9459 7.68818 26.8659C7.65231 26.786 7.6346 26.6991 7.63635 26.6115C7.63647 26.5233 7.65499 26.4361 7.69071 26.3555C7.72643 26.2748 7.77858 26.2025 7.84381 26.1432C7.97941 26.0228 8.15446 25.9563 8.3358 25.9563C8.51715 25.9563 8.69219 26.0228 8.82779 26.1432C8.89303 26.2025 8.94517 26.2748 8.98089 26.3555C9.01662 26.4361 9.03513 26.5233 9.03526 26.6115C9.037 26.6991 9.0193 26.786 8.98342 26.8659C8.94755 26.9459 8.8944 27.0169 8.82779 27.0738C8.6947 27.1993 8.51871 27.2692 8.3358 27.2692C8.1529 27.2692 7.9769 27.1993 7.84381 27.0738Z" fill="white"/>
<path fill-rule="evenodd" clip-rule="evenodd" d="M6.07142 28.9113C5.9498 28.7882 5.88159 28.6221 5.88159 28.449C5.88159 28.2759 5.9498 28.1098 6.07142 27.9866C6.13212 27.9248 6.20453 27.8757 6.28443 27.8421C6.36432 27.8086 6.45009 27.7914 6.53674 27.7914C6.62338 27.7914 6.70916 27.8086 6.78905 27.8421C6.86895 27.8757 6.94136 27.9248 7.00205 27.9866C7.06371 28.0468 7.11271 28.1187 7.14616 28.1981C7.17961 28.2775 7.19685 28.3628 7.19685 28.449C7.19685 28.5351 7.17961 28.6204 7.14616 28.6998C7.11271 28.7792 7.06371 28.8511 7.00205 28.9113C6.87948 29.0345 6.71348 29.1048 6.5397 29.1069C6.36425 29.1044 6.19652 29.0344 6.07142 28.9113Z" fill="white"/>
<path fill-rule="evenodd" clip-rule="evenodd" d="M7.00783 6.95573C7.12731 6.83118 7.1951 6.66595 7.19751 6.49338C7.19721 6.31863 7.12923 6.15079 7.00783 6.0251C6.94724 5.96416 6.8752 5.91581 6.79585 5.88281C6.7165 5.84981 6.63141 5.83282 6.54548 5.83282C6.45955 5.83282 6.37446 5.84981 6.29511 5.88281C6.21576 5.91581 6.14372 5.96416 6.08313 6.0251C6.02034 6.08602 5.97021 6.15876 5.93562 6.23912C5.90103 6.31948 5.88267 6.40589 5.88159 6.49338C5.88596 6.66787 5.95828 6.83376 6.08313 6.95573C6.20412 7.07695 6.36828 7.14518 6.53955 7.14541C6.71454 7.14637 6.88284 7.0782 7.00783 6.95573Z" fill="white"/>
<path fill-rule="evenodd" clip-rule="evenodd" d="M8.82768 8.79318C8.89136 8.73387 8.94253 8.6624 8.97816 8.58299C9.01379 8.50358 9.03317 8.41785 9.03514 8.33083C9.0343 8.24276 9.01547 8.15579 8.97979 8.07526C8.94411 7.99473 8.89235 7.92235 8.82768 7.86256C8.69232 7.73926 8.51582 7.67093 8.33272 7.67093C8.14963 7.67093 7.97313 7.73926 7.83777 7.86256C7.7739 7.92264 7.72305 7.99521 7.68838 8.07577C7.65371 8.15632 7.63596 8.24314 7.63623 8.33083C7.63711 8.41748 7.6554 8.50306 7.69002 8.58249C7.72465 8.66192 7.77489 8.73357 7.83777 8.79318C7.97374 8.91524 8.15001 8.98275 8.33272 8.98275C8.51544 8.98275 8.69171 8.91524 8.82768 8.79318Z" fill="white"/>
<path fill-rule="evenodd" clip-rule="evenodd" d="M10.6716 10.6248C10.733 10.5656 10.7819 10.4947 10.8155 10.4163C10.8491 10.3379 10.8666 10.2536 10.8672 10.1683C10.8679 10.0811 10.8509 9.99468 10.8173 9.9142C10.7837 9.83372 10.7341 9.76088 10.6716 9.70007C10.5953 9.6228 10.501 9.56562 10.3972 9.53364C10.2934 9.50167 10.1833 9.49589 10.0767 9.51682C9.97012 9.53775 9.87038 9.58474 9.78638 9.6536C9.70238 9.72246 9.63673 9.81104 9.59529 9.91144C9.55386 10.0118 9.53792 10.1209 9.54891 10.229C9.55989 10.3371 9.59746 10.4407 9.65826 10.5307C9.71906 10.6207 9.80119 10.6943 9.89733 10.7448C9.99347 10.7954 10.1006 10.8213 10.2092 10.8204C10.2955 10.8206 10.3809 10.8034 10.4604 10.7698C10.5398 10.7362 10.6117 10.6868 10.6716 10.6248Z" fill="white"/>
<path fill-rule="evenodd" clip-rule="evenodd" d="M12.5143 12.4683C12.6063 12.3763 12.669 12.259 12.6943 12.1314C12.7197 12.0038 12.7067 11.8715 12.6569 11.7513C12.6071 11.6311 12.5227 11.5283 12.4145 11.456C12.3063 11.3837 12.1791 11.3452 12.049 11.3452C11.9189 11.3452 11.7917 11.3837 11.6835 11.456C11.5753 11.5283 11.491 11.6311 11.4412 11.7513C11.3913 11.8715 11.3783 12.0038 11.4037 12.1314C11.4291 12.259 11.4917 12.3763 11.5837 12.4683C11.7079 12.5903 11.875 12.6587 12.049 12.6587C12.2231 12.6587 12.3902 12.5903 12.5143 12.4683Z" fill="white"/>
<path fill-rule="evenodd" clip-rule="evenodd" d="M14.3339 14.3059C14.4013 14.2483 14.4549 14.1763 14.4908 14.0953C14.5267 14.0142 14.544 13.9262 14.5414 13.8376C14.5422 13.751 14.5241 13.6652 14.4883 13.5864C14.4524 13.5075 14.3997 13.4375 14.3339 13.3812C14.2008 13.2557 14.0248 13.1858 13.8419 13.1858C13.659 13.1858 13.483 13.2557 13.3499 13.3812C13.2841 13.4375 13.2314 13.5075 13.1956 13.5864C13.1597 13.6652 13.1416 13.751 13.1425 13.8376C13.1398 13.9262 13.1571 14.0142 13.193 14.0953C13.2289 14.1763 13.2825 14.2483 13.3499 14.3059C13.4849 14.4275 13.6602 14.4948 13.8419 14.4948C14.0236 14.4948 14.1989 14.4275 14.3339 14.3059Z" fill="white"/>
<path fill-rule="evenodd" clip-rule="evenodd" d="M16.3797 15.6751C16.3776 15.5013 16.3073 15.3353 16.1841 15.2128C16.0579 15.1055 15.8959 15.0498 15.7304 15.0568C15.5649 15.0638 15.4081 15.133 15.2914 15.2504C15.1746 15.3679 15.1065 15.5251 15.1006 15.6907C15.0947 15.8562 15.1514 16.0179 15.2594 16.1434C15.3844 16.2659 15.5527 16.334 15.7277 16.3331C15.9012 16.3315 16.067 16.2615 16.1891 16.1383C16.3112 16.0151 16.3797 15.8486 16.3797 15.6751Z" fill="white"/>
<path fill-rule="evenodd" clip-rule="evenodd" d="M18.0273 17.9811C18.0888 17.9198 18.1372 17.8467 18.1698 17.7662C18.2024 17.6858 18.2185 17.5996 18.217 17.5128C18.2183 17.4269 18.2022 17.3416 18.1696 17.2621C18.137 17.1827 18.0886 17.1106 18.0273 17.0504C17.9032 16.9284 17.7361 16.8601 17.562 16.8601C17.3879 16.8601 17.2208 16.9284 17.0967 17.0504C17.0354 17.1106 16.987 17.1827 16.9544 17.2621C16.9218 17.3416 16.9057 17.4269 16.907 17.5128C16.9056 17.5996 16.9216 17.6858 16.9542 17.7662C16.9868 17.8467 17.0352 17.9198 17.0967 17.9811C17.2208 18.1031 17.3879 18.1714 17.562 18.1714C17.7361 18.1714 17.9032 18.1031 18.0273 17.9811Z" fill="white"/>
<path fill-rule="evenodd" clip-rule="evenodd" d="M19.8529 19.7235C19.9158 19.6639 19.9661 19.5923 20.0007 19.5128C20.0353 19.4334 20.0536 19.3478 20.0545 19.2612C20.0529 19.1747 20.0343 19.0893 19.9998 19.0099C19.9652 18.9306 19.9153 18.8589 19.8529 18.7988C19.7185 18.676 19.543 18.6078 19.3609 18.6078C19.1788 18.6078 19.0033 18.676 18.869 18.7988C18.8031 18.8567 18.7501 18.9278 18.7133 19.0074C18.6766 19.0871 18.6569 19.1735 18.6556 19.2612C18.6545 19.3493 18.6732 19.4365 18.7101 19.5164C18.747 19.5964 18.8013 19.6672 18.869 19.7235C18.9992 19.8498 19.1736 19.92 19.355 19.9191C19.5399 19.92 19.7181 19.85 19.8529 19.7235Z" fill="white"/>
<path fill-rule="evenodd" clip-rule="evenodd" d="M21.7024 21.5613C21.824 21.4381 21.8921 21.272 21.8921 21.0989C21.8909 20.9261 21.8229 20.7604 21.7024 20.6366C21.5782 20.5146 21.4111 20.4462 21.2371 20.4462C21.063 20.4462 20.8959 20.5146 20.7718 20.6366C20.6513 20.7604 20.5833 20.9261 20.5821 21.0989C20.5803 21.2295 20.6179 21.3576 20.6897 21.4666C20.7616 21.5756 20.8646 21.6605 20.9853 21.7103C21.106 21.7601 21.2389 21.7726 21.3668 21.746C21.4946 21.7194 21.6115 21.6551 21.7024 21.5613Z" fill="white"/>
<path fill-rule="evenodd" clip-rule="evenodd" d="M23.5405 23.4224C23.6325 23.3304 23.6952 23.2132 23.7205 23.0855C23.7459 22.9579 23.7329 22.8256 23.6831 22.7054C23.6333 22.5852 23.5489 22.4824 23.4407 22.4102C23.3325 22.3379 23.2053 22.2993 23.0752 22.2993C22.9451 22.2993 22.8179 22.3379 22.7097 22.4102C22.6015 22.4824 22.5171 22.5852 22.4673 22.7054C22.4175 22.8256 22.4045 22.9579 22.4299 23.0855C22.4552 23.2132 22.5179 23.3304 22.6099 23.4224C22.734 23.5444 22.9011 23.6128 23.0752 23.6128C23.2493 23.6128 23.4164 23.5444 23.5405 23.4224Z" fill="white"/>
<path fill-rule="evenodd" clip-rule="evenodd" d="M25.2828 25.2363C25.3451 25.1766 25.3946 25.1048 25.4283 25.0253C25.4619 24.9458 25.479 24.8603 25.4784 24.774C25.4784 24.6442 25.4401 24.5173 25.3681 24.4092C25.2962 24.3012 25.1939 24.2168 25.0742 24.1667C24.9544 24.1167 24.8225 24.1032 24.6951 24.1279C24.5677 24.1526 24.4504 24.2145 24.3581 24.3057C24.2377 24.432 24.1699 24.5994 24.1684 24.774C24.1681 24.8597 24.1846 24.9447 24.2172 25.024C24.2497 25.1034 24.2976 25.1755 24.3581 25.2363C24.4185 25.2994 24.4912 25.3493 24.5718 25.383C24.6524 25.4166 24.739 25.4333 24.8264 25.4319C24.9121 25.4343 24.9972 25.418 25.076 25.3842C25.1548 25.3504 25.2254 25.3 25.2828 25.2363Z" fill="white"/>
<path fill-rule="evenodd" clip-rule="evenodd" d="M27.2091 27.0738C27.2715 27.0141 27.321 26.9423 27.3546 26.8628C27.3882 26.7833 27.4053 26.6978 27.4047 26.6115C27.4047 26.4817 27.3664 26.3548 27.2944 26.2467C27.2225 26.1387 27.1202 26.0543 27.0005 26.0043C26.8807 25.9542 26.7489 25.9407 26.6214 25.9654C26.494 25.9901 26.3767 26.052 26.2844 26.1432C26.2216 26.2038 26.1718 26.2766 26.1382 26.3571C26.1046 26.4377 26.0877 26.5242 26.0888 26.6115C26.0856 26.6982 26.1014 26.7845 26.1352 26.8644C26.169 26.9443 26.2199 27.0158 26.2844 27.0738C26.3441 27.1362 26.4159 27.1857 26.4954 27.2193C26.5749 27.253 26.6604 27.27 26.7467 27.2694C26.833 27.2697 26.9184 27.2525 26.9979 27.2188C27.0773 27.1852 27.1492 27.1359 27.2091 27.0738Z" fill="white"/>
<path fill-rule="evenodd" clip-rule="evenodd" d="M29.047 28.9114C29.1109 28.8526 29.162 28.7811 29.1969 28.7015C29.2318 28.6219 29.2498 28.536 29.2498 28.4491C29.2498 28.3622 29.2318 28.2762 29.1969 28.1966C29.162 28.117 29.1109 28.0456 29.047 27.9867C28.9129 27.8609 28.7359 27.7908 28.552 27.7908C28.3681 27.7908 28.1912 27.8609 28.0571 27.9867C27.9879 28.0423 27.932 28.1126 27.8936 28.1927C27.8552 28.2727 27.8353 28.3603 27.8353 28.4491C27.8353 28.5378 27.8552 28.6255 27.8936 28.7055C27.932 28.7855 27.9879 28.8559 28.0571 28.9114C28.1908 29.036 28.3664 29.1058 28.5491 29.107C28.7334 29.105 28.9106 29.0354 29.047 28.9114Z" fill="white"/>
<path fill-rule="evenodd" clip-rule="evenodd" d="M11.3351 7.4536C13.1681 6.26176 15.3075 5.62737 17.4938 5.62737C19.6802 5.62737 21.8196 6.26176 23.6526 7.4536L27.6063 3.51769C24.7302 1.23959 21.1688 0 17.4998 0C13.8307 0 10.2693 1.23959 7.39325 3.51769L11.3351 7.44768V7.4536Z" fill="white"/>
<path fill-rule="evenodd" clip-rule="evenodd" d="M7.39336 23.6121C6.16682 21.7954 5.51614 19.6512 5.52618 17.4593C5.51851 15.2703 6.16229 13.1285 7.37558 11.3064L3.45745 7.37646C1.2166 10.2576 0 13.8034 0 17.4533C0 21.1033 1.2166 24.6491 3.45745 27.5302L7.38151 23.6002L7.39336 23.6121Z" fill="white"/>
<path fill-rule="evenodd" clip-rule="evenodd" d="M23.7119 27.5717C21.9016 28.8178 19.7567 29.4873 17.559 29.4923C15.3269 29.5215 13.1417 28.8498 11.3114 27.5717L7.39325 31.4839C10.2701 33.7977 13.8615 35.0402 17.5531 34.999C21.2166 34.9813 24.767 33.7282 27.63 31.4425L23.7119 27.5717Z" fill="white"/>
<path fill-rule="evenodd" clip-rule="evenodd" d="M27.5296 11.3125C28.744 13.1336 29.392 15.2735 29.392 17.4624C29.392 19.6513 28.744 21.7911 27.5296 23.6122L31.4655 27.5719C33.7342 24.7026 34.9704 21.1528 34.9746 17.495C35.0148 13.8107 33.7721 10.2272 31.4595 7.35883L27.5118 11.2888L27.5296 11.3125Z" fill="white"/>
<path fill-rule="evenodd" clip-rule="evenodd" d="M31.6492 28.7573C32.1946 28.7573 32.7278 28.9191 33.1812 29.2222C33.6346 29.5254 33.9878 29.9562 34.1963 30.4602C34.4047 30.9642 34.459 31.5187 34.3521 32.0535C34.2453 32.5884 33.9822 33.0795 33.5961 33.4647C33.21 33.85 32.7184 34.112 32.1833 34.2177C31.6482 34.3234 31.0938 34.268 30.5903 34.0584C30.0867 33.8489 29.6567 33.4947 29.3545 33.0406C29.0524 32.5866 28.8917 32.0531 28.8929 31.5077C28.8929 31.146 28.9642 30.7879 29.1028 30.4538C29.2414 30.1197 29.4445 29.8162 29.7006 29.5608C29.9566 29.3053 30.2605 29.1028 30.5949 28.965C30.9292 28.8271 31.2875 28.7565 31.6492 28.7573Z" fill="white"/>
<path fill-rule="evenodd" clip-rule="evenodd" d="M3.43371 28.7573C4.14185 28.7902 4.8101 29.0946 5.29961 29.6074C5.78912 30.1201 6.06225 30.8018 6.06225 31.5107C6.06225 32.2196 5.78912 32.9012 5.29961 33.414C4.8101 33.9267 4.14185 34.2311 3.43371 34.264C2.72557 34.2311 2.05733 33.9267 1.56782 33.414C1.07831 32.9012 0.805176 32.2196 0.805176 31.5107C0.805176 30.8018 1.07831 30.1201 1.56782 29.6074C2.05733 29.0946 2.72557 28.7902 3.43371 28.7573Z" fill="white"/>
<path fill-rule="evenodd" clip-rule="evenodd" d="M31.6905 0.589417C32.4116 0.598795 33.0997 0.893464 33.604 1.40893C34.1084 1.92439 34.388 2.61867 34.3817 3.33981C34.3988 3.7066 34.3414 4.07307 34.2128 4.41703C34.0843 4.76098 33.8873 5.07529 33.6338 5.34093C33.3803 5.60657 33.0755 5.81803 32.7379 5.9625C32.4004 6.10697 32.037 6.18146 31.6698 6.18146C31.3026 6.18146 30.9392 6.10697 30.6016 5.9625C30.2641 5.81803 29.9593 5.60657 29.7058 5.34093C29.4523 5.07529 29.2553 4.76098 29.1267 4.41703C28.9982 4.07307 28.9408 3.7066 28.9579 3.33981C28.9556 2.98096 29.0239 2.62516 29.1591 2.29272C29.2943 1.96029 29.4936 1.65774 29.7457 1.40234C29.9978 1.14694 30.2977 0.943695 30.6284 0.804214C30.959 0.664732 31.3139 0.591744 31.6728 0.589417" fill="white"/>
<path fill-rule="evenodd" clip-rule="evenodd" d="M3.39176 0.58952C3.75061 0.586393 4.10657 0.653982 4.43931 0.788427C4.77204 0.922872 5.07503 1.12154 5.33098 1.37309C5.58693 1.62464 5.79083 1.92414 5.93103 2.25449C6.07123 2.58484 6.14498 2.93957 6.14808 3.29842C6.14498 3.65728 6.07123 4.01201 5.93103 4.34236C5.79083 4.67271 5.58693 4.97221 5.33098 5.22376C5.07503 5.4753 4.77204 5.67397 4.43931 5.80842C4.10657 5.94286 3.75061 6.01045 3.39176 6.00732C3.0329 6.01045 2.67695 5.94286 2.34421 5.80842C2.01148 5.67397 1.70849 5.4753 1.45254 5.22376C1.19659 4.97221 0.992689 4.67271 0.852491 4.34236C0.712292 4.01201 0.638537 3.65728 0.635437 3.29842C0.638537 2.93957 0.712292 2.58484 0.852491 2.25449C0.992689 1.92414 1.19659 1.62464 1.45254 1.37309C1.70849 1.12154 2.01148 0.922872 2.34421 0.788427C2.67695 0.653982 3.0329 0.586393 3.39176 0.58952Z" fill="white"/>
</svg>
