<svg width="35" height="35" viewBox="0 0 35 35" fill="none" xmlns="http://www.w3.org/2000/svg">
<rect width="35" height="35" rx="0.897436" fill="url(#paint0_linear)"/>
<path d="M26.2857 14.1429H8.28571C7.57564 14.1429 7 13.5672 7 12.8571V10.2857C7 9.57564 7.57564 9 8.28571 9H26.2857C26.9958 9 27.5714 9.57564 27.5714 10.2857V12.8571C27.5714 13.5672 26.9958 14.1429 26.2857 14.1429ZM24.3571 10.6071C23.8246 10.6071 23.3929 11.0389 23.3929 11.5714C23.3929 12.104 23.8246 12.5357 24.3571 12.5357C24.8897 12.5357 25.3214 12.104 25.3214 11.5714C25.3214 11.0389 24.8897 10.6071 24.3571 10.6071ZM21.7857 10.6071C21.2531 10.6071 20.8214 11.0389 20.8214 11.5714C20.8214 12.104 21.2531 12.5357 21.7857 12.5357C22.3183 12.5357 22.75 12.104 22.75 11.5714C22.75 11.0389 22.3183 10.6071 21.7857 10.6071ZM26.2857 20.5714H8.28571C7.57564 20.5714 7 19.9958 7 19.2857V16.7143C7 16.0042 7.57564 15.4286 8.28571 15.4286H26.2857C26.9958 15.4286 27.5714 16.0042 27.5714 16.7143V19.2857C27.5714 19.9958 26.9958 20.5714 26.2857 20.5714ZM24.3571 17.0357C23.8246 17.0357 23.3929 17.4674 23.3929 18C23.3929 18.5326 23.8246 18.9643 24.3571 18.9643C24.8897 18.9643 25.3214 18.5326 25.3214 18C25.3214 17.4674 24.8897 17.0357 24.3571 17.0357ZM21.7857 17.0357C21.2531 17.0357 20.8214 17.4674 20.8214 18C20.8214 18.5326 21.2531 18.9643 21.7857 18.9643C22.3183 18.9643 22.75 18.5326 22.75 18C22.75 17.4674 22.3183 17.0357 21.7857 17.0357ZM26.2857 27H8.28571C7.57564 27 7 26.4244 7 25.7143V23.1429C7 22.4328 7.57564 21.8571 8.28571 21.8571H26.2857C26.9958 21.8571 27.5714 22.4328 27.5714 23.1429V25.7143C27.5714 26.4244 26.9958 27 26.2857 27ZM24.3571 23.4643C23.8246 23.4643 23.3929 23.896 23.3929 24.4286C23.3929 24.9611 23.8246 25.3929 24.3571 25.3929C24.8897 25.3929 25.3214 24.9611 25.3214 24.4286C25.3214 23.896 24.8897 23.4643 24.3571 23.4643ZM21.7857 23.4643C21.2531 23.4643 20.8214 23.896 20.8214 24.4286C20.8214 24.9611 21.2531 25.3929 21.7857 25.3929C22.3183 25.3929 22.75 24.9611 22.75 24.4286C22.75 23.896 22.3183 23.4643 21.7857 23.4643Z" fill="#1BFEC0"/>
<defs>
<linearGradient id="paint0_linear" x1="17.5" y1="0" x2="17.5" y2="35" gradientUnits="userSpaceOnUse">
<stop stop-color="#5E20E5"/>
<stop offset="1" stop-color="#350898"/>
</linearGradient>
</defs>
</svg>
