<?xml version="1.0" encoding="iso-8859-1"?>
<!-- Generator: Adobe Illustrator 19.0.0, SVG Export Plug-In . SVG Version: 6.00 Build 0)  -->
<svg version="1.1" id="Layer_1" xmlns="http://www.w3.org/2000/svg" xmlns:xlink="http://www.w3.org/1999/xlink" x="0px" y="0px"
	 viewBox="0 0 489.4 489.4" style="enable-background:new 0 0 489.4 489.4;" xml:space="preserve">
<g>
	<g>
		<polyline id="XMLID_342_" style="fill:#A7A9AC;" points="259.604,286.2 267.404,459 243.704,480.4 220.404,459.3 227.904,286.2 		
			"/>
		<path d="M65.904,403.9c5,0,9.1-4.1,9.1-9.1v-50.3c0-8,3.5-15.5,9.6-20.5c44.9-36.9,93.5-61.4,102.8-65.9c4.3-2.1,6.9-6.3,6.9-11.1
			v-70.8c0-3-1.5-5.9-4-7.5c-6.7-4.5-10.7-12-10.7-20V75.2c0-31.5,25.6-57.1,57.1-57.1h15.8c31.5,0,57.1,25.6,57.1,57.1v73.4
			c0,8-4,15.5-10.7,20c-2.5,1.7-4,4.5-4,7.5v70.8c0,4.8,2.6,9,6.9,11.1c9.3,4.5,57.9,29.1,102.8,65.9c6.1,5,9.6,12.5,9.6,20.5v50.3
			c0,5,4.1,9.1,9.1,9.1s9.1-4.1,9.1-9.1v-50.3c0-13.4-5.9-26-16.3-34.5c-42.5-34.9-88.3-59.2-103.1-66.6v-62.6
			c9.3-8,14.8-19.6,14.8-32V75.2c0-41.5-33.7-75.2-75.2-75.2h-15.8c-41.5,0-75.2,33.7-75.2,75.2v73.4c0,12.4,5.4,24.1,14.8,32v62.8
			c-14.8,7.4-60.5,31.6-103.1,66.6c-10.3,8.5-16.3,21.1-16.3,34.5v50.3C56.804,399.9,60.904,403.9,65.904,403.9z"/>
		<path d="M268.803,258.3c-5,0-9.1,4.1-9.1,9.1c0,4.5-1.9,8.5-5,11.3c-0.6,0.4-1.2,0.8-1.7,1.4c-2.4,1.7-5.4,2.6-8.6,2.6
			c-8.4,0-15.3-6.8-15.3-15.3c0-5-4.1-9.1-9.1-9.1s-9.1,4.1-9.1,9.1c0,8,2.9,15.4,7.6,21.2l-7.4,170.4c-0.1,2.7,1,5.3,3,7.1l23.3,21
			c1.7,1.6,3.9,2.3,6.1,2.3s4.4-0.8,6.1-2.3l23.9-21.4c2-1.8,3.1-4.4,3-7.1l-7.6-168.4c5.6-6,9-14,9-22.8
			C277.904,262.3,273.803,258.3,268.803,258.3z M243.704,468.2l-14.1-12.7l6.7-155.8c2.6,0.7,5.3,1,8.1,1c2.3,0,4.5-0.2,6.6-0.7
			l7,155.1L243.704,468.2z"/>
	</g>
</g>
<g>
</g>
<g>
</g>
<g>
</g>
<g>
</g>
<g>
</g>
<g>
</g>
<g>
</g>
<g>
</g>
<g>
</g>
<g>
</g>
<g>
</g>
<g>
</g>
<g>
</g>
<g>
</g>
<g>
</g>
</svg>
