<svg width="357" height="41" viewBox="0 0 357 41" fill="none" xmlns="http://www.w3.org/2000/svg">
<path d="M58.662 8.2C61.926 8.2 64.646 9.34467 66.822 11.634C69.0207 13.9233 70.12 16.7453 70.12 20.1C70.12 23.4547 69.0207 26.2767 66.822 28.566C64.646 30.8553 61.926 32 58.662 32H49.21V8.2H58.662ZM58.662 27.512C60.7247 27.512 62.402 26.832 63.694 25.472C64.986 24.0893 65.632 22.2987 65.632 20.1C65.632 17.9013 64.986 16.122 63.694 14.762C62.402 13.3793 60.7247 12.688 58.662 12.688H53.902V27.512H58.662ZM75.9303 25.302C76.5196 27.4327 78.1176 28.498 80.7243 28.498C82.4016 28.498 83.6709 27.9313 84.5323 26.798L88.0683 28.838C86.3909 31.2633 83.9203 32.476 80.6563 32.476C77.8456 32.476 75.5903 31.626 73.8903 29.926C72.1903 28.226 71.3403 26.084 71.3403 23.5C71.3403 20.9387 72.1789 18.808 73.8563 17.108C75.5336 15.3853 77.6869 14.524 80.3163 14.524C82.8096 14.524 84.8609 15.3853 86.4703 17.108C88.1023 18.8307 88.9183 20.9613 88.9183 23.5C88.9183 24.0667 88.8616 24.6673 88.7483 25.302H75.9303ZM75.8623 21.902H84.5323C84.2829 20.746 83.7616 19.8847 82.9683 19.318C82.1976 18.7513 81.3136 18.468 80.3163 18.468C79.1376 18.468 78.1629 18.774 77.3923 19.386C76.6216 19.9753 76.1116 20.814 75.8623 21.902ZM90.9601 32V7.18H95.3461V32H90.9601ZM102.047 25.302C102.636 27.4327 104.234 28.498 106.841 28.498C108.518 28.498 109.787 27.9313 110.649 26.798L114.185 28.838C112.507 31.2633 110.037 32.476 106.773 32.476C103.962 32.476 101.707 31.626 100.007 29.926C98.3065 28.226 97.4565 26.084 97.4565 23.5C97.4565 20.9387 98.2952 18.808 99.9725 17.108C101.65 15.3853 103.803 14.524 106.433 14.524C108.926 14.524 110.977 15.3853 112.587 17.108C114.219 18.8307 115.035 20.9613 115.035 23.5C115.035 24.0667 114.978 24.6673 114.865 25.302H102.047ZM101.979 21.902H110.649C110.399 20.746 109.878 19.8847 109.085 19.318C108.314 18.7513 107.43 18.468 106.433 18.468C105.254 18.468 104.279 18.774 103.509 19.386C102.738 19.9753 102.228 20.814 101.979 21.902ZM129.966 15H134.25V31.184C134.25 33.8133 133.377 35.8193 131.632 37.202C129.909 38.5847 127.824 39.276 125.376 39.276C123.54 39.276 121.919 38.9247 120.514 38.222C119.131 37.5193 118.066 36.488 117.318 35.128L121.058 32.986C121.919 34.5727 123.404 35.366 125.512 35.366C126.894 35.366 127.982 35.0033 128.776 34.278C129.569 33.5527 129.966 32.5213 129.966 31.184V29.348C128.674 31.0707 126.86 31.932 124.526 31.932C122.123 31.932 120.106 31.0933 118.474 29.416C116.864 27.716 116.06 25.6533 116.06 23.228C116.06 20.8253 116.876 18.774 118.508 17.074C120.14 15.374 122.146 14.524 124.526 14.524C126.86 14.524 128.674 15.3853 129.966 17.108V15ZM121.772 26.594C122.678 27.4553 123.823 27.886 125.206 27.886C126.588 27.886 127.722 27.4553 128.606 26.594C129.512 25.71 129.966 24.588 129.966 23.228C129.966 21.8907 129.512 20.7913 128.606 19.93C127.722 19.046 126.588 18.604 125.206 18.604C123.823 18.604 122.678 19.046 121.772 19.93C120.888 20.7913 120.446 21.8907 120.446 23.228C120.446 24.588 120.888 25.71 121.772 26.594ZM150.127 15H154.513V32H150.127V29.994C148.812 31.6487 146.965 32.476 144.585 32.476C142.318 32.476 140.369 31.6147 138.737 29.892C137.127 28.1467 136.323 26.016 136.323 23.5C136.323 20.984 137.127 18.8647 138.737 17.142C140.369 15.3967 142.318 14.524 144.585 14.524C146.965 14.524 148.812 15.3513 150.127 17.006V15ZM142.035 26.968C142.919 27.852 144.041 28.294 145.401 28.294C146.761 28.294 147.883 27.852 148.767 26.968C149.673 26.0613 150.127 24.9053 150.127 23.5C150.127 22.0947 149.673 20.95 148.767 20.066C147.883 19.1593 146.761 18.706 145.401 18.706C144.041 18.706 142.919 19.1593 142.035 20.066C141.151 20.95 140.709 22.0947 140.709 23.5C140.709 24.9053 141.151 26.0613 142.035 26.968ZM167.194 19.216H163.352V26.288C163.352 26.8773 163.499 27.308 163.794 27.58C164.089 27.852 164.519 28.0107 165.086 28.056C165.653 28.0787 166.355 28.0673 167.194 28.022V32C164.179 32.34 162.049 32.0567 160.802 31.15C159.578 30.2433 158.966 28.6227 158.966 26.288V19.216H156.008V15H158.966V11.566L163.352 10.24V15H167.194V19.216ZM171.442 12.96C170.717 12.96 170.082 12.6993 169.538 12.178C169.017 11.634 168.756 10.9993 168.756 10.274C168.756 9.54867 169.017 8.914 169.538 8.37C170.082 7.826 170.717 7.554 171.442 7.554C172.19 7.554 172.825 7.826 173.346 8.37C173.89 8.914 174.162 9.54867 174.162 10.274C174.162 10.9993 173.89 11.634 173.346 12.178C172.825 12.6993 172.19 12.96 171.442 12.96ZM169.266 32V15H173.652V32H169.266ZM191.131 29.892C189.385 31.6147 187.255 32.476 184.739 32.476C182.223 32.476 180.092 31.6147 178.347 29.892C176.624 28.1467 175.763 26.016 175.763 23.5C175.763 20.984 176.624 18.8647 178.347 17.142C180.092 15.3967 182.223 14.524 184.739 14.524C187.255 14.524 189.385 15.3967 191.131 17.142C192.876 18.8647 193.749 20.984 193.749 23.5C193.749 26.016 192.876 28.1467 191.131 29.892ZM181.441 26.866C182.325 27.75 183.424 28.192 184.739 28.192C186.053 28.192 187.153 27.75 188.037 26.866C188.921 25.982 189.363 24.86 189.363 23.5C189.363 22.14 188.921 21.018 188.037 20.134C187.153 19.25 186.053 18.808 184.739 18.808C183.424 18.808 182.325 19.25 181.441 20.134C180.579 21.018 180.149 22.14 180.149 23.5C180.149 24.86 180.579 25.982 181.441 26.866ZM205.266 14.524C207.125 14.524 208.655 15.1473 209.856 16.394C211.08 17.6407 211.692 19.3633 211.692 21.562V32H207.306V22.106C207.306 20.9727 207 20.1113 206.388 19.522C205.776 18.91 204.96 18.604 203.94 18.604C202.807 18.604 201.9 18.9553 201.22 19.658C200.54 20.3607 200.2 21.4147 200.2 22.82V32H195.814V15H200.2V16.904C201.266 15.3173 202.954 14.524 205.266 14.524ZM245.391 8.2V32H240.733V16.564L234.035 27.614H233.491L226.793 16.598V32H222.101V8.2H226.929L233.763 19.454L240.563 8.2H245.391ZM261.522 15H265.908V32H261.522V29.994C260.207 31.6487 258.36 32.476 255.98 32.476C253.713 32.476 251.764 31.6147 250.132 29.892C248.523 28.1467 247.718 26.016 247.718 23.5C247.718 20.984 248.523 18.8647 250.132 17.142C251.764 15.3967 253.713 14.524 255.98 14.524C258.36 14.524 260.207 15.3513 261.522 17.006V15ZM253.43 26.968C254.314 27.852 255.436 28.294 256.796 28.294C258.156 28.294 259.278 27.852 260.162 26.968C261.069 26.0613 261.522 24.9053 261.522 23.5C261.522 22.0947 261.069 20.95 260.162 20.066C259.278 19.1593 258.156 18.706 256.796 18.706C255.436 18.706 254.314 19.1593 253.43 20.066C252.546 20.95 252.104 22.0947 252.104 23.5C252.104 24.9053 252.546 26.0613 253.43 26.968ZM278.317 14.524C280.176 14.524 281.706 15.1473 282.907 16.394C284.131 17.6407 284.743 19.3633 284.743 21.562V32H280.357V22.106C280.357 20.9727 280.051 20.1113 279.439 19.522C278.827 18.91 278.011 18.604 276.991 18.604C275.858 18.604 274.951 18.9553 274.271 19.658C273.591 20.3607 273.251 21.4147 273.251 22.82V32H268.865V15H273.251V16.904C274.316 15.3173 276.005 14.524 278.317 14.524ZM300.388 15H304.774V32H300.388V29.994C299.074 31.6487 297.226 32.476 294.846 32.476C292.58 32.476 290.63 31.6147 288.998 29.892C287.389 28.1467 286.584 26.016 286.584 23.5C286.584 20.984 287.389 18.8647 288.998 17.142C290.63 15.3967 292.58 14.524 294.846 14.524C297.226 14.524 299.074 15.3513 300.388 17.006V15ZM292.296 26.968C293.18 27.852 294.302 28.294 295.662 28.294C297.022 28.294 298.144 27.852 299.028 26.968C299.935 26.0613 300.388 24.9053 300.388 23.5C300.388 22.0947 299.935 20.95 299.028 20.066C298.144 19.1593 297.022 18.706 295.662 18.706C294.302 18.706 293.18 19.1593 292.296 20.066C291.412 20.95 290.97 22.0947 290.97 23.5C290.97 24.9053 291.412 26.0613 292.296 26.968ZM320.753 15H325.037V31.184C325.037 33.8133 324.165 35.8193 322.419 37.202C320.697 38.5847 318.611 39.276 316.163 39.276C314.327 39.276 312.707 38.9247 311.301 38.222C309.919 37.5193 308.853 36.488 308.105 35.128L311.845 32.986C312.707 34.5727 314.191 35.366 316.299 35.366C317.682 35.366 318.77 35.0033 319.563 34.278C320.357 33.5527 320.753 32.5213 320.753 31.184V29.348C319.461 31.0707 317.648 31.932 315.313 31.932C312.911 31.932 310.893 31.0933 309.261 29.416C307.652 27.716 306.847 25.6533 306.847 23.228C306.847 20.8253 307.663 18.774 309.295 17.074C310.927 15.374 312.933 14.524 315.313 14.524C317.648 14.524 319.461 15.3853 320.753 17.108V15ZM312.559 26.594C313.466 27.4553 314.611 27.886 315.993 27.886C317.376 27.886 318.509 27.4553 319.393 26.594C320.3 25.71 320.753 24.588 320.753 23.228C320.753 21.8907 320.3 20.7913 319.393 19.93C318.509 19.046 317.376 18.604 315.993 18.604C314.611 18.604 313.466 19.046 312.559 19.93C311.675 20.7913 311.233 21.8907 311.233 23.228C311.233 24.588 311.675 25.71 312.559 26.594ZM331.701 25.302C332.29 27.4327 333.888 28.498 336.495 28.498C338.172 28.498 339.441 27.9313 340.303 26.798L343.839 28.838C342.161 31.2633 339.691 32.476 336.427 32.476C333.616 32.476 331.361 31.626 329.661 29.926C327.961 28.226 327.111 26.084 327.111 23.5C327.111 20.9387 327.949 18.808 329.627 17.108C331.304 15.3853 333.457 14.524 336.087 14.524C338.58 14.524 340.631 15.3853 342.241 17.108C343.873 18.8307 344.689 20.9613 344.689 23.5C344.689 24.0667 344.632 24.6673 344.519 25.302H331.701ZM331.633 21.902H340.303C340.053 20.746 339.532 19.8847 338.739 19.318C337.968 18.7513 337.084 18.468 336.087 18.468C334.908 18.468 333.933 18.774 333.163 19.386C332.392 19.9753 331.882 20.814 331.633 21.902ZM351.116 17.924C351.524 16.836 352.193 16.02 353.122 15.476C354.074 14.932 355.128 14.66 356.284 14.66V19.556C354.947 19.3973 353.746 19.6693 352.68 20.372C351.638 21.0747 351.116 22.242 351.116 23.874V32H346.73V15H351.116V17.924Z" fill="white"/>
<path d="M17.7548 34.8L0 7.00073H17.7548V34.8Z" fill="#5E20E5"/>
<path fill-rule="evenodd" clip-rule="evenodd" d="M25.6927 7H19.2451V34.7801H25.6927C25.6927 34.7801 28.2373 34.7801 29.7296 34.7801C33.7474 34.7801 36.9999 31.3746 36.9999 27.1655C36.9999 23.9321 35.0675 21.1579 32.3508 20.0674C33.69 18.6898 34.5318 16.7575 34.5318 14.6338C34.5318 10.4629 31.3176 7.0574 27.3572 7.01913H27.2616L25.6927 7Z" fill="#1BFEC0"/>
</svg>
