<?xml version="1.0" standalone="no"?>
<!DOCTYPE svg PUBLIC "-//W3C//DTD SVG 20010904//EN"
 "http://www.w3.org/TR/2001/REC-SVG-20010904/DTD/svg10.dtd">
<svg version="1.0" xmlns="http://www.w3.org/2000/svg"
 width="4404.000000pt" height="4274.000000pt" viewBox="0 0 4404.000000 4274.000000"
 preserveAspectRatio="xMidYMid meet">
<metadata>
Created by potrace 1.15, written by Peter Selinger 2001-2017
</metadata>
<g transform="translate(0.000000,4274.000000) scale(0.100000,-0.100000)"
fill="#000000" stroke="none">
<path d="M5232 38787 c28 -45 63 -100 78 -122 96 -143 120 -181 120 -188 0 -5
29 -54 64 -110 95 -152 298 -530 331 -617 7 -19 40 -94 73 -166 69 -152 84
-195 145 -404 61 -209 70 -262 71 -420 1 -149 -8 -188 -65 -300 -70 -139 -271
-293 -605 -466 -84 -43 -150 -83 -148 -89 5 -12 -26 -33 -516 -366 -173 -118
-378 -267 -455 -331 -595 -493 -712 -588 -725 -586 -8 2 -31 31 -50 65 l-36
61 -88 -92 c-48 -50 -93 -100 -99 -111 -6 -11 -36 -49 -67 -85 -50 -58 -130
-167 -230 -315 -35 -51 -102 -172 -197 -353 -29 -56 -74 -155 -99 -220 -25
-64 -52 -131 -60 -147 -28 -60 -104 -307 -114 -372 -6 -36 -15 -74 -20 -83
-13 -24 -67 -288 -90 -439 -11 -68 -24 -192 -30 -275 -6 -83 -15 -196 -20
-251 -13 -127 -13 -241 0 -319 5 -33 19 -126 30 -206 11 -80 25 -163 31 -185
5 -22 19 -78 30 -125 10 -47 30 -121 43 -165 14 -44 32 -109 42 -145 10 -36
20 -69 24 -75 4 -5 15 -32 25 -60 10 -27 44 -109 76 -182 33 -72 59 -135 59
-140 0 -8 55 -107 162 -294 31 -54 80 -131 109 -173 30 -42 72 -102 94 -134
167 -243 597 -678 855 -867 38 -27 104 -76 147 -108 132 -98 319 -218 452
-289 40 -21 90 -49 110 -62 84 -53 475 -242 601 -290 52 -21 124 -50 160 -66
36 -16 94 -40 130 -53 36 -13 90 -34 120 -45 30 -12 109 -37 175 -57 66 -20
136 -43 155 -51 31 -13 190 -62 325 -100 28 -8 79 -19 115 -25 35 -5 69 -14
75 -18 5 -5 66 -22 134 -37 96 -22 125 -32 129 -46 5 -19 22 -23 37 -9 6 5 76
-5 170 -26 168 -36 208 -44 370 -69 55 -8 114 -19 130 -25 17 -5 118 -23 225
-40 107 -17 233 -37 280 -45 342 -55 1242 -140 1785 -168 171 -9 366 -20 435
-26 319 -25 934 -32 2030 -25 613 4 1146 8 1184 9 l68 1 19 -49 c11 -27 28
-68 39 -91 10 -23 29 -66 40 -96 12 -30 25 -58 30 -64 4 -5 18 -43 30 -83 13
-41 37 -97 55 -126 26 -43 285 -661 285 -680 0 -3 -4 -6 -9 -6 -4 0 -267 132
-583 294 l-576 295 -293 -49 c-162 -27 -427 -72 -589 -100 -162 -28 -466 -80
-675 -115 -817 -138 -809 -136 -1060 -219 -126 -42 -421 -140 -655 -217 l-425
-141 -470 31 c-258 18 -551 39 -650 47 -428 34 -588 45 -593 39 -4 -3 1 -18
10 -33 9 -15 43 -76 75 -137 33 -60 87 -155 120 -210 33 -55 74 -127 91 -160
16 -33 51 -95 76 -138 25 -43 46 -80 46 -82 0 -3 14 -24 30 -47 17 -22 30 -45
30 -51 0 -9 33 -70 142 -257 30 -52 58 -103 61 -114 4 -10 33 -61 65 -115 84
-138 114 -190 138 -241 12 -25 38 -72 58 -105 l36 -60 133 -51 c151 -59 260
-104 332 -138 28 -13 68 -29 90 -36 39 -12 302 -121 401 -165 28 -13 66 -28
85 -33 19 -6 84 -31 144 -57 179 -76 326 -135 337 -135 6 0 38 -13 73 -30 98
-47 202 -89 450 -186 33 -12 75 -30 93 -39 49 -25 98 -28 187 -10 123 25 274
49 575 94 151 23 295 46 320 52 70 17 539 95 765 127 223 32 645 106 651 115
0 1 24 45 53 97 29 52 70 124 92 160 22 36 55 94 73 130 17 36 39 76 47 90 47
74 160 270 165 286 4 11 33 62 64 114 31 52 76 131 100 175 24 44 71 118 105
165 35 47 80 112 101 145 30 47 116 169 128 182 1 2 2 -20 2 -47 -1 -28 -5
-50 -10 -50 -4 0 -6 -9 -3 -20 3 -11 1 -20 -3 -20 -10 0 -17 -19 -25 -70 -3
-19 -10 -39 -14 -45 -15 -17 -42 -156 -36 -179 5 -17 4 -18 -5 -6 -9 12 -11 9
-8 -17 3 -19 0 -30 -5 -26 -6 4 -8 -6 -4 -26 4 -20 3 -30 -3 -26 -6 4 -10 -9
-9 -32 1 -21 3 -30 6 -20 4 15 39 0 240 -103 129 -67 236 -120 238 -118 3 2
-56 241 -129 531 -110 435 -130 527 -117 527 24 0 480 -37 666 -54 88 -8 291
-25 450 -37 l290 -21 295 -201 c658 -447 925 -632 932 -642 4 -5 7 -32 7 -60
-2 -46 -2 -47 -8 -15 -6 34 -11 27 -110 -165 -57 -110 -153 -294 -213 -408
-61 -114 -108 -210 -106 -212 2 -3 35 -18 74 -34 38 -16 140 -58 227 -95 87
-36 162 -66 167 -66 6 0 10 -7 10 -15 0 -19 -189 -295 -201 -295 -5 0 -97 59
-204 130 -107 72 -197 130 -200 130 -3 0 -56 -25 -118 -55 -199 -96 -407 -134
-582 -106 -97 16 -253 69 -347 117 -199 103 -342 345 -324 549 10 122 75 303
141 398 25 36 19 45 -32 42 -27 -1 -95 2 -153 7 -204 16 -355 30 -377 35 l-21
5 18 -84 c65 -290 79 -363 84 -468 4 -63 14 -209 22 -323 8 -115 14 -213 12
-219 -2 -6 -71 72 -153 173 -144 178 -162 199 -177 199 -3 0 -8 -352 -11 -782
-2 -533 -7 -802 -15 -843 -7 -33 -28 -283 -47 -555 -52 -736 -75 -1036 -86
-1125 -5 -44 -22 -224 -38 -400 -16 -176 -34 -354 -40 -395 -10 -63 -41 -403
-67 -728 -7 -81 -9 -87 -100 -255 -51 -95 -94 -179 -94 -187 0 -9 -5 -21 -11
-27 -15 -15 -179 -323 -179 -337 0 -6 -11 -28 -25 -48 -14 -21 -68 -122 -121
-225 -53 -103 -100 -193 -104 -198 -5 -6 -49 -89 -98 -185 -49 -96 -119 -230
-155 -297 -37 -68 -67 -128 -67 -134 0 -6 -17 -38 -37 -72 -20 -34 -73 -134
-118 -222 -45 -88 -100 -194 -122 -235 -35 -66 -44 -99 -78 -275 -36 -194 -46
-242 -121 -580 -19 -88 -64 -303 -99 -477 -35 -175 -66 -321 -69 -326 -2 -4
-21 -86 -42 -182 -20 -96 -45 -215 -56 -265 -10 -49 -23 -115 -28 -145 -4 -30
-24 -127 -43 -215 -20 -88 -49 -225 -66 -305 -18 -80 -40 -181 -51 -225 -10
-44 -24 -116 -30 -160 -6 -44 -15 -98 -21 -120 -6 -22 -28 -119 -50 -215 -21
-96 -45 -204 -53 -240 -9 -36 -15 -74 -15 -85 -1 -13 34 -51 92 -104 97 -89
264 -243 408 -376 47 -44 130 -121 185 -171 54 -50 122 -112 149 -137 28 -26
81 -75 119 -109 37 -35 103 -96 145 -136 42 -41 96 -86 121 -100 25 -14 68
-42 95 -62 28 -20 115 -78 195 -129 80 -51 177 -115 215 -142 39 -27 79 -52
90 -55 11 -4 34 -18 51 -33 17 -14 78 -55 134 -91 57 -36 149 -96 204 -133 56
-38 121 -81 145 -95 24 -15 100 -65 170 -111 69 -46 159 -103 198 -128 40 -24
108 -69 150 -100 43 -30 92 -62 108 -70 17 -7 59 -34 95 -59 36 -25 126 -76
200 -114 235 -118 541 -274 672 -343 71 -37 132 -67 136 -67 5 0 88 -43 185
-95 98 -52 183 -95 190 -95 7 0 34 -14 60 -30 26 -17 62 -36 80 -44 18 -8 47
-27 66 -42 19 -16 91 -76 159 -134 69 -58 150 -125 181 -149 31 -25 61 -50 67
-55 29 -28 126 -110 186 -158 114 -90 186 -151 256 -213 37 -34 93 -81 125
-105 32 -24 73 -57 90 -74 47 -45 223 -187 268 -216 123 -79 157 -100 184
-112 17 -7 66 -35 110 -63 94 -60 184 -114 240 -144 22 -12 69 -40 105 -62 89
-57 157 -97 207 -125 46 -24 104 -59 186 -113 29 -18 79 -47 112 -64 33 -16
85 -47 115 -67 62 -42 77 -51 240 -145 259 -150 261 -151 323 -268 21 -38 46
-81 58 -95 21 -27 49 -73 135 -217 26 -44 76 -124 111 -178 35 -54 67 -106 70
-115 4 -9 20 -38 37 -64 84 -126 152 -235 162 -258 6 -14 49 -83 96 -155 47
-71 99 -155 116 -186 31 -56 110 -180 121 -189 4 -3 15 -23 26 -45 21 -42 157
-261 175 -283 6 -6 22 -33 36 -60 14 -26 43 -74 64 -107 22 -33 51 -79 65
-102 l26 -41 -26 -26 c-30 -30 -34 -93 -9 -131 25 -38 82 -51 126 -31 55 26
77 104 43 153 -15 21 11 65 605 1025 l621 1003 54 1 c75 2 100 10 140 46 57
49 71 89 66 185 -1 41 -60 109 -116 134 -92 42 -196 3 -246 -92 l-14 -25 -355
83 c-195 46 -447 105 -559 131 l-203 48 -14 39 c-7 21 -10 44 -6 50 4 7 189
256 412 554 223 299 592 793 821 1100 l415 557 45 0 c24 1 52 3 62 5 14 3 177
-179 667 -741 617 -710 647 -746 634 -767 -8 -12 -14 -42 -14 -67 0 -36 5 -48
26 -65 32 -25 99 -28 131 -6 29 21 47 78 35 113 -9 26 4 38 596 532 565 471
607 504 639 501 44 -3 79 20 88 58 6 28 47 50 656 360 l649 330 36 -24 c20
-14 47 -25 60 -25 13 0 24 -4 24 -8 0 -5 38 -413 85 -907 47 -494 84 -899 83
-900 -2 -1 -17 -7 -35 -14 -40 -16 -66 -54 -73 -108 -5 -40 -36 -71 -952 -947
l-948 -906 -60 0 c-33 0 -75 -6 -93 -14 -110 -46 -150 -191 -80 -289 38 -54
94 -82 163 -81 63 1 107 20 144 64 l26 32 1598 -786 1597 -786 -3 -48 c-5 -75
46 -136 118 -142 59 -5 82 1 117 33 31 29 37 41 41 90 5 67 -19 116 -72 141
-61 29 -112 20 -166 -29 l-25 -22 -1597 785 -1596 786 5 51 c7 68 -10 119 -57
164 l-38 36 936 895 c514 492 938 896 942 898 3 1 12 -9 20 -23 7 -13 33 -34
57 -46 58 -28 115 -19 159 25 80 80 38 221 -71 242 -21 4 -35 12 -35 21 0 21
-159 1710 -165 1753 -4 32 -1 37 32 55 56 31 78 67 78 129 l0 53 870 569 c478
313 874 567 880 565 5 -2 26 -4 45 -3 41 0 70 30 70 72 0 25 71 94 519 507
l519 479 59 -4 c40 -3 69 1 89 10 l29 15 1841 -1756 c1714 -1635 1840 -1757
1827 -1776 -7 -11 -13 -43 -13 -72 0 -44 5 -58 31 -88 17 -19 45 -39 63 -43
l31 -8 0 -82 c0 -45 -2 -410 -3 -812 l-2 -730 -47 -11 c-77 -20 -143 -106
-143 -185 0 -69 56 -155 117 -180 71 -30 178 -9 225 43 47 51 62 156 32 219
-22 46 -75 91 -124 104 l-40 11 1 447 c1 246 5 611 8 811 l6 365 29 7 c37 10
66 36 83 77 12 30 17 32 46 27 18 -3 347 -39 732 -80 385 -42 710 -78 721 -80
16 -4 24 -15 29 -42 15 -83 109 -131 193 -98 77 31 109 133 65 208 -25 42 -96
72 -149 63 -41 -8 -104 -63 -104 -90 0 -10 -9 -16 -24 -16 -13 0 -351 36 -751
80 -400 44 -732 80 -736 80 -5 0 -9 9 -9 20 0 30 -26 75 -56 99 -39 31 -87 36
-140 16 l-46 -17 -72 69 c-39 39 -854 816 -1811 1728 -957 912 -1753 1670
-1768 1684 -27 26 -27 28 -12 57 20 39 19 82 -3 126 l-19 36 640 722 c503 568
642 720 655 714 10 -4 40 -9 67 -12 40 -3 57 1 85 21 l36 24 446 -301 445
-301 -5 -56 c-8 -97 46 -159 138 -159 71 0 140 56 140 114 0 11 18 16 73 20
39 3 790 28 1667 56 877 27 1650 53 1717 56 l122 6 7 -37 c4 -22 20 -50 39
-70 102 -101 267 -8 239 134 -8 36 -65 101 -91 101 -13 0 -15 12 -9 93 3 50 9
183 12 295 l7 202 29 0 c77 0 138 63 138 141 0 108 -113 174 -211 124 -89 -47
-91 -207 -3 -247 l26 -12 -6 -131 c-3 -71 -9 -203 -12 -292 l-6 -162 -40 -6
c-45 -8 -108 -64 -108 -95 0 -17 -7 -20 -42 -20 -24 0 -797 -25 -1718 -55
-921 -30 -1709 -55 -1750 -55 l-75 0 -17 40 c-32 77 -136 105 -208 56 l-35
-23 -446 301 -446 301 5 56 c8 97 -46 159 -138 159 -109 0 -175 -112 -125
-211 15 -28 15 -31 -7 -57 -13 -15 -299 -339 -637 -720 -529 -597 -617 -693
-635 -687 -49 16 -75 16 -110 1 l-38 -16 33 -42 c18 -24 39 -48 46 -55 8 -6
10 -14 5 -17 -5 -3 -29 19 -53 50 l-43 56 -18 -24 c-9 -13 -18 -26 -18 -30 0
-5 -6 -8 -13 -8 -13 0 -2900 1054 -2918 1066 -5 3 -9 23 -9 44 0 46 -44 104
-86 114 -18 5 -24 12 -20 24 2 9 7 42 10 72 7 59 138 1151 211 1753 25 202 45
372 45 377 0 6 14 10 30 10 32 0 100 24 100 35 0 4 -25 38 -55 77 -31 39 -53
73 -50 76 3 3 6 3 8 1 54 -74 112 -139 121 -136 19 6 56 80 56 114 l0 32 -97
3 c-63 2 -102 -1 -108 -8 -5 -6 -38 -28 -72 -48 -35 -21 -65 -41 -68 -46 -9
-15 44 -67 85 -84 22 -9 40 -18 40 -21 0 -12 -260 -2164 -265 -2193 -5 -26
-11 -32 -31 -32 -61 0 -110 -49 -122 -123 l-7 -41 -330 -108 c-182 -59 -362
-117 -402 -129 l-72 -22 -29 31 c-16 17 -41 34 -55 37 -25 7 -89 3 -113 -6 -6
-2 -217 258 -468 578 l-457 583 16 29 c19 37 20 111 2 135 -13 18 -15 17 -53
-6 -72 -45 -68 -44 -61 -7 3 19 9 45 13 58 7 23 6 24 -37 19 l-45 -5 -211 309
-211 309 22 39 c20 38 21 41 4 86 -13 37 -14 51 -5 64 38 52 1228 1530 1236
1535 6 3 19 0 30 -7 11 -7 22 -10 24 -8 2 3 16 39 31 81 43 122 40 120 124 63
39 -27 71 -53 72 -57 0 -5 -28 11 -62 35 -35 24 -68 47 -74 51 -7 4 -22 -24
-43 -81 -17 -48 -31 -91 -31 -95 0 -12 89 -8 123 7 18 7 43 25 56 40 14 14 28
26 33 26 7 0 631 -430 1251 -863 16 -10 30 -17 32 -15 2 2 -283 204 -635 448
l-638 445 5 70 c4 54 2 79 -11 102 l-16 32 58 45 c31 24 225 173 431 330 l374
285 29 -24 c28 -24 53 -30 108 -25 62 4 112 69 108 140 l-2 44 489 180 c460
169 490 178 499 160 16 -28 92 -104 104 -104 6 0 25 43 42 95 23 69 36 95 48
95 20 0 98 -141 95 -168 -4 -23 1092 -2116 1110 -2120 17 -4 48 -66 53 -107
l4 -30 -953 0 -952 1 886 -3 885 -3 18 -41 c22 -49 67 -79 119 -79 20 0 37 -5
37 -10 0 -18 93 65 102 90 4 12 93 -2 544 -89 296 -57 545 -106 552 -109 7 -2
16 -18 19 -34 8 -41 52 -84 101 -99 95 -28 192 58 177 156 -22 142 -217 170
-271 38 -8 -18 -18 -33 -23 -33 -13 0 -1051 200 -1073 206 -10 3 -18 15 -18
27 0 12 -9 40 -21 61 l-20 39 23 32 c13 18 563 737 1222 1598 1033 1348 1202
1565 1217 1556 30 -16 102 -10 136 11 59 36 82 125 48 191 -48 92 -202 92
-250 0 -21 -42 -19 -109 5 -148 l20 -33 -1222 -1595 c-1166 -1522 -1224 -1596
-1248 -1588 -14 4 -44 7 -67 6 -40 -2 -48 4 -44 30 0 4 -4 7 -11 7 -6 0 -8 3
-5 6 4 4 -5 20 -19 37 -14 16 -28 43 -31 58 -3 16 -9 29 -13 29 -8 0 -23 38
-21 53 1 4 -4 7 -11 7 -6 0 -9 3 -5 6 3 3 -3 16 -14 27 -11 12 -17 27 -14 35
2 7 1 11 -3 8 -9 -5 -69 112 -64 126 1 4 -2 8 -7 8 -5 0 -13 9 -16 21 -4 12
-18 37 -31 56 -13 20 -21 39 -18 44 3 5 0 9 -7 9 -7 0 -10 3 -6 6 3 4 0 13 -8
21 -8 8 -15 23 -15 34 0 10 -4 19 -9 19 -10 0 -27 39 -23 53 1 4 -2 7 -7 7 -5
0 -25 31 -45 70 -21 38 -34 70 -30 70 4 0 0 8 -8 18 -25 27 -58 99 -50 107 4
5 2 5 -4 2 -6 -3 -29 32 -55 86 -24 51 -47 94 -50 97 -10 8 -39 68 -39 80 0 7
-9 25 -21 41 -11 16 -22 38 -24 49 -2 11 -11 28 -21 37 -9 9 -48 82 -87 162
-39 80 -74 148 -77 151 -13 9 -51 90 -43 90 5 0 3 4 -3 8 -13 8 -79 122 -71
122 3 0 -10 26 -29 57 -19 31 -40 72 -46 90 -7 18 -15 33 -19 33 -20 0 -17 35
6 61 51 61 56 165 12 231 -26 38 -81 77 -119 85 -21 4 -29 12 -33 37 -6 38
-22 218 -35 386 -5 69 -12 145 -15 170 -2 25 -7 68 -10 95 -3 28 -8 66 -10 85
-2 19 -7 70 -10 112 -7 96 -13 163 -20 208 -2 19 -7 71 -10 115 -3 44 -8 98
-10 120 -19 174 -18 193 2 199 33 11 64 52 70 93 7 57 -18 100 -71 123 l-43
18 -7 119 c-4 65 -9 134 -11 153 -2 19 -7 67 -9 105 -3 39 -12 156 -21 260 -8
105 -17 233 -21 285 -3 52 -8 115 -10 140 -2 25 -6 86 -8 135 -6 98 -15 198
-23 230 -9 39 -23 1581 -15 1590 4 4 7 10 8 13 3 22 18 69 27 80 5 6 6 12 1
12 -4 0 -3 5 3 11 6 6 9 18 6 25 -3 8 0 14 7 14 6 0 9 4 5 9 -3 5 8 46 24 90
16 45 28 81 26 81 -2 0 9 38 26 85 16 47 29 92 29 100 0 8 5 15 11 15 5 0 8 4
5 9 -5 7 19 93 41 151 4 8 7 18 8 23 2 4 4 10 5 15 1 4 2 10 1 15 0 4 4 7 10
7 6 0 9 6 7 13 -3 6 2 35 12 62 14 41 21 51 43 53 31 4 67 45 67 77 0 30 -35
73 -62 77 -20 3 -28 26 -80 233 -31 127 -56 238 -54 248 2 9 1 17 -3 17 -8 0
-41 98 -41 121 0 8 32 -40 71 -106 102 -172 152 -265 143 -265 -4 0 2 -10 13
-22 11 -13 125 -203 253 -423 128 -220 247 -422 264 -449 17 -27 30 -53 28
-58 -1 -4 3 -8 9 -8 5 0 8 -4 5 -9 -3 -5 1 -12 10 -15 8 -3 12 -10 9 -16 -3
-5 -2 -10 3 -10 4 0 18 -18 31 -40 12 -22 19 -40 16 -40 -4 0 1 -7 10 -16 30
-30 47 -63 39 -75 -4 -8 -3 -9 4 -5 7 4 17 -3 24 -18 6 -14 15 -26 20 -26 5 0
7 3 5 8 -38 66 -677 1158 -791 1352 -86 146 -163 266 -172 268 -8 2 -12 8 -8
13 3 5 10 7 15 4 5 -4 14 4 20 17 14 32 -3 75 -36 90 -26 12 -28 23 -17 94 l7
42 305 -122 305 -122 1 -47 c2 -58 25 -94 72 -114 29 -12 44 -13 71 -4 27 8
38 8 47 -2 6 -6 114 -165 240 -352 125 -187 273 -406 327 -486 99 -146 99
-146 82 -172 -12 -19 -15 -35 -10 -58 7 -31 1 -38 -180 -219 l-188 -188 -40 6
c-43 5 -43 6 -22 -53 4 -12 0 -9 -11 8 -21 30 -39 35 -48 11 -12 -32 -5 -66
19 -89 28 -29 70 -32 104 -9 21 15 23 23 18 67 l-4 51 180 187 180 188 47 -6
c42 -5 49 -3 67 21 12 14 26 26 31 26 6 0 249 -56 539 -126 290 -69 558 -132
595 -140 58 -14 68 -20 77 -44 12 -35 45 -54 81 -47 24 5 49 -16 263 -230 222
-223 235 -238 221 -257 -36 -52 -2 -116 61 -116 46 0 75 29 75 74 0 44 -40 79
-85 74 -28 -3 -49 16 -264 234 -206 210 -231 239 -222 257 6 11 11 30 11 43 0
20 78 68 576 356 l575 333 19 -24 c26 -33 72 -51 114 -43 32 6 59 27 89 69 11
16 54 4 620 -172 334 -103 610 -191 614 -194 3 -3 8 -21 12 -39 8 -39 46 -64
83 -55 27 7 53 28 60 47 2 6 299 -22 785 -73 l782 -82 23 -35 c19 -28 31 -36
62 -38 20 -2 43 1 50 7 9 7 292 -192 1046 -736 569 -410 1043 -751 1052 -757
15 -11 16 -18 7 -51 -15 -53 2 -105 46 -144 30 -26 44 -31 86 -31 65 0 104 23
130 78 63 129 -85 259 -202 179 l-34 -23 -1050 757 c-1013 730 -1050 757
-1047 786 8 74 -89 114 -141 57 l-24 -26 -779 82 c-735 77 -793 85 -794 112 0
18 -35 38 -67 38 -35 0 -35 0 -19 -25 22 -33 20 -42 -4 -20 -11 10 -20 25 -20
33 0 15 -221 325 -227 318 -3 -2 46 -72 106 -155 61 -83 111 -155 111 -160 0
-38 -31 -30 -638 159 -336 104 -614 190 -617 190 -3 0 -5 7 -5 17 0 15 23 16
272 10 149 -4 356 -7 460 -7 l188 0 10 -24 c10 -27 38 -46 69 -46 28 0 34 16
16 43 -14 22 -14 26 7 52 21 27 21 28 3 41 -10 8 -24 14 -31 14 -13 0 -10 -9
-208 555 l-144 410 23 20 c30 27 45 57 45 93 l0 29 103 7 c218 14 1345 96
1407 101 l65 6 -400 -403 c-220 -222 -499 -504 -620 -628 -121 -124 57 51 395
388 339 337 620 609 625 605 4 -4 5 -2 1 5 -13 22 5 13 26 -13 40 -51 138 -16
138 50 0 30 -49 85 -75 85 -29 0 -75 -30 -81 -54 -7 -29 71 -21 -853 -87 -609
-44 -736 -50 -739 -39 -9 25 -54 60 -88 66 -24 4 -45 0 -71 -13 -50 -26 -51
-40 -4 -54 22 -7 38 -16 35 -20 -5 -9 -63 8 -84 26 -15 12 -1140 386 -1157
384 -4 0 253 -88 572 -194 498 -167 580 -197 577 -212 -2 -10 -7 -21 -10 -24
-4 -3 -210 -43 -458 -89 l-451 -83 -29 22 c-30 23 -65 22 -94 -4 -13 -11 -59
3 -300 89 l-285 103 -6 34 c-4 19 -9 41 -13 50 -6 13 35 47 178 153 l185 136
30 -18 c28 -15 33 -16 58 -2 38 21 39 37 4 45 -39 8 -49 43 -28 93 9 20 26 87
37 147 28 143 28 145 50 145 30 0 73 58 65 89 -15 64 -99 82 -138 29 -17 -23
-18 -31 -8 -60 6 -18 20 -40 31 -48 18 -15 18 -18 -10 -155 -17 -86 -33 -141
-41 -144 -8 -2 -26 -16 -41 -31 l-27 -27 -1102 188 c-606 104 -1102 190 -1103
191 -13 33 -41 57 -84 74 -1 1 -8 61 -15 134 l-13 132 22 8 c28 11 54 48 54
76 0 66 -91 93 -136 40 -13 -15 -24 -35 -24 -45 0 -15 -72 -46 -362 -159 -335
-130 -363 -139 -384 -125 l-22 14 25 62 c14 34 29 64 34 65 5 2 7 8 3 13 -3 5
0 9 6 9 6 0 9 4 6 8 -7 12 59 174 68 165 4 -4 4 1 0 11 -6 15 -4 17 6 11 9 -5
11 -4 6 4 -10 16 12 41 34 41 10 0 32 14 49 31 25 24 31 39 31 72 0 23 -7 54
-15 70 -13 26 -13 28 18 40 18 8 236 94 485 192 248 98 450 180 448 183 -7 7
-964 -375 -981 -391 -28 -28 -74 -31 -107 -7 -35 26 -51 22 -69 -19 -17 -38
98 -37 -944 -6 -456 14 -864 25 -906 25 l-76 0 -17 45 c-11 27 -35 60 -60 82
l-42 37 59 141 59 142 41 9 c33 7 45 16 57 41 11 24 22 33 40 33 14 0 268 16
565 35 297 19 549 35 560 35 12 0 159 -116 355 -281 184 -154 339 -283 344
-286 40 -25 -50 54 -337 295 -303 254 -356 303 -581 540 l-247 261 17 26 c9
14 22 24 28 22 6 -2 514 -161 1129 -353 l1117 -349 0 -32 c0 -38 -3 -37 43
-18 65 27 81 21 101 -35 10 -27 22 -50 26 -50 15 0 60 61 60 81 0 19 15 19
659 19 l659 0 -39 -147 c-22 -82 -47 -179 -57 -218 l-18 -69 -38 -3 c-49 -3
-84 -26 -101 -67 l-14 -33 -228 -7 c-125 -3 -340 -7 -476 -8 l-248 -3 -23 57
c-13 32 -21 60 -18 63 3 3 -23 77 -58 165 -35 88 -65 158 -68 155 -2 -2 24
-75 58 -161 l63 -157 -25 -21 c-30 -25 -43 -49 -52 -97 -13 -71 66 -138 144
-122 41 8 90 55 90 85 l0 25 413 7 c226 4 443 11 481 14 66 7 70 8 78 37 5 17
15 44 23 60 8 17 39 122 69 235 l53 205 644 5 644 5 -642 3 -641 2 29 113 c16
61 32 119 34 128 4 12 17 14 63 11 91 -7 159 37 192 123 8 20 15 25 28 20 128
-51 929 -344 934 -343 11 4 -923 351 -947 353 -34 1 -155 46 -155 57 0 6 -9 0
-21 -13 l-20 -24 6 23 c4 13 2 22 -4 22 -6 0 -11 4 -11 9 0 4 12 6 26 3 20 -4
35 4 70 39 24 24 44 47 44 51 0 4 -18 17 -40 28 -55 28 -134 27 -184 -4 l-39
-23 57 -39 c30 -21 56 -43 56 -47 0 -10 -12 -4 -73 41 -46 33 -49 34 -62 16
-22 -31 -38 -99 -30 -135 7 -35 44 -109 54 -109 3 -1 16 -9 28 -19 l22 -18
-30 -114 c-16 -63 -32 -122 -35 -131 -5 -17 -45 -18 -663 -18 l-657 0 -13 36
c-14 40 -62 74 -103 74 -16 0 -28 1 -28 3 0 1 -96 366 -214 811 l-213 809 51
26 c27 14 51 31 53 36 1 6 -31 33 -71 60 -41 28 -76 57 -79 66 -3 11 20 28 79
60 46 24 84 49 84 55 0 29 -84 74 -138 74 l-39 0 -7 148 c-12 260 -35 715 -41
799 -6 76 -5 82 15 88 35 11 78 54 85 85 4 17 8 30 9 30 11 0 1547 -368 1550
-371 2 -2 6 -22 7 -43 l4 -39 -713 -387 c-393 -213 -717 -391 -720 -397 -4 -6
-42 -30 -85 -53 -42 -23 -77 -45 -77 -48 0 -4 27 -24 60 -45 33 -22 74 -54 92
-72 36 -35 1767 -1239 1773 -1233 2 2 -388 276 -867 608 -479 333 -877 610
-886 616 -13 10 -13 16 3 57 17 44 17 58 3 152 -3 21 -30 6 957 540 253 137
464 255 468 262 4 7 27 23 50 35 l42 21 -45 12 c-25 6 -54 17 -65 23 -28 16
-1499 363 -1560 368 -27 2 -63 8 -80 12 -27 8 -30 13 -29 47 1 21 8 43 16 49
14 11 174 454 166 461 -2 3 -40 -97 -83 -221 -44 -124 -81 -227 -84 -228 -4
-2 -20 -7 -37 -10 l-32 -7 -225 312 -224 312 23 35 c13 19 24 38 24 41 0 4 62
-3 138 -16 75 -13 195 -32 267 -43 71 -12 133 -26 137 -33 4 -7 8 -24 8 -39 0
-31 44 -88 69 -88 11 0 22 17 34 51 10 28 21 48 24 45 3 -2 -2 -26 -11 -52
-20 -58 -20 -54 4 -54 38 0 80 30 101 72 18 35 20 47 10 78 -14 47 -49 79 -94
87 -50 8 -85 -3 -115 -37 l-27 -29 -263 43 c-144 24 -266 46 -270 50 -3 4 -11
21 -17 38 -15 47 -57 73 -117 73 -44 0 -53 -4 -84 -37 l-34 -38 -262 43 -262
42 -7 29 c-4 15 -15 37 -25 47 -16 18 -15 22 22 82 22 35 255 415 518 843
l480 779 59 0 c54 0 61 3 88 33 59 66 28 178 -57 201 -47 13 -97 -3 -128 -40
-34 -40 -36 -113 -5 -153 l21 -27 -38 -63 c-22 -35 -255 -414 -518 -842 l-480
-779 -53 3 c-49 4 -56 1 -88 -31 -19 -19 -35 -42 -35 -51 0 -9 -6 -16 -12 -16
-9 0 -9 -3 -2 -8 5 -4 17 -25 25 -46 17 -47 55 -77 100 -79 37 -2 37 -4 25 73
-5 34 -4 41 4 28 6 -10 13 -45 15 -77 2 -33 24 -165 50 -293 48 -241 53 -264
59 -257 3 2 -20 121 -49 263 l-53 259 31 31 c18 17 37 39 42 49 10 18 22 16
263 -22 139 -23 258 -41 263 -41 5 0 9 -7 9 -15 0 -8 7 -32 16 -54 20 -51 65
-76 125 -69 l44 5 223 -311 223 -310 -25 -25 -25 -25 -458 68 c-252 37 -468
70 -479 73 -14 3 -27 19 -37 43 -9 24 -28 47 -49 60 -48 29 -59 26 -51 -12 4
-18 7 -44 8 -58 0 -27 1 -27 -87 -15 -46 7 -48 6 -48 -17 0 -58 76 -124 133
-116 21 3 26 -15 120 -486 l99 -488 -22 -15 c-21 -15 -21 -15 15 -54 19 -21
35 -42 35 -47 0 -4 -10 -26 -22 -50 -20 -37 -21 -44 -8 -52 37 -24 99 -7 135
36 l21 24 353 -118 354 -118 2 -50 c3 -98 82 -184 168 -184 35 0 37 -2 51 -52
34 -119 416 -1581 414 -1582 -2 -1 -18 -11 -36 -24 l-33 -23 -952 525 -952
525 0 45 c0 31 -8 55 -24 76 -12 17 -20 37 -18 44 3 7 103 186 222 397 276
489 280 496 267 484 -18 -16 -502 -877 -502 -892 0 -21 -43 -93 -56 -93 -12 0
-36 75 -39 119 -2 36 -655 2202 -670 2221 -16 21 -35 89 -29 105 3 7 1 16 -5
20 -14 8 -14 35 -1 35 6 0 10 -6 10 -14 0 -13 41 -26 86 -26 25 0 25 9 1 58
-11 23 -54 52 -77 52 -5 0 -10 -11 -10 -25 0 -14 -4 -25 -10 -25 -5 0 -10 12
-10 26 0 22 -4 26 -24 22 -20 -4 -112 66 -533 408 -279 228 -509 418 -511 424
-3 7 155 10 472 10 l476 0 20 -40 c18 -36 62 -70 90 -70 5 0 10 22 10 51 0 31
4 48 10 44 6 -3 10 -26 10 -51 0 -53 13 -56 62 -17 45 38 48 42 48 86 0 100
-103 158 -189 106 -18 -11 -38 -33 -44 -49 l-11 -30 -506 -2 -505 -3 -2 -55
c-2 -30 -34 -389 -73 -799 -38 -410 -70 -756 -70 -770 0 -13 -2 -22 -5 -19 -6
5 -65 1275 -65 1390 0 66 0 66 30 73 65 14 107 107 77 171 -35 72 -145 86
-199 25 -37 -42 -39 -106 -4 -148 l24 -28 -199 -332 -200 -332 -63 6 c-54 5
-72 2 -111 -17 -94 -46 -130 -159 -81 -254 l25 -50 -74 -90 c-482 -591 -1245
-1500 -1256 -1497 -8 2 -35 6 -62 9 -38 4 -48 9 -52 26 -8 34 -335 2304 -335
2324 0 10 12 22 29 29 37 14 62 52 68 106 4 36 1 48 -22 75 -66 78 -194 49
-214 -49 l-7 -33 -809 -243 c-446 -133 -817 -242 -826 -243 -9 0 -22 7 -29 15
-19 23 -75 35 -114 24 -19 -5 -46 -23 -60 -40 -14 -17 -30 -27 -36 -24 -5 3
-10 1 -10 -4 0 -6 5 -11 10 -11 6 0 10 -16 10 -35 0 -49 17 -79 59 -106 l38
-24 -1 -587 c-1 -465 2 -588 11 -588 10 0 13 123 13 589 l0 589 32 11 c17 6
39 17 47 25 14 12 138 -100 1027 -930 l1011 -944 -24 -47 c-19 -37 -24 -60
-21 -101 l3 -53 -440 -258 c-242 -142 -459 -269 -482 -282 -43 -24 -62 -50
-20 -28 12 7 225 132 472 277 248 146 457 267 465 269 20 5 83 -73 77 -95 -3
-9 -251 -593 -552 -1297 -619 -1449 -567 -1325 -556 -1325 4 0 35 64 68 143
134 318 1055 2482 1058 2485 2 2 22 -2 45 -8 63 -17 132 2 180 50 l37 37 539
-343 c407 -260 538 -348 536 -361 -1 -10 -5 -32 -8 -50 -5 -23 0 -42 15 -68
12 -20 18 -42 14 -48 -6 -10 -462 -511 -1772 -1947 -423 -464 -424 -465 -469
-471 -31 -4 -50 -12 -60 -27 -11 -16 -24 -22 -53 -22 -22 0 -39 -4 -39 -10 0
-5 17 -10 38 -10 33 0 39 -4 49 -31 7 -17 21 -33 32 -36 16 -4 21 -16 25 -57
6 -50 192 -3198 203 -3431 l6 -121 -28 -12 c-15 -7 -31 -9 -35 -5 -215 250
-240 282 -239 310 3 41 -8 68 -35 83 -19 9 -26 24 -30 59 -13 94 -316 2994
-316 3017 0 14 8 25 21 29 51 16 119 99 119 145 0 20 -2 20 -520 20 -286 0
-520 -4 -520 -8 0 -12 44 -52 58 -52 9 0 12 -183 12 -769 l0 -768 -32 -7
c-104 -21 -172 -131 -146 -235 16 -62 81 -126 139 -138 l44 -9 3 -887 c2 -871
2 -887 -17 -887 -25 0 -61 -46 -61 -77 0 -27 41 -73 65 -73 10 0 15 10 16 33
l2 32 4 -30 c3 -16 8 -32 12 -35 8 -5 394 -1211 389 -1214 -90 -54 -128 -107
-128 -179 0 -73 50 -152 111 -177 16 -7 29 -18 29 -25 0 -12 -397 -2913 -402
-2938 -2 -7 -5 1012 -8 2263 l-5 2275 -3 -2285 -2 -2286 -35 -16 -35 -15 -177
161 c-440 399 -638 576 -645 576 -4 0 -8 -153 -8 -340 l0 -340 -27 6 c-16 3
-46 11 -68 16 -22 6 -103 23 -180 39 -77 15 -228 46 -335 68 -107 22 -206 40
-218 41 -13 0 -106 -36 -205 -81 -174 -77 -189 -86 -332 -199 -82 -65 -151
-117 -153 -115 -7 7 609 1225 620 1225 6 0 206 -66 445 -146 239 -81 436 -144
438 -142 5 5 -44 351 -99 703 -19 121 -56 360 -81 530 -26 171 -64 425 -86
565 -22 140 -66 433 -99 650 -32 217 -77 514 -100 660 -96 620 -110 716 -110
739 0 13 -3 21 -7 17 -4 -4 -13 -71 -20 -149 -18 -207 -60 -706 -88 -1057 -14
-168 -34 -399 -45 -515 -11 -115 -33 -379 -50 -585 -17 -206 -39 -463 -50
-570 -10 -107 -27 -300 -36 -428 -10 -128 -21 -227 -25 -220 -8 15 -41 250
-99 713 -23 176 -68 532 -101 790 -33 259 -80 661 -104 895 -24 234 -58 560
-75 725 -17 165 -46 444 -65 620 -36 335 -103 1007 -180 1795 -90 926 -125
1290 -151 1545 -15 143 -28 280 -28 305 -2 51 20 34 -313 244 -87 55 -230 145
-318 201 -88 56 -241 153 -340 215 -99 63 -242 154 -319 202 -76 49 -140 87
-143 84 -6 -5 17 -21 147 -103 58 -36 179 -113 270 -171 91 -58 206 -130 255
-160 50 -30 133 -83 185 -117 52 -34 201 -128 331 -210 l236 -149 -24 -120
c-75 -380 -120 -613 -168 -876 -30 -162 -61 -324 -70 -360 -8 -36 -37 -189
-65 -340 -47 -259 -63 -344 -125 -657 -14 -71 -52 -272 -85 -448 -94 -501 -95
-506 -103 -465 -4 19 -27 204 -52 410 -25 206 -54 440 -65 520 -11 80 -67 525
-125 990 -58 465 -109 854 -114 865 -5 11 -198 238 -431 505 -434 498 -848
975 -1025 1179 -99 115 -102 118 -169 281 -38 91 -84 200 -102 243 -19 43 -34
83 -34 90 0 7 85 56 188 110 103 53 295 154 428 225 l241 127 -56 75 c-102
137 -695 942 -752 1023 -31 43 -55 86 -53 95 5 19 4 17 149 732 168 831 159
792 232 982 36 95 115 301 175 458 60 157 140 366 177 465 38 99 72 188 76
198 7 16 -24 17 -566 17 -468 0 -581 -3 -615 -14 -22 -8 -94 -43 -160 -79 -65
-35 -152 -79 -192 -98 -39 -18 -72 -37 -72 -42 0 -5 5 -17 10 -27 9 -17 6 -20
-22 -24 -18 -3 -112 -16 -208 -30 -169 -25 -737 -110 -908 -137 -70 -11 -85
-16 -92 -34 -5 -12 -137 -201 -295 -420 -195 -270 -285 -403 -279 -411 5 -7
124 -140 264 -296 385 -428 635 -708 638 -718 4 -11 -968 -332 -988 -327 -9 2
-293 154 -631 337 -338 183 -693 376 -789 428 -96 52 -204 110 -240 130 l-65
36 43 13 c24 6 152 38 285 69 133 31 332 78 442 104 110 26 315 75 455 108
140 33 322 77 404 96 82 19 151 38 154 41 7 7 -10 62 -68 225 -148 411 -162
453 -148 462 8 6 3 7 -17 3 -47 -11 -429 -73 -670 -110 -121 -19 -238 -39
-260 -44 -23 -6 -92 -15 -155 -21 -63 -6 -160 -18 -215 -26 -55 -8 -137 -20
-183 -27 -59 -8 -81 -15 -78 -24 3 -7 -71 -167 -163 -355 l-168 -343 -170
-167 c-93 -93 -175 -168 -181 -168 -7 0 -12 10 -12 23 0 33 -69 835 -76 885
-6 40 -8 43 -33 38 -57 -11 -244 -28 -614 -56 -214 -17 -392 -32 -395 -34 -4
-2 -134 -10 -289 -17 -251 -11 -282 -14 -285 -29 -4 -22 -510 -830 -520 -830
-4 0 -152 108 -330 240 -178 132 -445 331 -595 442 -149 111 -273 209 -276
218 -3 13 -28 19 -118 29 -113 13 -421 72 -469 90 -14 6 -61 20 -105 31 -129
35 -304 96 -389 135 -117 54 -275 151 -324 198 -53 52 -137 163 -147 197 -4
14 -20 52 -35 85 -15 33 -30 80 -34 105 -4 25 -18 65 -32 89 -26 46 -85 248
-111 381 -19 97 -21 336 -4 415 7 33 24 92 37 130 l23 70 -27 12 c-104 45
-475 212 -479 216 -5 5 15 37 382 627 181 290 451 724 549 883 32 51 40 57 69
57 20 0 40 -7 49 -17 38 -44 348 -545 343 -553 -3 -6 -4 -10 -1 -10 9 0 328
364 367 420 22 30 61 81 88 113 65 77 217 319 262 417 59 126 69 149 69 154 0
3 11 30 25 59 34 75 84 272 101 397 41 311 -10 602 -167 947 -10 23 -19 45
-19 48 0 9 -60 110 -125 210 -28 44 -63 98 -77 121 -14 22 -55 75 -91 116
l-64 76 -16 -56 c-8 -31 -25 -99 -37 -149 -12 -53 -27 -93 -33 -92 -7 0 -84
84 -172 186 -242 281 -316 367 -652 754 -169 195 -348 403 -398 461 -49 59
-96 109 -102 112 -7 3 10 -32 39 -77z m20890 -6806 l507 -412 -25 -36 c-13
-20 -24 -46 -24 -58 0 -19 -37 -45 -206 -148 l-206 -125 -33 20 c-20 11 -47
18 -65 16 l-31 -3 -219 570 c-120 314 -222 579 -226 590 -10 25 -74 75 528
-414z m-315 -168 l221 -578 -31 -33 c-27 -28 -32 -41 -32 -83 l0 -51 -210
-146 c-115 -80 -221 -154 -235 -163 -21 -16 -30 -17 -62 -6 -33 10 -36 14 -32
42 8 60 144 1534 144 1564 0 17 3 31 8 31 4 0 107 -260 229 -577z m-478 435
c5 -13 21 -309 36 -658 14 -349 29 -679 32 -732 6 -97 6 -97 -19 -107 -41 -16
-68 -58 -68 -108 0 -38 5 -50 34 -79 19 -19 41 -34 49 -34 12 0 16 -21 21
-102 13 -211 86 -1922 82 -1925 -6 -6 8 -67 -326 1382 -171 743 -313 1357
-315 1365 -3 10 6 20 26 29 42 18 87 83 95 137 8 56 -15 122 -57 161 -16 16
-29 31 -29 35 0 4 88 153 196 332 201 337 221 361 243 304z m-2578 -99 c12
-17 40 -39 63 -49 l41 -17 168 -1164 c92 -640 167 -1170 167 -1176 0 -7 -19
-22 -41 -34 l-42 -21 -41 40 c-22 21 -477 446 -1011 943 -624 582 -969 909
-966 919 2 8 4 35 5 60 l2 45 209 61 c116 33 242 71 282 83 39 12 78 24 85 25
7 2 20 5 28 8 32 11 190 60 202 62 7 1 58 16 113 33 55 17 109 33 120 36 11 3
65 19 120 36 55 17 101 30 103 30 3 0 163 49 220 67 23 8 51 14 60 14 10 0 22
4 28 9 8 8 29 15 56 20 4 0 17 -13 29 -30z m-17311 -560 c184 -172 431 -403
548 -514 l213 -200 -32 -25 c-18 -14 -107 -86 -198 -160 -91 -75 -227 -184
-301 -244 -74 -60 -151 -123 -170 -141 -19 -18 -118 -95 -220 -172 -102 -77
-344 -260 -538 -407 -194 -147 -360 -270 -368 -273 -9 -3 -13 0 -10 8 3 8 30
118 61 244 64 264 118 486 204 835 33 135 85 346 115 470 30 124 91 371 134
550 44 179 85 350 92 380 7 30 15 59 18 63 2 5 30 -16 61 -45 31 -30 207 -196
391 -369z m21160 -184 c12 -20 35 -39 56 -47 l34 -12 0 -348 0 -348 -24 0
c-30 0 -87 -39 -104 -70 -21 -40 -8 -101 28 -132 16 -16 36 -28 43 -28 6 0 22
34 35 75 12 41 26 75 31 75 5 0 15 -32 22 -70 12 -67 13 -69 30 -54 52 47 44
134 -17 180 l-34 26 0 350 c0 318 1 349 16 346 12 -2 43 -90 119 -343 56 -187
207 -688 334 -1112 l233 -773 -35 -33 c-59 -56 -58 -127 3 -182 35 -32 111
-28 148 8 l29 28 574 -317 c316 -174 746 -411 957 -527 211 -116 379 -213 374
-215 -7 -2 -1704 522 -2229 689 -28 9 -31 14 -28 39 2 17 43 86 90 156 48 69
85 127 83 130 -3 2 -43 -52 -90 -121 l-85 -124 -21 29 c-24 31 -97 59 -114 42
-5 -5 -5 -25 1 -50 11 -52 -5 -56 -38 -11 -18 24 -25 28 -36 19 -21 -17 -30
-79 -17 -112 10 -28 5 -35 -260 -309 -178 -183 -276 -278 -285 -274 -8 3 -19
5 -24 5 -5 0 -9 291 -9 724 l0 724 30 11 c17 5 30 13 30 16 0 4 -14 27 -31 51
-41 60 -32 67 11 8 28 -40 34 -44 47 -31 27 27 27 88 1 127 -35 51 -54 50 -69
-2 -6 -24 -14 -37 -16 -30 -3 7 0 26 6 43 12 34 7 49 -15 49 -8 0 -14 2 -14 4
0 2 -58 292 -130 646 -71 353 -130 649 -130 658 1 10 15 26 33 37 41 26 60 79
46 130 -6 20 -9 38 -7 40 3 3 390 242 395 244 1 1 11 -15 23 -34z m-1865 -168
c-79 -327 -335 -1400 -335 -1402 0 -2 -16 -6 -35 -9 -45 -9 -92 -49 -100 -86
-4 -17 -7 -30 -8 -31 -1 0 -189 -24 -417 -54 -371 -47 -416 -51 -425 -37 -5 8
-24 32 -41 51 l-31 36 524 635 c289 349 585 708 659 797 l134 163 40 -21 c32
-17 39 -25 35 -42z m3679 -22 c242 -36 445 -65 452 -65 8 0 13 -13 12 -37 -1
-21 2 -47 5 -59 6 -17 -58 -93 -363 -435 l-371 -414 -52 4 c-28 1 -53 4 -53 5
-1 0 -46 220 -100 488 l-99 488 24 16 c13 9 30 32 37 51 13 30 18 34 42 29 15
-3 225 -35 466 -71z m-3563 5 c13 -60 620 -2694 624 -2706 2 -6 -6 -16 -18
-21 -21 -10 -58 32 -482 544 -253 304 -468 565 -478 578 -16 21 -17 30 -8 57
19 55 -16 132 -70 150 -6 2 64 311 161 717 93 392 170 714 170 715 0 1 21 2
47 1 46 0 47 -1 54 -35z m1144 -180 c11 -11 38 -26 60 -33 l39 -14 47 -234
c27 -129 87 -425 134 -658 47 -233 84 -425 82 -427 -2 -2 -12 -5 -24 -6 -15
-2 -61 43 -189 187 -93 105 -271 306 -397 447 l-227 257 12 46 c10 36 10 52
-1 78 -7 17 -13 38 -14 45 -2 10 431 326 452 331 3 1 14 -8 26 -19z m2950 -44
c22 -10 41 -19 43 -20 3 -3 52 -925 52 -984 0 -37 -3 -44 -27 -53 -34 -13 -80
-55 -99 -91 l-14 -26 -352 117 -353 118 -7 47 c-4 26 -14 56 -23 66 -15 17 5
42 356 434 205 229 375 415 378 413 3 -2 24 -11 46 -21z m-3002 -931 l364
-410 -18 -23 c-30 -39 -33 -78 -9 -126 l21 -44 -357 -484 c-347 -471 -357
-483 -387 -480 -18 1 -35 6 -38 10 -4 4 -26 421 -48 927 -22 506 -43 957 -46
1003 -5 73 -4 83 12 88 10 3 29 11 43 18 24 13 27 11 62 -28 20 -22 200 -225
401 -451z m-1618 -459 c18 -9 42 -16 53 -16 12 0 23 -8 26 -17 4 -14 134 -585
170 -748 4 -15 -4 -24 -35 -38 -22 -11 -45 -16 -52 -14 -7 3 -250 158 -542
345 -424 272 -529 343 -527 358 2 10 4 40 5 66 1 27 4 48 7 48 3 1 189 24 415
53 l410 53 18 -37 c11 -22 32 -44 52 -53z m635 -569 c433 -523 462 -560 451
-583 -6 -13 -15 -24 -20 -24 -4 0 -158 51 -341 114 l-333 113 -13 43 c-15 51
-47 87 -84 95 -27 6 -27 8 -114 388 -48 210 -89 389 -92 397 -2 9 8 22 24 31
25 15 28 15 43 0 9 -9 225 -267 479 -574z m1418 -324 l-3 -724 -25 -16 c-25
-14 -36 -9 -375 170 l-350 186 3 41 c2 28 -3 52 -17 75 l-20 34 360 489 360
490 35 -11 34 -10 -2 -724z m-18469 511 c-269 -474 -359 -632 -449 -789 -53
-93 -119 -209 -146 -257 -27 -49 -52 -88 -56 -88 -4 0 -195 63 -425 140 -230
78 -556 187 -725 243 -170 56 -308 105 -308 109 0 4 10 10 23 13 27 9 764 282
912 339 47 18 456 171 700 261 168 62 335 124 490 183 44 16 81 29 83 27 1 -1
-43 -83 -99 -181z m17481 -832 c0 -35 29 -91 54 -104 11 -6 22 -11 23 -12 1
-1 -87 -260 -196 -576 l-197 -575 -39 -6 c-84 -11 -119 -51 -113 -129 l3 -51
-578 -365 c-319 -201 -584 -367 -590 -369 -7 -2 -27 8 -44 23 l-33 28 101 260
c55 142 249 644 431 1114 181 470 336 870 344 890 12 29 23 38 62 50 32 10 53
25 67 46 l20 31 343 -115 c322 -109 342 -117 342 -140z m-843 180 c9 -6 -108
-318 -435 -1159 l-447 -1151 -55 1 c-89 0 -159 -46 -190 -127 l-10 -26 -537 0
c-519 0 -539 1 -550 19 -11 17 102 144 1095 1235 608 669 1109 1216 1112 1216
3 0 11 -4 17 -8z m2541 -79 c20 4 45 8 54 9 11 2 99 -84 252 -247 165 -175
231 -251 218 -253 -9 -1 -269 -18 -577 -37 -527 -33 -561 -34 -573 -18 -7 9
-11 20 -10 24 2 4 122 131 267 282 l265 276 34 -21 c25 -15 43 -19 70 -15z
m-1122 -359 c321 -169 354 -189 354 -211 0 -14 7 -37 16 -51 14 -26 13 -33
-44 -170 l-59 -143 -71 -2 -71 -3 -251 363 c-191 276 -250 368 -245 383 4 11
9 20 12 20 2 0 164 -84 359 -186z m-137 -221 l253 -366 -32 -25 c-37 -29 -69
-93 -70 -138 0 -21 -6 -34 -17 -39 -10 -4 -197 -72 -416 -151 l-398 -145 -31
33 -31 33 46 135 c94 278 335 986 342 1002 4 10 21 18 43 21 21 2 42 4 47 5 6
1 124 -163 264 -365z m315 -619 c-15 -43 -32 -86 -39 -94 -6 -8 -139 -393
-295 -855 -155 -462 -287 -847 -291 -855 -7 -13 -8 -13 -9 0 0 8 -22 61 -50
117 -27 56 -50 105 -50 108 0 3 -25 51 -55 107 -30 55 -55 107 -55 114 0 7 -4
14 -9 16 -5 2 -32 48 -61 102 -28 55 -58 106 -66 113 -19 20 -18 22 19 63 l32
35 -32 -29 c-18 -17 -33 -25 -33 -20 0 17 56 65 65 57 4 -5 5 -3 1 4 -4 8 144
186 390 470 218 252 403 465 410 473 12 12 18 12 45 -4 17 -10 34 -14 39 -10
4 5 20 46 35 92 15 46 29 82 31 79 2 -2 -8 -39 -22 -83z m1256 55 c399 -10
757 -19 797 -19 l72 0 10 -36 c6 -20 18 -45 27 -56 17 -18 16 -21 -32 -67 -27
-27 -435 -425 -906 -884 -754 -733 -861 -834 -883 -829 -14 2 -25 5 -25 7 0 1
-56 388 -125 860 -69 472 -124 858 -123 859 76 29 132 91 143 157 l7 40 156
-6 c87 -3 483 -15 882 -26z m-1387 -112 c-22 -36 -1363 -1565 -1367 -1559 -2
4 78 275 179 602 l182 595 33 6 c73 15 110 56 110 122 l0 34 413 150 412 150
23 -45 c12 -24 19 -49 15 -55z m2355 -36 c10 -6 -3 -49 -62 -193 -42 -101 -76
-193 -76 -204 -1 -10 -7 -30 -16 -44 l-15 -25 7 25 c4 14 9 31 12 39 4 10 -1
12 -19 6 -35 -11 -47 -23 -54 -56 -4 -19 -1 -38 8 -53 15 -22 9 -38 -93 -287
-99 -242 -110 -264 -134 -267 -25 -3 -66 -43 -66 -66 -1 -9 -1278 -622 -1323
-634 -16 -5 349 357 1130 1121 365 356 668 647 675 647 7 0 19 -4 26 -9z
m-2177 -30 c4 -3 62 -389 129 -857 l123 -850 -27 -27 c-15 -15 -26 -37 -26
-54 -1 -25 -23 -43 -231 -183 -126 -85 -236 -158 -243 -162 -9 -5 -22 22 -46
95 -33 100 -54 155 -71 189 -5 10 -9 23 -9 31 0 7 -8 28 -18 47 -11 19 -31 69
-47 110 -15 41 -33 81 -39 89 -6 7 -16 27 -22 45 -7 17 -18 45 -24 62 -12 28
3 77 229 756 l242 727 37 -6 c20 -3 40 -8 43 -12z m2849 -146 c7 -8 18 -15 26
-15 15 0 19 -21 34 -174 l10 -108 -25 -20 c-14 -11 -25 -29 -25 -42 0 -19 -71
-58 -526 -290 -536 -274 -553 -281 -562 -235 -1 8 44 129 102 269 l104 255 29
-3 c39 -4 73 24 82 68 l7 34 304 118 c168 64 325 126 350 137 56 24 74 25 90
6z m-4092 -295 c-26 -85 -109 -356 -185 -602 -120 -391 -140 -448 -157 -448
-11 0 -27 -6 -35 -14 -14 -12 -64 9 -396 169 l-380 183 -5 58 c-3 33 -12 70
-19 84 -8 13 -10 26 -5 27 5 2 270 169 588 372 l579 368 32 -21 31 -21 -48
-155z m4742 -164 c239 -41 703 -120 1030 -175 327 -56 619 -106 648 -112 89
-18 77 -35 -122 -181 -96 -70 -181 -131 -190 -134 -9 -3 -22 -2 -29 4 -36 28
-101 21 -142 -18 -20 -18 -24 -17 -260 84 -132 56 -503 214 -825 351 -322 136
-589 252 -595 258 -6 6 1 7 20 3 17 -3 226 -39 465 -80z m-610 25 c-1 -9 -94
-261 -209 -561 l-208 -545 -34 -7 c-19 -3 -43 -9 -54 -12 -16 -6 -72 45 -297
271 l-277 278 5 41 6 40 521 267 c526 268 548 277 547 228z m940 -311 c443
-188 813 -346 823 -352 45 -24 -10 -22 -235 8 -134 17 -460 60 -726 95 -481
63 -483 63 -495 89 -7 14 -28 33 -48 43 -35 17 -38 24 -109 218 l-72 200 22
24 c13 14 26 23 29 21 3 -2 368 -158 811 -346z m-801 101 c39 -108 71 -201 71
-207 0 -6 -9 -19 -20 -29 -31 -28 -27 -78 10 -107 l30 -24 -30 -224 c-17 -124
-33 -226 -34 -227 -6 -6 -485 -143 -500 -143 -9 0 -16 4 -16 9 0 5 -13 17 -29
28 l-29 18 204 535 c112 294 208 545 213 556 7 16 16 20 34 17 22 -4 32 -26
96 -202z m-5809 -321 c0 -57 46 -123 113 -165 15 -9 -2 -73 -142 -550 -254
-863 -465 -1582 -667 -2277 -178 -609 -190 -648 -211 -648 -20 0 -23 5 -23 38
0 20 -4 107 -10 192 -5 85 -30 502 -55 925 -119 2029 -135 2285 -140 2357 -6
77 -6 78 20 88 15 6 32 23 38 40 l11 30 533 0 533 0 0 -30z m6730 -73 l705
-93 7 -34 c3 -19 9 -44 13 -55 5 -17 -35 -69 -198 -260 l-204 -240 -50 1 c-49
1 -50 1 -536 375 -267 206 -486 380 -487 387 0 6 10 12 23 12 12 -1 339 -42
727 -93z m-2249 31 l32 -32 -23 -217 c-12 -119 -19 -228 -15 -240 4 -17 3 -20
-3 -10 -7 10 -14 10 -29 2 -21 -11 -1302 -115 -1311 -106 -3 3 93 52 214 110
629 303 1090 523 1096 524 3 1 21 -13 39 -31z m1986 -350 c278 -214 490 -384
482 -386 -15 -3 -1086 272 -1095 281 -7 6 57 452 65 455 5 1 17 9 27 17 10 8
20 15 22 15 1 0 226 -172 499 -382z m-5371 -8 c37 -16 40 -21 36 -48 -3 -24 2
-37 24 -59 l28 -28 -56 -450 c-214 -1704 -283 -2235 -289 -2235 -7 0 -15 39
-109 535 -34 176 -88 460 -120 630 -56 289 -150 783 -291 1520 -32 171 -61
322 -64 336 -5 22 0 30 29 47 20 12 48 38 63 60 l28 38 340 -164 c187 -90 358
-172 381 -182z m3762 67 c203 -203 279 -286 272 -293 -8 -8 0 -16 29 -28 23
-9 41 -18 41 -22 0 -9 -43 7 -80 31 -19 12 -168 75 -330 140 l-296 117 17 161
c10 89 18 163 18 164 1 1 22 7 41 12 3 0 132 -126 288 -282z m-6559 154 c11
-7 2 -209 -63 -1277 -80 -1329 -83 -1374 -95 -1374 -4 0 -110 203 -235 451
-210 414 -227 452 -212 468 23 26 46 86 46 123 -1 49 -32 110 -75 146 -34 27
-37 34 -29 54 520 1192 621 1418 634 1418 8 0 21 -4 29 -9z m1871 2 c0 -19
-352 -3550 -355 -3569 -3 -13 -15 -24 -30 -28 -14 -4 -31 -18 -38 -33 -11 -25
-12 -26 -92 -19 -44 3 -143 6 -221 6 l-141 0 -13 43 c-14 47 -76 113 -115 123
-14 3 -25 11 -25 18 0 6 41 151 91 321 50 171 275 942 500 1715 225 773 412
1411 414 1418 5 13 25 17 25 5z m-1820 -9 c0 -10 300 -2865 310 -2954 13 -112
13 -117 -6 -124 -11 -4 -79 44 -220 156 -190 153 -203 165 -203 196 -1 24 -10
42 -32 62 l-30 29 75 1248 c84 1382 85 1393 97 1393 5 0 9 -3 9 -6z m9892
-276 c3 -35 -3 -45 -120 -178 l-124 -140 -41 4 -42 3 -143 240 -143 241 23 33
22 34 282 -100 282 -100 4 -37z m1062 165 c4 -14 20 -38 35 -52 l28 -26 -61
-233 c-57 -218 -62 -232 -84 -232 -13 0 -33 -5 -45 -11 -18 -10 -70 13 -409
182 -294 147 -388 198 -388 212 0 10 6 20 13 22 22 9 851 163 878 164 21 1 28
-5 33 -26z m-1726 -11 l46 3 142 -239 c139 -234 142 -240 126 -262 -21 -29 -4
-28 -455 -12 -339 12 -348 12 -362 34 -13 21 -4 33 191 263 l206 241 30 -16
c18 -9 48 -14 76 -12z m2044 -552 c108 -308 165 -487 159 -493 -12 -12 -11
-14 -269 212 -196 171 -222 197 -222 223 0 16 -7 42 -16 58 -16 26 -15 35 30
206 80 304 70 279 112 278 l37 -1 169 -483z m-853 180 l381 -190 0 -33 0 -33
-200 -87 c-171 -75 -206 -87 -236 -81 -19 3 -41 16 -49 28 -8 11 -81 142 -164
290 -115 206 -148 273 -139 283 6 7 14 13 18 13 5 0 180 -85 389 -190z m-2929
167 c0 -1 18 -104 40 -227 55 -311 79 -300 -269 -129 l-271 132 0 41 0 41 243
71 c247 73 257 76 257 71z m562 -141 c289 -75 529 -136 532 -136 3 0 6 -7 6
-15 0 -8 -2 -15 -4 -15 -3 0 -207 -43 -454 -95 -248 -52 -455 -95 -461 -95 -6
0 -20 9 -31 20 -11 11 -29 20 -40 20 -11 0 -20 3 -20 8 0 8 -67 382 -76 426
-5 22 -3 28 7 24 8 -3 251 -67 541 -142z m1913 129 c27 -2 38 -18 187 -285
210 -376 224 -362 -179 -187 -243 105 -303 134 -303 150 0 10 -4 26 -10 36 -7
15 13 43 117 160 95 107 130 140 142 135 9 -4 29 -8 46 -9z m-3911 -64 c-4
-19 0 -40 11 -59 18 -30 17 -33 -100 -496 -65 -257 -122 -465 -126 -464 -4 2
-245 203 -536 446 -434 365 -527 448 -525 465 2 12 6 24 9 27 2 2 286 28 631
56 345 28 630 52 634 53 4 0 5 -12 2 -28z m165 -379 c40 -158 76 -299 81 -314
7 -21 4 -30 -16 -49 -14 -13 -24 -34 -24 -50 0 -25 -14 -34 -196 -129 -108
-56 -198 -100 -200 -98 -2 3 217 881 231 924 2 6 15 9 28 7 23 -5 28 -20 96
-291z m-1549 233 l30 -16 0 -419 c0 -408 -1 -419 -20 -425 -11 -3 -28 -17 -38
-30 l-18 -23 -539 64 c-521 62 -554 68 -555 99 0 6 51 45 113 87 61 42 310
212 552 377 242 166 441 301 443 301 2 0 16 -7 32 -15z m630 -441 c286 -240
520 -440 520 -444 0 -4 -41 -10 -91 -14 -75 -6 -94 -4 -109 9 -26 23 -77 19
-104 -10 -21 -22 -31 -24 -126 -27 l-103 -3 -249 430 c-298 515 -295 510 -274
502 9 -4 250 -203 536 -443z m-291 -33 c143 -249 261 -458 261 -463 0 -6 -19
-7 -47 -4 -27 4 -154 7 -283 9 -129 1 -220 3 -202 5 19 2 32 9 32 17 0 15 -38
55 -52 55 -4 0 -8 189 -8 419 0 326 3 420 13 424 6 2 15 2 18 -2 4 -3 124
-210 268 -460z m2245 330 c255 -124 266 -131 266 -158 0 -33 25 -73 45 -73 8
0 16 -4 19 -8 6 -10 56 -584 56 -639 0 -18 -4 -33 -9 -33 -6 0 -99 132 -207
293 -109 160 -260 385 -338 499 -137 204 -139 208 -121 228 10 11 19 20 21 20
1 0 122 -58 268 -129z m1923 47 c265 -9 343 -15 347 -25 4 -9 -104 -68 -342
-188 l-347 -175 -40 12 c-22 6 -41 12 -42 12 0 1 -15 68 -33 150 -31 147 -31
148 -12 170 10 11 22 29 25 39 8 21 0 21 444 5z m-587 -6 c0 -18 42 -52 64
-52 22 0 25 -9 55 -155 l33 -156 -24 -23 -23 -22 -514 100 c-283 56 -514 106
-513 111 1 8 858 200 910 204 6 1 12 -3 12 -7z m1389 -172 c232 -100 289 -128
285 -141 -8 -29 15 -70 46 -82 23 -9 30 -18 30 -38 0 -21 -8 -31 -37 -46 l-38
-20 -297 224 c-164 123 -298 226 -298 229 0 7 -26 18 309 -126z m-425 105 c25
-19 56 -19 82 -1 19 14 40 -1 322 -212 166 -125 301 -229 301 -232 0 -3 -5
-12 -12 -21 -12 -16 -66 -12 -710 44 -553 49 -698 64 -702 76 -3 7 -4 15 -3
16 10 9 685 344 693 344 6 0 19 -6 29 -14z m1271 -61 c24 -16 60 -15 96 0 11
5 83 -52 252 -199 295 -256 292 -245 49 -245 -92 0 -298 3 -459 7 l-292 6 -23
36 c-14 23 -36 40 -58 47 -48 16 -52 50 -9 93 26 27 30 37 25 65 l-6 33 192
86 c106 47 197 86 201 86 4 1 19 -6 32 -15z m-2630 -192 l500 -98 3 -27 c4
-29 44 -67 71 -67 12 0 24 -19 39 -60 19 -54 20 -61 6 -67 -9 -3 -22 -20 -29
-36 -13 -30 -14 -31 -536 -173 -503 -136 -525 -141 -544 -124 -11 9 -27 19
-35 22 -13 5 -20 58 -39 299 -12 162 -25 313 -28 337 -5 34 -3 42 10 42 9 0
24 11 34 25 10 13 25 24 33 24 8 0 240 -44 515 -97z m1205 -167 c771 -68 821
-73 827 -79 4 -3 -3 -6 -14 -6 -11 0 -290 -22 -621 -50 -331 -27 -617 -50
-635 -50 -21 0 -41 8 -52 20 -10 11 -28 20 -41 20 -18 0 -27 11 -44 58 -16 43
-19 61 -11 72 6 8 16 25 23 38 6 12 21 22 32 22 12 0 253 -20 536 -45z m-3087
-112 c-11 -21 -80 -229 -153 -462 -94 -296 -136 -418 -142 -405 -21 52 -159
667 -152 674 5 4 96 54 203 109 184 96 195 101 212 85 18 -16 20 -15 30 15 6
18 14 30 16 27 3 -3 -3 -22 -14 -43z m-17828 -13 c138 -11 295 -24 350 -30 55
-5 244 -21 420 -35 175 -14 321 -27 323 -29 4 -5 -137 -596 -147 -613 -4 -7
-124 58 -341 184 -184 107 -468 271 -630 365 -162 94 -299 175 -305 180 -5 4
11 6 35 3 25 -3 158 -15 295 -25z m21750 8 c0 -13 -164 -113 -575 -352 -480
-278 -577 -331 -590 -321 -8 7 -28 17 -44 22 -29 9 -30 13 -88 248 -56 229
-57 239 -39 251 10 7 21 26 24 41 l6 28 608 51 c334 29 628 51 653 50 36 -1
45 -5 45 -18z m-6133 -158 c282 -33 516 -60 520 -60 5 0 8 -7 8 -15 0 -12 4
-13 19 -5 11 5 26 10 33 10 7 -1 0 -8 -15 -16 -16 -9 -31 -13 -34 -10 -6 6
-238 -109 -272 -135 -13 -11 -29 -19 -35 -19 -6 1 2 8 18 17 28 15 29 16 11
29 -25 18 -64 18 -85 -1 -14 -13 -53 1 -350 116 -418 163 -380 148 -352 148
12 1 253 -26 534 -59z m4743 -10 c28 0 21 20 94 -280 47 -197 49 -206 31 -222
-10 -9 -20 -22 -22 -29 -6 -18 -1213 271 -1213 291 0 10 142 52 520 156 l520
141 23 -28 c14 -17 33 -29 47 -29z m-4955 -84 l345 -134 7 -47 7 -48 -91 -103
c-49 -57 -95 -101 -101 -97 -6 3 -23 9 -39 12 -22 5 -84 69 -263 270 -207 234
-244 281 -217 281 4 0 162 -60 352 -134z m-211 -271 c182 -347 188 -361 170
-375 -11 -9 -23 -29 -27 -44 -7 -27 -23 -36 -158 -92 l-149 -63 -25 23 c-14
13 -35 27 -47 31 -13 3 -23 12 -23 18 0 7 9 194 20 417 11 223 20 415 20 428
0 61 43 -6 219 -343z m71 105 c227 -255 232 -261 215 -281 -23 -24 -24 -75 -2
-96 15 -15 15 -19 -5 -55 -18 -31 -27 -38 -48 -36 -27 3 -12 -23 -278 491 -68
130 -121 237 -119 237 3 0 109 -117 237 -260z m2086 203 c-2 -10 -24 -105 -47
-210 -23 -106 -44 -192 -45 -190 -2 1 -32 72 -69 156 -61 144 -64 155 -49 172
9 10 17 29 18 43 1 23 6 26 56 31 30 4 60 8 65 10 6 2 25 4 43 4 27 1 32 -2
28 -16z m-796 -27 c214 -6 193 6 265 -141 59 -120 86 -224 86 -328 0 -205
-132 -413 -326 -514 -315 -162 -622 -163 -939 0 l-98 50 -40 83 c-32 67 -38
86 -29 102 15 28 14 44 -3 68 -15 19 -15 19 -30 -1 -8 -11 -16 -15 -16 -9 0 6
12 20 26 33 14 12 38 50 54 85 15 35 34 67 41 72 7 4 2 -10 -11 -30 -21 -35
-22 -39 -7 -48 10 -5 17 -15 17 -21 0 -27 72 -162 117 -219 53 -67 140 -136
225 -179 55 -28 95 -38 85 -21 -3 4 -8 48 -11 97 -4 50 -9 106 -11 125 -2 19
-7 73 -11 119 -3 46 -9 108 -13 137 l-7 53 37 18 c45 21 50 36 27 83 -19 37
-24 100 -8 100 6 0 10 6 10 14 0 8 7 17 16 20 13 5 14 9 4 21 -7 8 -19 15 -26
15 -8 0 -14 6 -14 14 0 13 -20 26 -41 26 -20 0 -7 -16 32 -38 l41 -24 -21 -22
c-30 -32 -36 -77 -16 -120 10 -20 22 -36 29 -36 14 0 -45 -49 -60 -50 -19 0
-52 44 -64 87 -15 50 -7 100 23 145 18 25 22 40 16 62 -8 28 -6 29 117 87 117
57 125 59 146 45 42 -30 101 -15 118 29 8 20 14 23 47 19 21 -2 121 -5 223 -8z
m466 -20 c9 -31 8 -40 -15 -75 -14 -23 -29 -41 -32 -41 -4 0 -35 30 -69 68
l-62 67 58 6 c114 11 108 12 120 -25z m423 -286 c40 -168 75 -314 78 -325 3
-11 -50 34 -118 100 -68 66 -126 126 -128 134 -5 20 82 412 90 403 3 -4 39
-144 78 -312z m-6701 10 c9 0 33 8 52 18 l35 17 226 -444 227 -445 -20 -27
c-15 -20 -19 -35 -14 -56 4 -15 8 -34 9 -41 3 -18 -505 -801 -520 -802 -6 0
-13 -10 -15 -22 -2 -13 -3 447 -3 1022 0 575 1 985 3 913 2 -118 5 -133 20
-133z m6436 73 c36 -87 66 -163 66 -168 0 -6 -34 -22 -75 -37 l-76 -27 -32 19
c-31 19 -33 23 -53 151 l-22 131 25 44 c22 40 28 44 62 44 l38 0 67 -157z m73
-235 c-4 -24 -14 -158 -23 -300 l-17 -256 -30 -6 c-24 -5 -50 6 -141 59 -61
35 -119 70 -129 77 -16 12 -14 23 39 166 51 136 60 152 81 152 32 0 63 34 63
69 0 27 5 31 73 54 39 14 76 26 81 26 4 1 6 -18 3 -41z m132 -392 c-84 -103
-147 -172 -152 -167 -5 5 0 124 12 288 12 153 21 287 21 298 0 14 37 -18 131
-111 l131 -132 -143 -176z m153 -578 c2 -355 2 -645 0 -643 -2 1 -68 209 -147
461 -128 406 -143 460 -130 474 17 19 20 63 5 90 -8 15 13 46 128 187 l137
168 2 -45 c2 -25 4 -336 5 -692z m-2188 667 c8 -23 56 -38 82 -27 19 9 24 3
58 -65 l37 -75 -128 6 c-376 18 -363 17 -363 35 0 11 43 34 148 78 81 34 150
62 153 63 4 0 9 -7 13 -15z m-10639 -215 c63 -45 115 -85 115 -89 0 -4 -4 -11
-9 -16 -5 -6 -50 -77 -100 -159 -71 -117 -88 -153 -81 -166 5 -10 32 -96 59
-192 27 -95 102 -353 166 -573 64 -220 126 -432 137 -471 l20 -70 62 -18 c33
-9 68 -19 76 -21 18 -6 308 -86 565 -157 210 -57 196 -53 215 -61 8 -3 98 -28
200 -56 102 -27 268 -73 370 -101 102 -28 201 -55 220 -58 30 -6 36 -12 41
-42 4 -19 28 -123 54 -230 26 -107 67 -280 91 -385 24 -104 62 -262 84 -350
39 -157 127 -522 150 -620 l11 -50 147 -93 c81 -52 254 -164 386 -250 l239
-157 3 -60 c21 -408 24 -729 10 -1310 l-14 -620 -52 -175 c-92 -314 -249 -811
-311 -987 -33 -95 -62 -190 -65 -210 -2 -21 -6 -49 -9 -63 -2 -14 -25 -158
-50 -320 -25 -162 -48 -306 -50 -320 -3 -14 -18 -117 -35 -230 l-31 -205 114
-270 c333 -786 350 -825 345 -830 -2 -2 -50 78 -108 178 -57 100 -234 406
-392 680 -159 274 -299 519 -312 545 -13 26 -120 328 -239 672 -119 344 -317
919 -441 1278 -124 360 -226 660 -226 667 0 17 -37 47 -351 285 -432 328 -764
582 -771 588 -4 4 -23 79 -43 167 -21 88 -62 266 -92 395 -30 129 -78 341
-108 470 -66 287 -132 576 -179 774 l-35 148 50 412 c27 226 58 474 69 551 11
77 28 209 38 292 l18 153 -25 24 c-30 27 -455 360 -612 478 l-105 80 39 116
c21 65 69 216 107 337 140 450 189 600 197 602 4 2 76 43 158 92 83 49 156 88
162 86 7 -3 65 -41 128 -85z m12305 16 c69 -41 125 -79 124 -85 -1 -6 -2 -27
-2 -45 -2 -32 -13 -44 -128 -139 -122 -101 -128 -104 -153 -91 -14 7 -33 15
-41 17 -19 6 -166 244 -157 254 13 12 222 162 227 162 3 0 61 -33 130 -73z
m-1511 18 c6 -5 16 2 -158 -114 -139 -92 -156 -101 -178 -91 -13 6 -37 11 -53
11 -24 0 -36 11 -75 67 -38 54 -45 70 -36 83 6 8 16 26 21 38 l10 24 233 -7
c127 -4 234 -9 236 -11z m-9513 -179 c25 -66 63 -165 85 -220 68 -175 230
-598 246 -643 9 -24 12 -47 7 -51 -14 -13 -1285 -653 -1289 -649 -3 3 49 73
534 723 l214 287 71 355 c46 233 73 349 78 337 4 -11 28 -73 54 -139z m9521
143 c-3 -7 -84 -220 -182 -473 -97 -253 -181 -464 -186 -470 -5 -5 -9 103 -9
278 0 267 1 287 18 287 21 1 56 28 71 57 15 30 14 85 -4 110 -14 20 -9 24 133
121 147 101 169 113 159 90z m177 -101 l60 -53 -29 -232 c-16 -128 -32 -232
-35 -232 -3 0 -32 134 -64 298 -33 163 -62 306 -65 317 -5 22 27 -2 133 -98z
m-80 -248 c40 -200 65 -344 59 -350 -5 -5 -107 -69 -227 -143 -213 -132 -219
-135 -246 -121 l-28 14 97 253 c54 139 135 351 181 471 45 119 85 217 89 217
3 0 37 -153 75 -341z m1109 137 c75 -123 75 -124 56 -142 -16 -14 -20 -28 -17
-59 3 -41 2 -42 -87 -116 -136 -112 -123 -103 -141 -88 -9 7 -37 16 -62 19
l-45 5 -110 193 c-60 106 -107 195 -106 196 9 7 396 114 415 115 17 1 37 -25
97 -123z m-11043 31 c-9 -7 -161 -124 -339 -260 -177 -137 -324 -247 -327
-244 -4 4 246 452 266 475 6 6 25 12 43 13 18 0 106 8 197 18 91 9 167 15 170
13 3 -2 -2 -9 -10 -15z m10324 -2 c82 -8 156 -15 166 -15 12 0 51 -59 129
-197 61 -109 111 -202 111 -208 -2 -28 -58 9 -320 210 -157 120 -289 222 -295
227 -6 6 3 7 25 4 19 -3 102 -13 184 -21z m1171 9 c13 -9 33 -13 44 -9 16 5
22 -2 35 -42 8 -26 69 -221 136 -433 66 -212 128 -405 136 -430 l14 -45 -33
35 c-19 19 -163 173 -321 342 -285 306 -286 307 -286 351 l0 45 123 101 c67
55 123 101 125 101 1 0 14 -7 27 -16z m-1063 -252 l266 -204 -11 -29 -11 -29
-328 0 -328 0 5 23 c2 12 16 112 30 222 14 110 28 217 31 238 l6 37 37 -27
c21 -16 157 -120 303 -231z m-4573 11 c80 -64 169 -136 197 -159 l52 -44 -13
-37 c-9 -27 -22 -41 -45 -51 -17 -7 -236 -102 -486 -212 -250 -110 -460 -200
-465 -200 -6 0 -9 5 -7 12 2 6 119 188 259 404 226 348 256 391 274 384 12 -5
33 -2 50 5 17 7 32 14 34 14 2 1 69 -51 150 -116z m3572 37 c5 0 9 -120 9
-289 0 -284 0 -290 -21 -296 -44 -14 -73 -100 -49 -144 7 -15 -49 -100 -312
-467 -176 -247 -323 -451 -325 -453 -2 -3 -8 0 -14 6 -7 7 60 178 226 574 130
310 284 680 343 821 75 181 111 256 120 253 8 -3 18 -5 23 -5z m2108 -429
c176 -189 318 -347 316 -352 -8 -12 -623 -489 -639 -495 -8 -3 -17 -1 -21 5
-3 6 -15 11 -26 11 -23 0 -22 -47 -8 640 9 460 12 516 27 528 9 7 19 11 23 10
4 -2 151 -158 328 -347z m-414 329 c6 -10 -326 -1172 -333 -1165 -2 1 0 188 4
415 7 405 7 412 28 420 55 21 84 87 63 146 -6 17 9 34 99 107 103 85 126 98
139 77z m24 -410 c-4 -223 -8 -480 -9 -572 l0 -168 -35 -14 c-20 -9 -43 -29
-53 -46 -17 -30 -17 -30 -108 -30 -87 0 -91 1 -102 25 -6 14 -16 25 -22 25 -5
0 -10 6 -10 13 0 10 320 1124 335 1166 3 8 7 12 9 10 2 -2 0 -186 -5 -409z
m-5032 161 l22 -19 -297 -856 -297 -857 -39 3 -39 3 -194 609 c-174 544 -193
610 -179 625 8 9 16 31 18 50 l3 34 485 213 c267 117 487 213 490 213 3 0 15
-8 27 -18z m4253 -462 c198 -265 357 -486 354 -491 -3 -5 -262 121 -576 280
l-571 289 -2 44 c-1 24 -4 52 -6 63 -3 15 40 46 216 156 121 76 221 139 223
139 1 1 164 -216 362 -480z m313 443 c16 -36 60 -72 90 -72 12 0 14 -40 10
-292 -7 -421 -14 -542 -33 -545 -9 -1 -89 98 -210 263 -107 145 -197 269 -199
275 -1 6 -14 22 -28 37 -44 47 -55 85 -48 176 4 44 9 88 12 96 3 8 6 34 6 58
l1 42 191 0 191 0 17 -38z m-4347 -110 c153 -179 140 -159 117 -185 -81 -88
-67 -219 30 -288 l43 -30 -98 -642 c-54 -353 -174 -1148 -268 -1767 -94 -619
-172 -1132 -175 -1140 -2 -8 -2 26 0 75 3 50 48 988 101 2085 85 1779 97 1995
112 2007 9 7 20 13 23 13 3 0 55 -57 115 -128z m-205 -602 c-17 -338 -60
-1243 -96 -2010 -67 -1434 -72 -1508 -84 -1494 -4 5 -36 164 -70 354 -34 190
-120 663 -192 1051 -71 389 -129 711 -129 717 0 5 10 13 23 16 30 8 60 35 91
81 62 91 10 241 -96 278 -15 5 -10 25 40 170 31 90 165 474 297 854 213 613
240 686 243 645 1 -26 -11 -324 -27 -662z m4014 44 c522 -264 565 -288 559
-308 -4 -11 -7 -21 -8 -22 0 0 -77 -21 -171 -47 -93 -25 -448 -123 -788 -216
-340 -94 -624 -171 -631 -171 -7 0 -20 8 -29 18 -16 17 -6 48 160 509 l176
490 48 -5 c38 -3 54 0 76 16 15 12 31 22 35 22 4 0 262 -129 573 -286z m-3092
236 c167 0 168 0 176 -24 5 -13 21 -32 36 -42 l26 -20 -76 -739 c-65 -629
-297 -2539 -323 -2654 -5 -22 -25 177 -60 595 -30 346 -69 807 -88 1024 -74
874 -134 1587 -137 1629 -2 43 -1 45 33 54 72 19 139 98 140 166 0 23 2 24 53
17 28 -3 127 -6 220 -6z m4817 -27 c1 -32 118 -1483 123 -1528 3 -16 2 -20 0
-7 -3 15 -10 22 -18 18 -20 -7 -748 893 -739 914 13 28 16 98 5 119 -13 23
-44 -4 364 315 138 108 253 196 258 196 4 0 7 -12 7 -27z m-835 -563 c8 -36
58 -80 91 -80 13 0 24 -3 24 -7 1 -5 33 -265 73 -580 l72 -572 -27 -6 c-15 -4
-38 -15 -52 -26 l-24 -19 -979 386 c-538 212 -1008 397 -1045 411 -49 18 -68
30 -68 43 0 10 8 20 18 22 9 3 369 103 800 223 l783 218 23 -22 c29 -27 79
-28 106 -1 11 11 20 25 20 30 0 6 36 10 89 10 l89 0 7 -30z m548 -513 l364
-449 -23 -25 c-13 -14 -24 -36 -24 -48 0 -18 -37 -40 -255 -145 l-255 -124
-28 27 c-16 15 -33 27 -39 27 -6 0 -14 17 -17 38 -13 80 -136 1082 -136 1105
0 15 8 28 23 34 12 6 23 10 23 9 1 0 166 -203 367 -449z m-1443 -377 c558
-219 1022 -402 1031 -405 13 -5 15 -16 11 -50 -4 -41 -1 -48 31 -80 19 -19 43
-35 52 -35 14 0 15 -6 10 -32 -29 -132 -395 -1711 -397 -1714 -2 -2 -23 -4
-48 -6 l-43 -3 -854 1349 c-845 1335 -887 1405 -825 1381 10 -3 474 -186 1032
-405z m-824 -28 c139 -218 525 -828 859 -1355 l607 -958 -25 -25 c-31 -30 -41
-71 -33 -127 l6 -42 -72 -55 c-40 -31 -234 -179 -431 -329 l-358 -273 -22 20
c-39 35 -71 46 -133 45 l-61 0 -468 868 -467 868 38 33 c40 35 73 98 74 138 0
76 -52 159 -116 182 -23 8 -33 17 -30 28 5 16 89 366 242 1002 87 364 90 374
129 376 6 1 123 -178 261 -396z m-2542 -947 c47 -539 88 -999 90 -1022 4 -31
2 -43 -7 -43 -21 0 -65 -52 -74 -89 l-9 -33 -337 -115 -337 -115 -39 34 c-20
18 -45 38 -53 43 -14 9 -13 28 12 190 28 176 73 472 205 1340 119 783 130 849
133 833 2 -8 -4 -61 -13 -118 -8 -57 -15 -114 -15 -128 l0 -24 23 21 c61 56
88 80 95 83 4 2 22 21 40 43 18 22 68 76 110 120 l77 81 7 -61 c4 -33 45 -501
92 -1040z m-1270 663 c3 -73 16 -524 27 -1002 l22 -869 -27 -20 c-40 -29 -50
-61 -30 -103 l16 -33 -207 -408 c-113 -224 -211 -412 -216 -417 -5 -5 -11 -7
-15 -4 -4 5 376 2804 401 2956 12 67 23 28 29 -100z m40 100 c3 -18 91 -498
196 -1066 104 -568 190 -1035 190 -1037 0 -3 -6 -5 -14 -5 -8 0 -28 -13 -46
-30 l-31 -29 -103 51 c-79 39 -102 55 -103 72 -1 11 -15 32 -32 46 l-30 25 -6
160 c-5 141 -45 1738 -45 1815 0 40 16 38 24 -2z m6368 -9 c11 -19 34 -37 58
-46 23 -10 40 -23 40 -32 0 -9 29 -342 65 -739 36 -398 65 -735 65 -748 0 -20
-5 -24 -29 -24 -28 0 -42 23 -385 635 l-355 634 15 37 c9 20 13 46 10 58 -4
19 20 33 237 138 133 64 247 117 252 117 6 1 18 -13 27 -30z m-192 -968 c193
-343 350 -626 350 -630 0 -4 -12 -14 -26 -21 -38 -21 -76 -93 -79 -148 l-2
-46 -484 -178 c-266 -98 -488 -178 -493 -178 -4 0 -23 13 -41 29 -18 16 -38
30 -44 32 -6 3 66 334 191 877 l202 873 30 13 c17 8 34 10 39 6 4 -3 165 -287
357 -629z m-3008 374 c-37 -156 -51 -201 -64 -203 -15 -3 -17 9 -14 122 l4
124 46 65 c25 35 46 69 46 74 0 12 24 36 27 26 1 -4 -19 -98 -45 -208z m-154
-570 c23 -11 52 -15 90 -14 l57 3 467 -864 c257 -476 467 -870 468 -875 0 -16
-39 -37 -53 -28 -7 4 -364 299 -794 656 l-783 648 0 62 c0 45 -6 71 -21 96
-11 18 -19 35 -17 36 2 2 118 78 257 170 253 164 254 165 275 146 12 -10 36
-26 54 -36z m277 -1175 c402 -331 734 -606 739 -611 6 -5 1 -24 -13 -49 -37
-67 -28 -165 21 -217 l21 -22 -279 -348 c-154 -192 -437 -543 -628 -781 -268
-334 -352 -432 -364 -427 -10 4 -29 9 -44 12 -21 4 -31 15 -43 47 -8 22 -94
295 -190 604 l-174 564 21 28 c29 40 11 97 -34 112 -10 4 -16 130 -26 564 -11
519 -10 803 4 1015 l6 87 39 11 c24 7 52 28 76 55 l38 44 50 -43 c27 -23 379
-313 780 -645z m-10635 -120 c42 -124 124 -358 180 -520 56 -162 135 -389 175
-505 40 -115 109 -315 154 -442 l80 -233 -1044 0 c-575 0 -1045 3 -1045 6 0 4
8 21 19 38 10 17 79 148 153 291 152 291 676 1295 865 1655 68 129 145 276
170 327 l47 92 84 -242 c46 -133 119 -343 162 -467z m8604 474 c21 -30 48 26
-209 -439 -94 -170 -184 -333 -199 -360 l-27 -51 -192 -37 c-106 -21 -195 -38
-199 -37 -5 0 -8 121 -8 268 l0 268 33 12 c54 20 88 63 95 122 l7 52 330 113
c182 63 335 114 340 114 6 0 18 -11 29 -25z m61 -68 c-2 -11 -14 -157 -26
-323 l-22 -301 -31 -9 c-21 -6 -37 -20 -48 -43 l-18 -35 -162 -32 c-89 -18
-163 -32 -164 -30 -1 1 97 183 219 403 179 325 225 400 239 396 12 -3 16 -11
13 -26z m338 -512 c161 -322 265 -540 259 -546 -5 -5 -50 24 -113 73 -90 71
-103 84 -101 108 7 61 -58 99 -120 70 -19 -8 -41 -2 -133 39 -98 43 -110 51
-117 80 -5 17 -17 37 -28 45 -19 14 -19 16 5 313 14 164 25 309 25 321 0 19
12 28 45 32 6 0 131 -240 278 -535z m-103 259 c72 -142 134 -264 139 -272 7
-11 19 -7 60 22 28 21 57 38 64 40 6 1 17 9 24 17 7 8 13 11 13 6 0 -6 6 -3
13 5 15 19 121 99 130 99 4 0 15 7 25 15 45 41 105 85 109 82 2 -3 -31 -183
-74 -400 -69 -350 -80 -396 -97 -401 -11 -3 -21 -4 -22 -3 -8 9 -523 1047
-520 1047 3 0 64 -116 136 -257z m-1364 182 l97 -45 -6 -33 c-3 -18 1 -50 9
-72 16 -49 58 -4 -376 -399 -211 -192 -339 -301 -345 -295 -6 6 66 161 200
429 l210 420 32 0 c20 0 40 8 51 19 9 11 20 20 25 20 4 1 51 -19 103 -44z
m214 -522 c0 -150 -1 -273 -3 -273 -2 0 -82 -16 -178 -36 -96 -19 -271 -46
-389 -59 -200 -22 -216 -23 -228 -7 -7 9 -11 22 -10 29 2 7 164 159 361 336
l359 323 43 -20 44 -21 1 -272z m1874 -165 c3 -194 9 -410 13 -479 6 -124 5
-127 -16 -134 -17 -5 -38 9 -111 76 -81 73 -89 84 -83 108 16 60 -7 113 -59
139 -26 12 -26 12 -13 70 7 31 32 153 56 269 23 117 45 210 50 208 4 -3 9 -2
11 3 1 4 25 23 53 42 27 19 56 41 63 48 8 7 17 10 21 7 5 -2 11 -163 15 -357z
m-1129 3 c-146 -82 -653 -351 -663 -351 -7 0 -12 5 -12 10 0 6 -16 18 -35 27
-30 14 -35 21 -31 43 3 14 8 52 11 86 l7 61 366 75 c202 42 376 76 387 77 12
0 0 -11 -30 -28z m299 -31 c99 -42 106 -47 106 -73 0 -16 7 -41 16 -56 15 -26
15 -33 -10 -122 -68 -237 -65 -229 -91 -229 -14 0 -35 -10 -46 -21 l-21 -21
-446 60 c-244 34 -446 63 -448 64 -1 2 -4 16 -6 31 -3 26 8 33 347 216 307
166 352 187 366 175 23 -20 76 -17 97 5 21 23 8 26 136 -29z m-1049 -167 c-9
-94 -11 -98 -47 -108 -38 -12 -78 -65 -78 -104 l0 -26 -289 -61 -290 -60 49
55 c27 31 100 110 163 176 l114 119 174 37 c96 20 182 37 192 38 17 1 18 -5
12 -66z m1427 -70 l67 -53 -16 -31 c-17 -34 -12 -83 12 -109 13 -14 11 -23
-18 -78 -26 -50 -37 -62 -56 -62 -14 0 -34 -9 -46 -20 -21 -19 -21 -19 -118 8
-53 15 -97 32 -97 38 0 6 -10 23 -21 38 l-22 27 32 112 c18 62 39 136 47 165
14 46 19 52 42 52 15 0 34 5 42 10 15 10 25 3 152 -97z m-1874 18 c-18 -22
-89 -100 -158 -175 l-125 -134 -77 -1 -78 -1 0 99 0 99 35 21 c21 12 42 36 51
56 8 19 15 35 17 36 6 2 315 37 340 38 l29 1 -34 -39z m354 -257 c-4 -6 -65
-91 -137 -187 -100 -137 -132 -174 -142 -165 -7 6 -36 9 -67 6 l-54 -4 -105
130 c-59 72 -107 135 -107 141 -1 5 131 37 292 71 l293 61 17 -21 c9 -11 13
-26 10 -32z m590 6 c432 -58 499 -68 503 -72 1 -2 5 -14 8 -28 5 -21 -3 -32
-51 -74 -34 -28 -106 -115 -177 -211 l-120 -164 -42 6 c-32 4 -45 1 -61 -15
-11 -11 -21 -24 -23 -30 -3 -7 -143 11 -419 53 -228 36 -418 65 -422 65 -5 0
-8 10 -8 23 0 12 -7 33 -16 45 -15 21 -11 29 121 206 l136 184 39 -5 c48 -7
93 11 115 43 8 13 22 24 29 24 8 0 182 -23 388 -50z m1261 -53 c81 -75 87 -84
74 -101 -13 -17 -24 -18 -174 -11 l-161 7 -21 29 -22 30 31 55 c28 47 35 54
53 47 32 -11 77 -6 101 11 12 8 23 15 26 15 3 0 45 -37 93 -82z m-2462 -69
c19 -24 73 -89 119 -146 l84 -103 -17 -29 c-9 -15 -17 -40 -17 -55 0 -31 24
-81 44 -92 11 -6 -26 -84 -177 -365 -106 -197 -196 -356 -202 -355 -6 3 -11
212 -13 595 l-2 592 73 0 73 0 35 -42z m1778 -152 c-6 -133 -12 -172 -23 -178
-35 -19 -47 -41 -44 -77 2 -28 10 -40 35 -56 26 -16 32 -27 33 -55 0 -19 9
-147 19 -285 18 -244 17 -271 -11 -262 -10 3 -358 565 -358 578 0 23 312 454
331 457 13 2 19 11 19 29 0 15 2 24 4 22 2 -2 0 -80 -5 -173z m191 143 c64
-18 80 -26 80 -41 0 -31 17 -54 49 -67 24 -10 34 -10 59 3 17 9 32 21 34 28 3
9 20 7 69 -6 35 -10 71 -22 80 -27 9 -5 44 -47 78 -94 61 -85 61 -86 61 -156
0 -48 -17 -145 -55 -317 -31 -136 -58 -254 -61 -263 -2 -9 -18 -19 -35 -23
-19 -4 -36 -17 -49 -39 -19 -31 -26 -34 -177 -71 -87 -22 -160 -42 -163 -46
-7 -11 -91 -33 -97 -26 -3 3 15 10 41 17 25 6 46 16 46 21 0 5 -11 19 -24 31
l-24 23 219 468 c121 258 217 471 215 473 -3 3 -110 -49 -238 -115 -224 -116
-234 -120 -256 -104 -20 13 -25 14 -33 1 -15 -23 -11 -52 6 -45 46 19 50 19
30 3 -35 -28 -55 -22 -55 18 0 19 4 35 9 35 5 0 11 66 13 147 2 112 6 147 17
151 7 2 23 15 34 28 12 14 27 22 34 20 7 -3 48 -15 93 -27z m560 -66 c0 -9 11
-28 24 -42 l25 -26 -39 -135 c-38 -132 -38 -134 -39 -80 -1 51 -6 62 -61 140
-80 112 -84 115 -165 138 l-70 20 163 1 c146 1 162 -1 162 -16z m-892 -52 c11
-6 -14 -49 -105 -179 -69 -101 -125 -171 -134 -172 -19 0 -32 26 -22 43 20 34
236 317 242 317 3 0 12 -4 19 -9z m629 -78 c-361 -776 -396 -848 -416 -851
-12 -2 -21 0 -21 5 0 4 -9 134 -20 288 l-19 280 29 23 c22 18 30 32 30 56 0
32 2 34 223 149 122 64 223 117 224 117 1 0 -12 -30 -30 -67z m547 -531 c102
-329 186 -603 186 -609 0 -6 -12 -18 -26 -28 -29 -19 7 -38 -351 185 -168 104
-202 130 -207 152 -3 15 -14 35 -24 44 -19 16 -17 23 48 278 125 484 152 576
170 576 14 0 55 -120 204 -598z m-1999 308 c215 -33 395 -60 401 -60 6 0 18
-16 27 -35 9 -19 21 -35 27 -35 5 0 10 -6 10 -12 0 -7 -57 -169 -126 -359
l-126 -346 -36 -1 -37 -1 -298 425 c-291 415 -298 427 -287 455 8 19 20 29 34
29 12 0 197 -27 411 -60z m-171 -430 c163 -231 296 -422 296 -426 0 -3 -11
-19 -25 -36 -34 -40 -33 -87 2 -128 l26 -32 -34 -32 c-19 -18 -114 -108 -211
-200 -173 -164 -178 -167 -200 -152 -12 9 -30 16 -40 16 -9 0 -19 3 -21 8 -3
4 -34 319 -69 700 -54 597 -61 694 -48 702 8 5 17 7 21 4 4 -2 141 -193 303
-424z m-356 405 c1 -1 29 -290 62 -641 33 -352 62 -662 65 -691 l6 -52 -43
-19 c-52 -23 -66 -39 -83 -94 l-12 -43 -184 -41 -184 -41 -20 23 c-11 13 -32
28 -47 33 l-28 11 0 320 0 320 34 14 c75 31 88 136 24 187 -19 15 -14 26 173
372 174 324 194 357 213 351 11 -4 22 -8 24 -9z m1112 -54 c0 -14 -230 -854
-235 -859 -10 -10 -55 17 -87 53 l-35 40 127 348 c70 191 129 348 131 350 2 1
18 9 34 17 17 9 34 26 40 38 10 22 25 30 25 13z m199 -289 c168 -269 170 -274
154 -298 -8 -13 -18 -39 -22 -57 l-6 -32 -265 -87 c-145 -48 -266 -85 -269
-83 -2 3 47 194 110 424 63 231 117 417 121 413 4 -4 83 -130 177 -280z m731
-242 c-8 -5 -23 -10 -32 -10 -28 0 -30 -19 -4 -45 l24 -24 -71 -216 -72 -216
-29 3 c-31 3 -52 28 -192 230 -40 58 -45 70 -34 84 8 8 16 34 19 57 l6 41 160
39 c88 22 162 43 165 47 7 10 31 18 55 19 16 1 17 -1 5 -9z m350 -200 l256
-160 -1 -57 -2 -56 -258 -138 -258 -139 -28 17 -29 17 0 315 c0 312 0 314 23
336 12 13 26 23 31 24 5 1 124 -71 266 -159z m-330 -199 l0 -319 -22 -6 c-19
-4 -32 5 -69 47 -39 43 -45 56 -38 74 9 25 3 49 -19 75 -12 15 -6 41 58 232
39 119 76 216 81 216 5 0 9 -132 9 -319z m-595 202 l32 -37 -63 -194 c-34
-106 -64 -195 -66 -196 -1 -2 -19 -6 -39 -9 -34 -5 -47 3 -235 146 l-199 151
265 87 c146 48 267 88 269 88 2 1 18 -16 36 -36z m250 -175 c94 -131 101 -145
89 -163 -8 -11 -14 -27 -14 -36 0 -18 -22 -24 -278 -81 l-94 -20 -16 23 c-9
13 -16 26 -15 29 0 3 28 91 62 196 57 179 62 191 83 187 13 -2 34 0 48 5 14 5
27 8 29 6 2 -2 50 -68 106 -146z m-835 -201 l0 -233 -30 -22 c-23 -17 -30 -31
-30 -55 0 -31 -3 -34 -50 -49 l-50 -16 0 249 c0 222 2 249 16 249 23 0 84 64
84 89 0 17 6 21 30 21 l30 0 0 -233z m222 64 c178 -135 187 -143 178 -167 -5
-13 -9 -29 -7 -34 1 -6 -70 -42 -158 -80 -136 -60 -160 -68 -168 -54 -5 8 -20
19 -33 24 l-24 10 0 231 c0 184 3 229 13 222 6 -6 96 -74 199 -152z m-392
-192 l0 -252 -112 7 c-62 3 -161 9 -220 13 -91 5 -108 8 -108 22 0 9 -7 26
-15 38 -14 20 -10 25 73 105 248 240 336 318 358 318 l24 0 0 -251z m1999 170
c1 -4 -55 -178 -124 -387 -69 -209 -125 -384 -125 -390 0 -6 -20 -10 -44 -10
l-44 1 -132 231 c-108 189 -130 234 -121 248 6 10 11 31 11 47 0 28 11 35 262
169 l262 140 27 -21 c16 -12 28 -25 28 -28z m303 -276 c112 -164 207 -304 211
-310 5 -8 -3 -28 -20 -50 -27 -35 -35 -86 -22 -144 3 -9 -41 -56 -116 -122
-66 -59 -122 -107 -125 -107 -4 0 -41 228 -84 506 -65 421 -76 508 -65 515 8
5 15 9 16 9 1 0 93 -134 205 -297z m-168 -228 c44 -278 77 -507 75 -510 -3 -2
-92 20 -199 49 l-195 53 -8 36 c-5 19 -19 45 -31 56 l-23 22 131 399 c116 356
133 400 151 400 20 0 25 -26 99 -505z m-1044 415 c9 -18 -10 -46 -157 -227
l-167 -207 -44 139 c-43 135 -44 141 -28 168 9 16 16 36 16 46 0 14 33 24 178
58 97 22 180 41 184 42 4 0 12 -8 18 -19z m167 -72 c36 -36 44 -50 36 -60 -6
-7 -13 -25 -15 -41 -3 -25 -21 -36 -237 -137 -129 -61 -236 -109 -238 -106 -2
2 67 91 153 197 l156 194 49 0 c45 -1 54 -5 96 -47z m-625 -77 c32 -7 33 -10
75 -136 23 -72 42 -135 42 -141 1 -7 -104 19 -249 60 -238 68 -250 72 -248 94
3 19 27 34 158 91 139 61 157 66 172 53 9 -8 32 -17 50 -21z m686 -90 c13 -7
34 -10 47 -7 20 5 34 -15 155 -225 l132 -230 -25 -23 -25 -23 -326 136 c-179
75 -326 138 -326 141 0 3 73 56 161 119 88 62 158 116 155 118 -2 3 -109 -70
-236 -162 -128 -91 -239 -165 -249 -163 -10 2 -17 15 -19 33 -7 67 -1 72 254
191 131 61 248 111 259 110 11 -2 31 -8 43 -15z m-1184 -86 c26 -19 70 -19 86
0 7 8 20 15 29 15 16 0 502 -137 506 -142 1 -2 0 -22 -3 -45 -3 -36 -8 -43
-26 -43 -12 0 -31 -7 -43 -15 -20 -14 -42 -8 -315 91 -161 59 -304 111 -318
116 l-25 10 35 13 c45 17 51 17 74 0z m-293 -11 l156 -7 6 -111 c4 -61 10
-191 13 -288 7 -171 6 -178 -12 -178 -11 0 -36 -9 -56 -20 l-37 -20 -184 258
c-101 141 -187 262 -190 269 -4 6 -1 27 7 45 8 18 17 41 20 52 6 16 13 18 64
13 31 -4 127 -9 213 -13z m-530 -51 c13 -21 42 -47 65 -58 l40 -20 -47 -485
c-26 -267 -49 -496 -51 -510 -9 -72 -34 -28 -241 427 -114 252 -207 464 -207
471 0 6 4 12 10 12 14 0 33 40 39 84 l6 40 165 37 c91 20 172 37 181 38 9 0
27 -16 40 -36z m1028 -79 l319 -116 4 -39 3 -38 -224 -173 c-124 -95 -228
-174 -233 -176 -4 -2 -23 13 -43 32 -21 21 -54 41 -83 49 l-47 14 -7 184 c-3
101 -9 228 -12 282 -3 53 -3 97 -1 97 3 0 148 -52 324 -116z m-648 -206 c95
-134 181 -255 192 -269 18 -26 18 -26 -6 -63 -43 -62 -45 -117 -10 -194 9 -18
14 -34 12 -36 -2 -2 -116 -67 -252 -146 -246 -141 -248 -142 -270 -124 -12 10
-23 19 -25 20 -3 2 83 905 93 981 5 36 10 42 35 48 17 4 32 11 35 16 4 5 10 9
15 9 4 0 86 -109 181 -242z m1574 54 l330 -139 -3 -31 c-2 -18 4 -46 12 -64 9
-17 13 -35 9 -38 -5 -4 -127 -116 -273 -250 -275 -252 -345 -318 -320 -304 27
15 594 543 638 594 24 28 48 48 53 44 12 -7 12 -89 0 -112 -5 -9 -21 -264 -35
-566 -22 -472 -28 -551 -41 -559 -13 -7 -14 -11 -3 -24 11 -14 13 -13 19 8 l7
24 1 -26 c1 -35 -9 -42 -30 -23 -19 17 -39 11 -39 -12 0 -8 -3 -14 -7 -14 -5
0 -104 -13 -220 -28 l-213 -28 -20 23 c-11 13 -34 26 -50 30 -17 3 -30 9 -30
14 0 4 -18 121 -40 260 -37 236 -38 253 -22 265 16 12 15 14 -5 36 -28 30 -29
54 -3 70 27 17 25 28 -5 28 -17 0 -28 7 -34 23 -4 12 -45 181 -91 376 -78 339
-81 356 -66 382 9 15 16 40 16 56 0 24 11 37 63 75 34 26 64 47 67 47 3 1 154
-61 335 -137z m-2202 -410 l208 -457 -18 -37 -18 -37 -207 -1 -208 0 0 495 c0
465 1 495 18 495 13 0 66 -109 225 -458z m1635 350 c9 -6 -34 -146 -175 -561
-170 -502 -188 -552 -207 -549 -17 2 -38 48 -119 253 -59 151 -94 251 -87 253
25 9 72 57 91 95 16 31 20 54 17 103 l-3 63 225 175 c124 96 230 175 235 175
6 0 16 -3 23 -7z m146 -386 l87 -369 -21 -22 c-11 -12 -20 -34 -20 -51 -1 -28
-13 -36 -240 -162 -132 -74 -248 -136 -258 -139 -53 -13 -48 7 143 567 101
299 190 547 197 551 7 5 16 5 19 1 4 -4 46 -173 93 -376z m1316 -285 c-194
-336 -354 -610 -356 -608 -2 2 91 228 206 503 233 552 204 501 380 658 79 70
97 82 109 71 11 -11 -42 -110 -339 -624z m970 53 c239 -305 443 -566 453 -579
18 -24 18 -26 -3 -60 -35 -57 -22 -156 25 -182 11 -7 -95 -213 -514 -998 -290
-545 -532 -1000 -539 -1011 -8 -16 -18 -20 -38 -16 l-27 5 6 166 c3 91 27 834
52 1651 26 817 48 1499 51 1515 3 25 12 33 47 47 23 8 44 16 47 16 3 1 201
-248 440 -554z m-574 534 l27 -13 -7 -240 c-4 -132 -27 -868 -51 -1635 -25
-767 -45 -1414 -45 -1437 0 -38 -3 -43 -27 -49 -107 -22 -173 -98 -173 -195 0
-16 -4 -29 -8 -29 -4 0 -208 -42 -452 -94 l-443 -94 -20 25 c-11 14 -35 32
-54 39 -18 8 -33 18 -33 22 -1 4 39 368 87 808 l88 801 27 16 c36 20 46 62 25
99 -16 28 -15 32 77 251 52 122 112 263 134 312 30 68 706 1256 798 1403 17
26 15 26 50 10z m-534 -129 c100 -27 184 -52 186 -54 2 -2 -91 -228 -207 -504
-132 -311 -209 -506 -205 -518 4 -12 3 -14 -3 -5 -7 8 -16 -5 -33 -45 -13 -32
-24 -59 -26 -61 -1 -2 -12 6 -23 17 -12 12 -28 21 -37 21 -15 0 -16 10 -11 83
4 45 16 285 27 532 12 248 23 464 26 480 3 20 14 36 34 47 17 9 35 29 42 43 8
18 17 24 29 20 10 -4 101 -29 201 -56z m-2104 -368 c41 -28 99 -44 137 -37
l33 7 100 -253 c92 -232 99 -254 84 -270 -8 -10 -20 -18 -26 -18 -9 0 -402
114 -798 231 -58 17 -68 23 -68 42 0 19 41 47 253 169 138 81 254 147 255 147
2 1 16 -7 30 -18z m1004 -308 c18 -10 34 -18 35 -19 1 0 21 -118 44 -263 l42
-263 -21 -20 -20 -21 -299 131 c-294 129 -298 131 -305 164 -4 18 -4 34 0 36
4 2 113 63 242 137 129 73 238 134 242 134 3 1 21 -7 40 -16z m-1682 -13 c0
-20 41 -50 69 -50 15 0 39 8 52 19 24 19 26 18 457 -108 339 -99 432 -129 432
-142 0 -9 9 -28 21 -43 24 -31 72 -35 101 -10 17 16 37 9 323 -116 278 -121
305 -135 305 -157 0 -35 45 -76 76 -70 22 4 32 -5 75 -70 28 -41 49 -77 46
-79 -4 -4 -66 71 -103 124 -1 2 -154 56 -340 121 -258 89 -442 144 -767 231
l-428 114 -14 33 c-18 44 -54 60 -94 43 -17 -7 -33 -21 -36 -31 -6 -18 -20
-19 -270 -19 l-263 0 -31 29 c-30 28 -31 32 -31 110 l0 81 210 0 c133 0 210
-4 210 -10z m5453 -195 c62 -40 153 -22 186 37 11 20 22 28 36 25 18 -3 2809
-1023 2883 -1053 23 -9 32 -19 32 -36 0 -13 9 -41 20 -63 11 -22 20 -42 20
-45 0 -3 -51 -52 -112 -109 -62 -57 -142 -131 -178 -165 -36 -33 -110 -102
-165 -153 -55 -50 -114 -104 -130 -120 -17 -15 -60 -55 -95 -87 -36 -33 -117
-107 -180 -166 -180 -168 -170 -161 -203 -143 -23 11 -35 12 -62 3 -35 -11
-38 -10 -1479 881 l-1445 892 3 56 3 56 404 132 403 131 18 -28 c9 -16 28 -36
41 -45z m-6545 -57 c-42 -184 -180 -860 -176 -863 2 -1 32 30 68 69 36 39 108
119 160 176 52 58 120 132 151 165 30 33 75 82 100 110 24 27 73 81 109 120
36 38 90 99 121 134 l56 63 27 -17 26 -17 0 -378 0 -379 -52 -5 c-29 -4 -186
-18 -348 -31 -162 -14 -327 -28 -366 -32 l-71 -6 -304 136 c-167 74 -393 176
-502 226 l-198 90 -157 -93 c-233 -139 -564 -327 -567 -324 -3 3 295 392 321
418 12 12 47 14 212 12 l197 -4 115 110 115 110 195 51 c385 103 646 173 690
186 25 8 55 14 66 14 21 1 21 -2 12 -41z m1263 2 c7 -20 22 -33 45 -42 19 -6
34 -15 34 -19 0 -3 34 -170 75 -369 41 -200 74 -364 73 -366 -2 -1 -17 -4 -34
-6 -29 -3 -49 17 -349 347 -175 193 -333 366 -352 386 -30 32 -34 41 -28 68
l7 31 259 0 260 0 10 -30z m578 -111 c229 -61 421 -114 427 -118 6 -3 58 -50
114 -104 80 -75 101 -100 92 -109 -7 -7 -12 -22 -12 -33 0 -23 35 -6 -592
-287 l-267 -120 -38 40 c-21 21 -43 41 -50 43 -7 2 -44 158 -88 375 l-77 371
24 26 c12 14 29 25 37 26 8 1 201 -49 430 -110z m-772 -319 c303 -332 349
-387 338 -400 -8 -8 -18 -27 -24 -43 -13 -34 8 -34 -389 2 -235 21 -316 32
-323 42 -5 8 -9 184 -9 391 0 349 1 378 18 387 9 6 22 10 28 8 6 -1 168 -175
361 -387z m1519 94 c154 -53 285 -100 293 -104 7 -4 -51 -10 -130 -13 -143 -5
-143 -5 -166 20 -19 20 -31 24 -62 21 -36 -3 -43 2 -130 85 -51 48 -90 87 -88
87 3 0 130 -43 283 -96z m3882 -416 c438 -271 1087 -671 1441 -890 l644 -398
2 -48 2 -48 -259 -169 c-142 -94 -327 -215 -411 -270 -127 -84 -976 -638
-1043 -682 -19 -12 -26 -11 -58 11 -74 50 -143 42 -195 -21 l-30 -36 -1028
371 -1028 370 3 50 c5 63 -24 131 -67 163 -17 12 -31 28 -31 33 0 6 240 461
534 1011 370 695 538 999 547 996 41 -13 100 -3 131 22 18 14 37 26 41 27 4 0
367 -221 805 -492z m-2958 446 c-14 -37 -13 -44 11 -44 13 0 19 -5 16 -12 -61
-150 -181 -427 -183 -425 -2 2 28 97 66 212 73 218 75 225 62 225 -4 0 -27
-62 -50 -137 -132 -421 -121 -391 -143 -386 -11 3 -52 52 -91 109 -39 57 -74
101 -79 99 -4 -3 -11 0 -15 6 -4 8 -3 9 4 5 23 -14 11 7 -69 121 -44 64 -76
119 -71 122 5 3 16 20 25 36 l15 30 189 24 c103 12 199 25 214 28 20 4 27 -1
37 -21 15 -34 29 -33 37 4 4 17 13 30 21 30 10 0 11 -6 4 -26z m-501 -249 c40
-52 75 -95 78 -95 6 0 -16 38 -27 45 -6 3 -10 12 -10 18 1 7 12 -1 25 -18 14
-17 22 -37 19 -47 -5 -16 10 -32 31 -33 6 -1 9 -7 7 -13 -1 -7 27 -51 64 -97
36 -47 60 -85 54 -85 -6 0 -42 18 -80 41 -59 35 -69 45 -72 71 -2 20 -13 38
-31 52 -24 18 -31 19 -62 7 -35 -12 -37 -12 -220 96 -202 118 -222 139 -137
146 26 2 101 4 167 5 l120 2 74 -95z m-530 26 c10 -10 23 -20 29 -22 6 -3 4
-112 -9 -329 -10 -179 -18 -341 -19 -360 0 -28 -6 -38 -30 -52 -18 -10 -32
-29 -37 -48 -8 -29 -18 -36 -162 -96 -85 -35 -160 -64 -166 -64 -7 0 -20 9
-30 20 -25 27 -83 42 -123 31 l-32 -10 -165 240 -166 239 15 42 14 43 368 165
c203 92 394 178 424 192 68 32 66 32 89 9z m306 -97 l182 -106 -6 -36 c-6 -32
-14 -41 -73 -75 -57 -32 -70 -36 -89 -27 -12 7 -31 10 -44 8 -20 -4 -30 12
-103 157 -60 121 -78 165 -69 174 6 6 13 11 16 11 3 0 87 -48 186 -106z m-141
-82 c70 -141 77 -161 66 -181 -6 -13 -10 -40 -7 -60 4 -32 -6 -52 -91 -183
-89 -138 -122 -173 -122 -130 0 37 30 591 36 650 9 101 27 87 118 -96z m382
-142 c15 0 18 -13 45 -213 l21 -157 -59 -88 c-33 -48 -113 -166 -178 -262 -65
-96 -120 -177 -121 -178 -1 -2 -11 -1 -21 2 -18 6 -17 19 11 371 l30 364 28 7
c38 8 62 46 55 87 -5 31 -3 33 61 68 66 36 67 37 91 18 13 -11 29 -19 37 -19z
m136 4 c35 -21 65 -38 67 -40 2 -2 -2 -17 -9 -33 -9 -24 -9 -35 2 -58 13 -27
12 -32 -51 -126 -35 -53 -66 -95 -68 -93 -2 2 -15 81 -28 176 l-25 172 23 19
c12 10 23 18 24 19 1 0 30 -16 65 -36z m-2122 -39 c168 -14 311 -27 318 -28 8
-1 20 -16 27 -34 l14 -32 -317 -162 c-253 -129 -319 -159 -332 -150 -8 6 -30
19 -47 28 l-33 17 0 198 0 199 33 -5 c17 -3 169 -17 337 -31z m440 -118 c25 0
54 3 65 6 17 6 43 -26 182 -229 l162 -236 -27 -34 c-15 -19 -36 -34 -47 -34
-21 0 -1028 150 -1032 154 -1 1 -4 17 -5 34 l-3 32 310 160 c220 113 316 158
330 153 11 -3 40 -6 65 -6z m1236 -349 c-15 -189 -29 -353 -32 -365 -2 -13
-12 -23 -22 -23 -13 0 -33 40 -81 159 l-64 159 21 27 c26 33 27 37 6 81 l-16
34 97 146 c71 108 99 144 108 135 8 -8 4 -100 -17 -353z m553 333 c13 -8 2
-125 -74 -815 l-90 -805 -32 -6 c-32 -6 -86 -48 -94 -74 -4 -12 -26 -12 -145
-2 -191 17 -201 19 -208 45 -9 35 -46 77 -82 92 -30 13 -32 16 -24 46 5 18 41
170 81 338 39 168 73 308 76 313 2 4 12 7 22 7 33 0 53 34 49 83 -3 44 2 53
247 415 138 204 252 371 255 371 3 1 11 -3 19 -8z m-849 -371 c0 -12 61 -41
72 -34 10 6 19 -14 88 -182 54 -133 59 -149 45 -164 -23 -26 -18 -68 11 -95
l26 -25 -77 -332 c-49 -208 -84 -338 -93 -345 -9 -7 -25 -13 -37 -13 -19 0
-48 58 -218 433 -109 237 -197 436 -197 441 0 6 12 23 28 39 24 25 27 36 27
92 l0 63 155 65 c169 72 170 72 170 57z m-1088 -81 l498 -74 0 -29 c0 -16 10
-49 21 -73 l21 -44 -332 -499 c-298 -448 -336 -500 -359 -500 -26 0 -32 16
-247 591 l-220 591 28 28 c16 16 31 43 35 60 5 28 9 31 32 28 14 -2 250 -38
523 -79z m-500 -382 c70 -188 168 -453 219 -588 l91 -247 -22 -30 c-24 -32
-23 -68 4 -95 12 -11 -20 -102 -218 -623 l-231 -609 -3 1255 c-1 690 0 1261 3
1268 15 39 39 -13 157 -331z m1158 140 l36 5 197 -434 c108 -238 197 -438 197
-444 0 -6 -11 -21 -24 -33 -13 -13 -27 -33 -30 -46 -8 -30 1 -29 -624 -56
-482 -21 -493 -21 -507 -3 -8 11 -14 24 -12 30 1 6 150 233 330 506 l329 495
36 -13 c21 -7 53 -10 72 -7z m2160 -857 c18 -43 83 -98 125 -106 20 -3 55 -4
78 -1 l42 6 378 -688 377 -688 -14 -33 c-10 -24 -11 -42 -5 -59 7 -17 6 -28
-3 -36 -7 -7 -191 -160 -408 -341 -217 -181 -485 -404 -595 -496 -161 -134
-202 -165 -216 -157 -10 5 -29 9 -44 9 -17 0 -29 7 -35 23 -5 12 -132 425
-281 917 -149 492 -300 990 -335 1105 -45 149 -60 211 -51 214 44 15 87 105
72 151 -5 15 0 21 17 25 74 19 847 183 864 184 15 1 25 -8 34 -29z m1375 -371
c567 -204 1030 -371 1031 -372 1 -1 4 -25 8 -53 l6 -51 -60 -32 c-33 -18 -60
-29 -60 -24 0 4 -4 3 -8 -3 -4 -6 -59 -37 -122 -69 -194 -98 -594 -302 -816
-416 -116 -60 -214 -106 -218 -102 -3 3 -6 1 -6 -6 0 -8 -12 -5 -35 9 -21 13
-46 20 -59 18 -22 -4 -51 46 -392 665 -203 368 -373 678 -378 688 -7 15 0 27
33 59 22 22 41 44 41 50 0 5 1 10 3 10 2 0 466 -167 1032 -371z m-3159 194
c14 -57 28 -35 -169 -257 -139 -157 -156 -171 -605 -533 -254 -205 -468 -373
-477 -373 -9 0 -18 7 -21 14 -5 13 55 830 72 999 6 49 10 59 33 70 14 6 33 27
41 44 14 31 18 33 75 34 45 0 861 39 1015 48 22 1 27 -5 36 -46z m467 16 l137
-13 0 -41 c0 -22 7 -50 15 -62 14 -19 0 -39 -256 -364 -264 -336 -272 -344
-311 -350 -36 -5 -60 -23 -70 -50 -2 -4 -268 -78 -593 -164 -324 -85 -595
-158 -602 -160 -51 -18 37 59 450 393 l472 381 159 181 c148 169 159 180 176
165 70 -63 198 -18 217 77 5 27 9 29 37 24 17 -3 93 -11 169 -17z m-1715 -637
c-37 -470 -44 -532 -58 -532 -20 0 -45 -26 -58 -61 -9 -21 -32 -33 -157 -78
-107 -40 -149 -51 -157 -43 -8 8 48 167 212 599 258 681 249 658 255 651 3 -3
-14 -244 -37 -536z m1910 476 c7 -7 36 -15 64 -18 l51 -5 339 -1115 c186 -613
336 -1121 333 -1128 -3 -8 -9 -12 -15 -10 -5 2 -302 340 -660 753 -554 639
-650 754 -650 780 0 17 -6 39 -13 50 -13 18 8 48 256 363 149 188 273 342 277
342 3 0 12 -6 18 -12z m-674 -764 c4 -14 3 -31 -2 -37 -5 -7 -373 -500 -817
-1097 -444 -597 -816 -1094 -826 -1104 -29 -31 -33 -13 -16 71 57 281 368
1760 372 1771 2 6 13 12 23 12 26 0 56 36 58 67 1 26 7 28 590 183 324 87 594
158 600 159 7 0 15 -11 18 -25z m-1324 -368 l23 -25 -31 -148 c-161 -776 -343
-1640 -346 -1648 -3 -5 -5 366 -5 826 -1 732 1 838 14 849 8 7 15 25 15 40 0
25 7 29 138 78 75 28 144 51 153 51 8 1 26 -10 39 -23z m273 -2113 l547 -128
0 -40 c1 -54 30 -115 73 -151 l36 -29 -626 -1011 c-519 -838 -629 -1011 -644
-1007 -18 5 -19 45 -19 1221 l0 1216 33 27 c17 16 37 28 42 29 6 0 256 -57
558 -127z"/>
<path d="M26677 30483 c-22 -79 -22 -76 12 -68 19 4 30 2 33 -7 3 -7 74 -389
158 -848 85 -459 155 -837 157 -839 11 -16 4 33 -38 259 -26 140 -95 516 -153
835 -59 319 -111 589 -117 601 -6 11 -16 45 -22 74 l-12 55 -18 -62z"/>
<path d="M23714 38166 c-30 -30 -34 -40 -34 -86 0 -46 4 -56 34 -86 30 -30 40
-34 86 -34 46 0 56 4 86 34 30 30 34 40 34 86 0 46 -4 56 -34 86 -30 30 -40
34 -86 34 -46 0 -56 -4 -86 -34z"/>
<path d="M37465 37116 c-45 -20 -67 -50 -72 -99 -10 -87 48 -144 136 -134 81
9 130 93 98 170 -26 60 -102 90 -162 63z"/>
<path d="M32535 35916 c-42 -18 -92 -73 -106 -114 -6 -19 -9 -59 -7 -88 6 -66
43 -118 109 -152 44 -23 52 -24 166 -10 19 3 119 -139 727 -1041 l706 -1043
-20 -26 c-27 -33 -27 -110 -1 -144 l20 -24 -475 -691 -475 -691 -34 14 c-101
42 -227 -23 -254 -130 -26 -103 21 -195 118 -236 19 -7 30 -18 27 -26 -3 -7
-10 -59 -17 -116 -6 -57 -56 -404 -110 -773 -55 -368 -98 -677 -95 -685 2 -10
4 -8 5 5 2 27 208 1378 226 1485 8 47 15 88 15 91 0 4 20 9 45 11 81 10 165
90 165 158 0 20 2 20 733 20 404 0 802 -3 884 -7 l151 -6 -19 -21 c-62 -66
-18 -184 75 -201 78 -15 156 62 142 140 -9 47 -47 89 -94 103 -29 9 -282 12
-954 12 l-915 0 -7 40 c-3 23 -19 54 -36 73 l-30 34 473 689 473 688 57 -3
c54 -2 60 0 92 32 31 31 35 41 35 87 0 46 -4 56 -35 87 -33 33 -38 35 -91 31
l-55 -3 -702 1039 c-386 572 -704 1043 -706 1048 -2 5 6 19 17 31 91 97 55
259 -70 312 -45 18 -112 19 -153 1z"/>
<path d="M35039 34785 c-29 -15 -59 -70 -59 -105 0 -36 31 -90 61 -105 61 -32
146 -10 174 45 30 57 8 137 -44 164 -37 20 -97 20 -132 1z"/>
<path d="M32389 32705 c-28 -15 -59 -70 -59 -104 0 -69 55 -121 127 -121 87 0
140 75 114 160 -21 70 -113 103 -182 65z"/>
<path d="M18985 32149 c-55 -22 -170 -66 -255 -99 -85 -32 -297 -113 -470
-180 -173 -67 -367 -141 -430 -165 -63 -24 -191 -74 -285 -110 -93 -37 -213
-82 -265 -101 -52 -19 -98 -38 -103 -43 -7 -7 101 -142 618 -766 114 -137 370
-447 568 -688 284 -344 363 -434 369 -420 4 10 41 257 83 548 41 292 91 638
110 770 20 132 44 303 55 380 11 77 42 295 70 485 28 190 53 364 57 388 7 52
8 52 -122 1z"/>
<path d="M36568 31994 c-48 -26 -75 -112 -48 -154 7 -12 16 -9 50 19 22 18 45
31 51 29 6 -2 -10 -18 -36 -37 -52 -37 -49 -53 12 -70 47 -13 108 11 128 50
20 37 19 99 -1 127 -34 48 -104 65 -156 36z"/>
<path d="M35226 30833 c-713 -542 -1294 -988 -1292 -990 4 -4 2552 1931 2586
1963 8 8 12 14 8 14 -3 0 -589 -444 -1302 -987z"/>
<path d="M26790 31381 c0 -3 267 -274 593 -602 325 -328 522 -524 437 -435
-224 233 -1030 1044 -1030 1037z"/>
<path d="M30750 30809 c-27 -11 -70 -48 -70 -60 0 -4 25 -13 55 -20 31 -7 58
-16 61 -20 2 -4 -20 -21 -50 -39 -61 -35 -64 -49 -11 -74 41 -20 68 -20 105
-1 42 22 60 53 60 106 0 40 -5 53 -31 78 -17 17 -36 31 -42 31 -7 0 -21 2 -32
5 -11 2 -31 0 -45 -6z"/>
<path d="M32726 29918 c-81 -22 -146 -125 -129 -210 7 -38 30 -88 41 -88 4 1
37 29 73 63 l66 62 12 78 c17 120 19 116 -63 95z"/>
<path d="M32815 29898 c-3 -13 -10 -54 -15 -93 -11 -70 -11 -70 -83 -136 l-72
-66 35 -22 c99 -60 221 -27 270 74 43 89 12 194 -74 246 -41 25 -54 24 -61 -3z"/>
<path d="M33785 29876 c-50 -22 -70 -52 -70 -106 0 -40 5 -54 29 -79 26 -27
72 -48 83 -37 2 2 -5 23 -17 46 -12 23 -20 43 -18 44 71 51 127 100 122 108
-8 12 -68 38 -86 38 -7 -1 -26 -7 -43 -14z"/>
<path d="M33880 29793 c-75 -57 -74 -56 -54 -94 10 -19 19 -41 20 -49 1 -8
182 -338 402 -733 l401 -718 -25 -36 c-14 -22 -24 -50 -24 -72 0 -59 11 -64
58 -25 l42 35 -22 42 c-12 23 -21 45 -20 50 2 6 -749 1362 -794 1434 -13 21
-12 24 16 38 16 8 37 27 46 41 18 26 23 100 8 114 -5 4 -29 -7 -54 -27z"/>
<path d="M38604 29750 c-33 -13 -64 -59 -64 -95 l0 -32 -82 -15 c-46 -9 -225
-39 -398 -69 -173 -29 -318 -57 -321 -61 -3 -5 -30 -11 -60 -13 -39 -3 -47 -2
-29 4 14 5 37 9 53 10 34 1 34 11 1 42 -20 19 -37 24 -75 24 -41 0 -53 -5 -79
-30 -18 -19 -33 -46 -37 -68 -7 -45 6 -48 59 -12 39 26 48 30 48 18 0 -5 -23
-21 -50 -36 -43 -24 -49 -31 -40 -47 13 -24 50 -50 72 -50 9 0 19 -3 21 -7 3
-5 8 -109 12 -233 l7 -225 -35 -13 c-39 -14 -61 -42 -74 -93 l-9 -34 -565 -47
c-310 -26 -580 -47 -599 -48 -19 -1 -29 -4 -22 -7 18 -7 1162 86 1187 97 33
14 115 21 115 10 0 -6 -20 -10 -44 -10 -54 0 -60 -8 -40 -49 31 -62 151 -65
192 -4 9 15 19 52 22 83 3 35 10 55 18 55 7 0 16 5 20 10 4 6 50 42 102 80
174 127 383 308 546 471 157 157 162 161 210 167 57 6 99 45 109 101 17 87
-84 161 -171 126z m86 -112 c0 -7 -18 -33 -41 -58 l-41 -45 38 48 38 49 -49
-8 c-27 -4 -60 -10 -74 -13 l-24 -7 33 -37 32 -37 -173 -173 c-96 -95 -219
-210 -274 -256 -105 -87 -372 -290 -392 -298 -6 -3 -21 5 -33 17 -11 11 -33
23 -49 26 l-28 6 -6 156 c-4 87 -7 191 -7 232 l0 76 32 9 c43 14 72 55 73 108
l1 42 385 66 c212 36 394 69 405 74 18 8 113 31 142 34 6 0 12 -5 12 -11z"/>
<path d="M20955 29105 c1 -316 3 -577 6 -580 9 -9 19 395 19 787 0 288 -3 368
-12 368 -10 0 -13 -121 -13 -575z"/>
<path d="M31988 29034 c-594 -532 -736 -661 -683 -623 22 16 1252 1114 1305
1165 19 19 32 34 28 34 -4 0 -296 -259 -650 -576z"/>
<path d="M36911 29029 c-321 -197 -589 -364 -595 -370 -6 -7 5 -3 24 8 98 58
1156 706 1165 714 32 31 -71 -30 -594 -352z"/>
<path d="M36134 28656 c-40 -40 -47 -82 -11 -72 12 4 36 9 52 12 l30 5 -40
-36 c-22 -21 -49 -41 -60 -45 -19 -8 -819 -670 -860 -712 -51 -52 40 21 432
349 232 194 425 353 429 353 4 0 18 -9 30 -21 30 -28 92 -35 132 -15 35 18 62
62 62 101 0 23 -3 25 -49 25 -28 0 -52 3 -55 8 -2 4 14 16 36 27 l40 19 -22
18 c-14 11 -39 18 -67 18 -38 0 -50 -5 -79 -34z"/>
<path d="M36148 28574 c-4 -3 -22 -7 -41 -8 -40 -3 -1286 -418 -1271 -423 6
-2 291 91 634 207 343 115 624 210 626 210 1 0 4 -6 6 -14 2 -11 10 -9 33 10
17 13 27 24 24 24 -3 0 -8 -3 -11 -6z"/>
<path d="M34682 28201 c-11 -6 -8 -18 10 -56 l23 -47 -42 -37 c-48 -40 -51
-51 -25 -67 38 -24 81 -26 120 -6 l38 20 120 -109 c65 -60 118 -115 118 -122
-1 -6 -5 -24 -9 -39 l-7 -28 48 5 c43 4 45 4 19 -5 -16 -6 -43 -11 -60 -12
-16 0 -151 -24 -300 -53 -148 -30 -346 -65 -440 -80 -177 -28 -201 -33 -194
-39 6 -7 439 68 691 118 125 25 230 46 233 46 3 0 5 -7 5 -16 0 -9 15 -31 34
-50 28 -28 42 -34 75 -34 98 0 157 82 119 165 -14 31 -23 31 -60 0 -17 -14
-33 -24 -36 -21 -2 3 10 17 27 31 39 33 39 39 1 55 -35 14 -86 7 -111 -16 -16
-15 -27 -8 -143 101 -107 100 -124 119 -116 135 9 18 14 90 6 90 -2 0 -23 -7
-46 -15 -48 -17 -64 -19 -56 -6 3 4 26 14 50 21 41 11 44 14 35 32 -18 34 -97
59 -127 39z"/>
<path d="M33398 28054 c-29 -15 -58 -61 -58 -90 0 -14 7 -16 44 -11 40 6 48 3
101 -39 53 -41 59 -43 70 -27 35 51 22 121 -30 161 -32 26 -87 28 -127 6z"/>
<path d="M21061 27953 c6 -16 107 -293 225 -617 118 -324 216 -592 219 -594
23 -23 6 25 -396 1126 -23 61 -45 112 -50 112 -5 0 -4 -12 2 -27z"/>
<path d="M32349 27935 c-49 -27 -43 -41 27 -66 35 -12 64 -29 64 -36 0 -7 -23
-30 -51 -50 -51 -36 -51 -36 -27 -49 31 -18 73 -17 108 1 29 15 60 60 60 88 0
18 -15 15 439 68 355 42 365 42 375 24 29 -51 64 -75 108 -75 73 0 80 14 28
60 -43 38 -48 39 -115 39 -38 -1 -241 -21 -449 -45 -388 -45 -395 -45 -396 -7
0 6 -14 23 -31 37 -35 30 -97 35 -140 11z"/>
<path d="M32104 27589 c-287 -212 -253 -192 -299 -173 -73 30 -151 -16 -162
-95 -5 -33 -10 -41 -27 -42 -19 -1 -19 -2 -2 -6 10 -3 35 -23 56 -44 33 -35
42 -39 88 -39 62 0 108 33 118 85 7 41 -17 37 389 60 518 30 1396 114 1578
151 23 5 27 2 27 -18 1 -51 54 -88 125 -88 38 0 52 5 75 29 31 30 46 71 36 97
-5 12 -15 14 -50 9 -67 -10 -75 2 -30 41 32 28 36 35 24 44 -27 18 -77 22
-106 8 -39 -19 -39 -32 1 -59 19 -13 35 -29 35 -35 0 -11 -52 -24 -95 -24 -37
0 7 20 45 20 l35 1 -35 30 c-32 27 -36 28 -47 12 -7 -9 -13 -25 -13 -34 0 -21
-3 -22 -260 -54 -416 -51 -835 -88 -1485 -132 -305 -20 -400 -23 -389 -14 41
34 94 71 104 71 17 0 505 359 489 360 -3 0 -104 -73 -225 -161z"/>
<path d="M30880 27331 l-12 -50 -66 -3 c-59 -3 -67 -5 -70 -24 -4 -29 41 -80
83 -94 46 -15 96 1 131 43 22 26 25 38 21 75 -5 47 -34 95 -59 100 -11 2 -19
-11 -28 -47z"/>
<path d="M16645 24494 c-33 -14 -141 -56 -240 -94 -99 -37 -255 -98 -347 -134
l-167 -65 -183 91 c-101 49 -192 94 -203 98 -11 4 -126 3 -255 -2 -273 -11
-248 0 -312 -136 -83 -175 -90 -348 -21 -522 98 -247 325 -412 588 -427 119
-7 212 14 333 73 160 78 282 220 340 397 17 51 17 54 -1 85 l-19 32 281 315
c154 173 277 315 273 315 -4 -1 -34 -12 -67 -26z m-818 -326 c37 -39 53 -76
53 -125 0 -73 -65 -163 -108 -148 -9 3 -30 16 -47 30 -27 22 -28 25 -13 42 42
46 42 127 0 153 -15 9 -12 15 22 45 22 19 44 35 51 35 6 0 25 -15 42 -32z"/>
<path d="M58 22804 c-62 -33 -58 85 -58 -1734 0 -1513 1 -1664 16 -1689 35
-60 -47 -56 1265 -59 952 -2 1215 0 1245 10 57 19 76 59 82 173 2 51 1 123 -3
161 -6 59 -12 73 -40 101 l-33 33 -1041 0 -1041 0 0 1270 0 1270 1020 0 c758
0 1026 3 1045 12 14 6 35 26 46 45 19 30 20 46 17 193 l-3 160 -33 32 -32 33
-1213 2 c-1058 2 -1215 0 -1239 -13z"/>
<path d="M4650 22797 c-29 -15 -55 -39 -72 -68 -15 -24 -336 -777 -714 -1674
-485 -1150 -688 -1641 -688 -1667 -1 -59 8 -63 177 -66 183 -5 218 3 242 54 9
20 294 700 632 1512 338 813 618 1480 622 1485 4 4 163 -383 352 -860 l345
-868 -528 -5 c-465 -4 -529 -7 -543 -21 -24 -24 -165 -355 -165 -387 0 -16 5
-33 12 -40 9 -9 181 -12 714 -12 552 0 703 -3 707 -12 136 -341 334 -808 348
-823 18 -19 33 -20 214 -20 216 0 220 1 219 63 -2 39 -1366 3290 -1406 3348
-12 17 -37 42 -56 55 -33 23 -45 24 -201 27 -159 3 -168 2 -211 -21z"/>
<path d="M7998 22809 c-185 -27 -383 -151 -510 -318 -68 -90 -143 -246 -175
-366 -24 -91 -26 -117 -27 -280 0 -197 10 -257 63 -404 97 -264 292 -464 541
-552 65 -23 69 -23 710 -29 l645 -5 58 -24 c112 -45 218 -158 265 -284 44
-115 48 -279 11 -397 -43 -135 -145 -260 -256 -313 l-68 -32 -615 -3 c-443 -2
-630 0 -670 8 -170 37 -305 196 -348 413 -10 47 -24 92 -31 101 -11 14 -39 16
-185 16 -220 0 -212 5 -209 -127 8 -386 300 -753 688 -865 80 -23 81 -23 720
-23 733 0 722 -1 893 86 254 128 426 355 504 666 20 76 23 113 22 278 0 173
-3 199 -27 288 -29 108 -94 255 -154 344 -85 129 -236 259 -367 317 -138 61
-115 59 -821 65 l-650 6 -60 24 c-111 45 -213 174 -250 318 -20 76 -19 225 1
294 41 137 123 242 229 295 l60 29 645 0 645 0 67 -33 c117 -57 200 -178 233
-337 9 -43 21 -85 27 -92 8 -10 53 -13 174 -13 l164 0 16 25 c14 21 16 40 10
111 -26 313 -222 598 -509 739 -168 82 -136 79 -807 81 -327 1 -621 -2 -652
-7z"/>
<path d="M10708 22809 c-12 -6 -18 -22 -18 -46 0 -30 73 -141 536 -807 294
-424 544 -775 555 -780 16 -7 25 -4 44 15 41 41 225 313 225 332 0 29 -825
1248 -862 1275 -31 21 -40 22 -248 22 -127 0 -222 -5 -232 -11z"/>
<path d="M13275 22811 c-11 -5 -27 -17 -36 -27 -21 -24 -1201 -1820 -1226
-1866 -17 -31 -18 -78 -21 -768 -2 -685 -1 -737 15 -770 27 -52 69 -62 234
-58 156 4 181 14 198 75 7 25 11 288 11 753 l1 715 632 916 c348 504 640 933
649 952 17 36 15 65 -6 79 -15 10 -426 9 -451 -1z"/>
<path d="M29154 22790 c-286 -75 -521 -331 -612 -668 -24 -89 -26 -113 -26
-287 1 -174 3 -198 27 -290 33 -120 107 -276 176 -367 130 -171 326 -290 525
-317 48 -7 297 -11 650 -11 662 0 635 3 759 -94 49 -39 122 -147 147 -219 96
-272 -19 -595 -250 -706 l-55 -26 -634 -3 c-700 -3 -694 -3 -794 60 -60 38
-127 120 -167 202 -30 65 -60 170 -60 218 0 50 -27 58 -200 58 -85 0 -165 -3
-177 -6 -34 -9 -47 -54 -39 -142 20 -222 107 -417 260 -579 95 -100 172 -158
287 -212 164 -79 133 -76 874 -76 609 0 665 1 724 18 327 93 570 362 663 735
29 116 32 395 6 514 -71 319 -260 575 -513 698 -157 76 -125 73 -850 80 -756
6 -706 0 -816 109 -105 106 -149 217 -149 382 0 151 41 259 137 360 35 37 75
67 116 85 l62 29 608 3 c681 3 686 3 785 -65 91 -62 160 -177 188 -315 21
-106 25 -108 194 -108 76 0 150 4 164 10 34 13 41 59 27 173 -26 205 -108 364
-271 527 -116 116 -197 169 -335 217 l-80 28 -640 2 c-599 2 -645 1 -711 -17z"/>
<path d="M31657 22790 c-36 -29 -47 -76 -47 -210 0 -130 11 -182 45 -216 l24
-24 1386 0 c1525 0 1431 -4 1454 61 14 41 14 299 0 336 -6 15 -20 38 -31 51
l-21 22 -1392 0 c-1387 0 -1392 0 -1418 -20z"/>
<path d="M35509 22773 c-22 -20 -49 -53 -59 -72 -45 -90 -1382 -3274 -1387
-3305 -4 -26 0 -39 16 -55 20 -20 31 -21 192 -21 164 0 171 1 190 23 11 12
302 697 645 1522 344 825 628 1503 632 1507 4 4 163 -386 353 -865 l345 -872
-532 -5 c-375 -4 -536 -8 -544 -16 -21 -21 -160 -354 -160 -382 0 -16 5 -33
12 -40 9 -9 181 -12 713 -12 l700 0 154 -377 c172 -422 193 -468 216 -477 28
-10 375 -7 396 4 47 26 51 17 -662 1709 -375 889 -691 1634 -701 1656 -11 22
-30 51 -42 63 -43 48 -64 52 -255 52 l-181 0 -41 -37z"/>
<path d="M38037 22799 c-49 -29 -47 55 -47 -1738 l0 -1671 29 -32 29 -33 149
-3 c162 -4 192 3 220 45 17 25 18 76 23 778 l5 752 915 -770 c503 -423 934
-778 957 -788 38 -18 64 -19 320 -17 l278 3 3 25 c2 18 -7 35 -30 57 -18 17
-575 486 -1238 1042 l-1205 1012 -5 644 -5 644 -29 30 -30 31 -160 0 c-91 0
-169 -5 -179 -11z"/>
<path d="M40131 22788 c-88 -63 -1340 -1146 -1345 -1165 -3 -12 -3 -31 2 -42
11 -31 251 -221 278 -221 16 0 272 213 826 686 442 377 813 697 826 710 48 54
47 54 -267 54 -283 0 -289 0 -320 -22z"/>
<path d="M41470 22780 c-15 -16 -30 -44 -34 -61 -3 -17 -6 -765 -6 -1661 0
-1749 -2 -1667 50 -1713 22 -20 38 -20 1244 -23 892 -2 1228 1 1248 9 15 6 37
26 49 45 19 31 20 46 17 195 l-3 161 -37 34 -38 34 -1035 0 -1035 0 0 1270 0
1270 1020 0 c1127 0 1062 -4 1094 64 21 45 23 290 2 340 -30 71 75 66 -1284
66 l-1224 0 -28 -30z"/>
<path d="M32903 21966 c-67 -30 -63 56 -63 -1316 0 -1366 -4 -1282 61 -1316
25 -12 59 -15 181 -12 l150 3 29 33 29 32 0 1260 0 1260 -29 32 -29 33 -149 2
c-111 2 -156 -1 -180 -11z"/>
<path d="M798 21351 l-33 -29 -3 -153 c-4 -174 -2 -186 34 -222 l27 -27 768 0
767 0 30 29 c36 37 42 65 42 200 0 128 -11 172 -51 205 l-31 26 -759 0 -759 0
-32 -29z"/>
<path d="M42261 21367 c-48 -24 -62 -57 -68 -158 -9 -144 3 -224 37 -262 l28
-32 742 -3 c506 -2 754 1 781 8 68 19 79 48 79 223 0 168 -9 199 -65 223 -47
19 -1496 21 -1534 1z"/>
<path d="M28055 18668 c-16 -46 -30 -89 -33 -95 -8 -25 114 -14 146 12 4 3
-76 165 -81 165 -2 0 -16 -37 -32 -82z"/>
<path d="M27649 17534 l-355 -1027 -50 -2 c-53 -2 -137 -40 -131 -59 2 -6 31
-30 64 -54 l61 -42 22 67 c13 38 26 72 31 77 15 17 10 -10 -15 -79 l-24 -65
90 0 c78 0 89 2 84 16 -3 9 -6 20 -6 24 0 16 -62 80 -90 95 l-27 14 354 1022
c194 562 352 1026 351 1031 -2 5 -163 -453 -359 -1018z"/>
<path d="M35603 18236 c-48 -22 -75 -71 -70 -126 4 -35 12 -51 42 -78 34 -32
41 -34 87 -30 90 9 139 89 105 170 -27 63 -101 92 -164 64z"/>
<path d="M25186 16090 c-218 -634 -395 -1154 -392 -1157 2 -3 -2 -23 -10 -45
-8 -23 -13 -42 -12 -43 2 -2 21 9 42 23 l40 25 -27 21 -27 22 395 1143 c218
629 394 1148 392 1154 -1 5 -182 -509 -401 -1143z"/>
<path d="M27076 16401 c-18 -33 -22 -136 -6 -146 10 -6 150 72 150 85 0 6 -99
78 -122 88 -4 2 -14 -10 -22 -27z"/>
<path d="M25975 15573 c-1198 -730 -1128 -687 -1101 -679 14 5 2171 1314 2195
1333 2 2 2 5 0 7 -2 2 -494 -295 -1094 -661z"/>
<path d="M27360 16168 c0 -8 2643 -3395 2667 -3418 14 -13 15 -13 7 0 -4 8
-319 413 -699 900 -380 487 -974 1247 -1319 1690 -633 810 -656 840 -656 828z"/>
<path d="M30353 7846 c-48 -22 -75 -71 -70 -126 4 -35 12 -51 42 -78 34 -32
41 -34 88 -29 86 8 134 81 106 160 -25 70 -100 103 -166 73z"/>
<path d="M35831 4145 c-40 -34 -56 -84 -41 -130 24 -74 109 -107 180 -70 69
36 80 144 21 197 -43 38 -116 40 -160 3z"/>
</g>
</svg>
