<svg viewBox="0 0 96 120" width="36" height="45"><path d="M26.463 54.857l1.104 7.75-5.522 1.107-4.418-1.107L11 51.536l2.209-19.929 7.731-9.964 9.94-1.107L40.82 15l13.255 6.643-3.314 3.321c9.572 1.476 15.831 2.584 18.776 3.322 4.418 1.107 12.15 6.643 13.254 7.75 1.105 1.107.578 6.196 0 9.964-.386 2.512-1.122 4.357-2.209 5.536L85 77h-9.94l2.209-2.214-8.836-18.822-24.299 3.322L35.3 77h-9.94l3.313-5.536 6.627-23.25-4.418-4.428L20.94 46l-1.105 8.857 3.313 3.322 3.314-3.322zM42 67.933l3.3-6.8L49.7 60 53 77H42l2.2-1.133-2.2-7.934zm21.2-7.698L66.5 58l5.5 9.5-1.1 9.5H61l2.2-3.353V60.235z" fill="currentColor" fill-rule="evenodd"></path></svg>